<svg id="svg" version="1.1" xmlns="http://www.w3.org/2000/svg" xmlns:xlink="http://www.w3.org/1999/xlink" width="400" height="400" viewBox="0, 0, 400,400"><g id="svgg"><path id="path0" d="M237.408 96.043 C 237.614 97.113,237.908 97.432,238.300 97.012 C 238.465 96.835,238.374 96.610,238.098 96.511 C 237.821 96.412,237.689 96.179,237.804 95.993 C 237.919 95.807,237.840 95.548,237.627 95.417 C 237.409 95.282,237.314 95.554,237.408 96.043 M182.111 118.100 C 181.898 118.375,181.608 118.926,181.465 119.325 C 181.314 119.746,181.011 119.930,180.741 119.764 C 180.465 119.593,180.384 119.650,180.541 119.904 C 180.686 120.139,180.579 120.426,180.302 120.541 C 180.026 120.655,180.250 120.691,180.800 120.620 C 181.350 120.549,181.755 120.290,181.700 120.045 C 181.645 119.800,181.759 119.600,181.953 119.600 C 182.148 119.600,182.393 119.150,182.498 118.600 C 182.715 117.466,182.658 117.393,182.111 118.100 M144.105 127.714 C 144.157 127.981,143.962 128.151,143.670 128.090 C 143.363 128.026,143.259 128.171,143.422 128.435 C 143.576 128.685,143.460 129.040,143.163 129.223 C 142.866 129.406,142.718 129.651,142.833 129.766 C 142.948 129.882,143.503 129.451,144.066 128.810 C 144.829 127.940,144.952 127.591,144.550 127.436 C 144.253 127.322,144.052 127.447,144.105 127.714 M271.026 156.758 C 270.904 156.955,271.085 157.224,271.428 157.355 C 271.791 157.495,271.930 157.804,271.761 158.097 C 271.602 158.374,271.618 158.468,271.796 158.306 C 271.975 158.145,272.374 158.325,272.683 158.706 C 273.186 159.329,273.199 159.308,272.808 158.500 C 272.568 158.005,272.490 157.600,272.635 157.600 C 272.780 157.600,272.674 157.330,272.400 157.000 C 271.835 156.319,271.350 156.234,271.026 156.758 M212.511 159.192 C 212.445 160.065,212.980 160.532,214.200 160.663 C 214.640 160.711,214.774 160.655,214.498 160.541 C 214.221 160.426,214.114 160.139,214.259 159.904 C 214.421 159.643,214.333 159.594,214.035 159.778 C 213.724 159.971,213.466 159.775,213.326 159.240 C 213.049 158.179,212.589 158.152,212.511 159.192 M295.849 199.520 C 295.723 199.725,296.017 200.232,296.503 200.647 C 297.369 201.386,297.375 201.386,296.793 200.639 C 296.467 200.220,296.260 199.800,296.333 199.705 C 296.407 199.611,296.380 199.446,296.273 199.340 C 296.167 199.234,295.976 199.315,295.849 199.520 M299.693 208.000 C 299.693 208.770,299.775 209.085,299.876 208.700 C 299.976 208.315,299.976 207.685,299.876 207.300 C 299.775 206.915,299.693 207.230,299.693 208.000 M38.569 248.100 C 36.568 249.934,36.238 252.300,37.810 253.536 C 39.695 255.019,45.458 254.810,46.997 253.203 L 48.145 252.005 47.272 251.077 C 46.793 250.566,46.400 249.789,46.400 249.351 C 46.400 248.159,45.428 247.027,44.658 247.322 C 44.296 247.461,44.000 247.401,44.000 247.187 C 44.000 246.125,39.990 246.799,38.569 248.100 M35.472 268.261 C 35.404 268.329,34.460 268.434,33.374 268.493 C 31.783 268.581,31.411 268.737,31.455 269.297 C 31.485 269.679,31.350 269.893,31.155 269.772 C 30.960 269.651,30.800 269.923,30.800 270.376 C 30.800 270.845,30.539 271.200,30.194 271.200 C 29.227 271.200,28.003 273.613,28.001 275.523 C 28.000 276.902,27.771 277.460,26.850 278.323 C 26.142 278.986,25.672 279.861,25.627 280.600 C 25.586 281.260,25.519 282.340,25.477 283.000 C 25.424 283.818,25.056 284.417,24.322 284.881 C 23.167 285.610,22.872 286.615,22.700 290.394 C 22.607 292.439,22.532 292.589,21.600 292.594 C 20.515 292.600,20.283 293.409,20.296 297.131 C 20.306 299.646,20.618 299.800,25.720 299.800 L 30.200 299.800 30.581 297.800 C 31.102 295.065,31.466 294.800,34.709 294.800 C 38.014 294.800,38.800 295.393,38.800 297.889 C 38.800 299.913,39.010 300.000,43.859 300.000 C 49.068 300.000,49.200 299.903,49.200 296.061 C 49.200 293.126,49.132 292.884,48.000 291.800 C 47.340 291.168,46.800 290.333,46.800 289.945 C 46.800 287.809,45.877 285.127,45.005 284.729 C 44.220 284.372,44.064 283.949,43.928 281.801 C 43.785 279.558,43.631 279.174,42.484 278.209 C 41.364 277.267,41.200 276.881,41.200 275.190 C 41.200 272.624,40.672 271.355,39.480 271.056 C 38.810 270.888,38.429 270.446,38.271 269.653 C 38.067 268.633,36.086 267.648,35.472 268.261 M60.200 268.563 C 57.467 269.734,57.400 270.128,57.400 285.000 C 57.400 301.633,56.821 300.179,63.351 299.939 C 67.753 299.777,67.590 299.876,67.991 297.126 C 68.161 295.957,68.323 295.409,68.350 295.910 C 68.387 296.584,68.711 296.882,69.600 297.060 C 70.587 297.257,70.800 297.497,70.800 298.407 C 70.800 299.048,71.067 299.617,71.433 299.757 C 72.631 300.217,80.217 300.023,80.720 299.520 C 81.449 298.791,81.353 293.425,80.600 292.800 C 80.270 292.526,80.000 292.442,80.000 292.613 C 80.000 292.784,79.640 292.598,79.200 292.200 C 78.760 291.802,78.400 291.054,78.400 290.538 C 78.400 290.022,78.265 289.621,78.100 289.647 C 75.684 290.029,74.795 287.021,77.182 286.544 C 78.232 286.334,78.396 286.099,78.642 284.456 C 78.795 283.438,79.235 282.154,79.620 281.603 C 80.862 279.824,80.935 278.499,79.852 277.415 C 79.138 276.702,78.810 275.809,78.602 274.016 C 78.301 271.424,77.769 270.800,75.862 270.800 C 75.235 270.800,74.469 270.322,73.778 269.500 L 72.684 268.200 67.042 268.125 C 63.182 268.073,61.021 268.212,60.200 268.563 M93.400 268.289 C 92.960 268.395,91.945 269.177,91.144 270.027 L 89.688 271.573 89.651 284.751 C 89.616 297.120,89.661 297.986,90.372 298.864 L 91.130 299.800 101.304 299.800 C 112.672 299.800,112.800 299.771,112.800 297.217 C 112.800 296.118,112.422 295.246,111.346 293.866 L 109.893 292.000 104.946 292.000 L 100.000 292.000 100.000 290.600 L 100.000 289.200 104.567 289.200 C 110.655 289.200,110.400 289.357,110.400 285.606 C 110.400 281.459,110.318 281.402,104.547 281.463 L 100.000 281.511 100.000 280.216 L 100.000 278.922 105.019 278.654 L 110.037 278.385 111.319 276.935 C 113.618 274.332,113.593 272.444,111.225 269.759 L 109.850 268.200 102.025 268.148 C 97.721 268.120,93.840 268.184,93.400 268.289 M132.835 268.414 C 132.085 268.585,131.259 268.644,131.000 268.544 C 130.347 268.294,129.460 269.458,129.743 270.195 C 129.870 270.528,129.790 270.800,129.564 270.800 C 129.338 270.800,129.281 271.008,129.438 271.262 C 129.606 271.534,129.549 271.616,129.298 271.461 C 128.069 270.701,126.800 272.774,126.800 275.541 C 126.800 276.596,126.472 277.300,125.526 278.277 C 124.452 279.384,124.225 279.962,124.081 281.952 C 123.935 283.967,123.770 284.376,122.955 284.748 C 122.430 284.987,121.977 285.412,121.949 285.691 C 121.921 285.971,121.839 286.560,121.766 287.000 C 121.694 287.440,121.551 288.790,121.449 290.000 C 121.347 291.210,121.249 292.304,121.232 292.432 C 121.214 292.559,120.795 292.649,120.300 292.632 C 119.680 292.610,119.417 292.816,119.455 293.296 C 119.485 293.678,119.350 293.893,119.155 293.772 C 118.685 293.482,118.707 298.434,119.179 299.180 C 119.445 299.600,120.604 299.807,123.359 299.927 C 128.747 300.163,129.200 300.002,129.200 297.854 C 129.200 295.384,129.995 294.800,133.360 294.800 C 136.545 294.800,138.330 296.585,137.609 299.047 C 137.270 300.203,146.278 300.464,147.412 299.331 C 148.653 298.089,148.089 293.083,146.548 291.676 C 145.503 290.722,145.281 290.184,145.117 288.205 C 144.961 286.318,144.726 285.701,143.909 285.031 C 143.113 284.379,142.834 283.683,142.613 281.800 C 142.385 279.864,142.105 279.192,141.165 278.323 C 140.272 277.497,139.999 276.889,139.998 275.723 C 139.994 273.107,139.303 271.313,138.193 271.034 C 137.647 270.897,137.200 270.553,137.200 270.269 C 137.200 268.731,135.189 267.876,132.835 268.414 M187.522 268.211 C 187.392 268.341,186.727 268.518,186.043 268.605 C 184.654 268.780,180.576 272.513,181.008 273.213 C 181.146 273.437,181.111 273.594,180.930 273.563 C 178.059 273.064,177.206 275.178,177.596 281.825 C 177.692 283.458,178.597 284.000,181.226 284.000 L 182.800 284.000 182.800 288.000 L 182.800 292.000 181.787 292.000 C 178.584 292.000,177.594 293.364,177.739 297.574 C 177.821 299.962,178.421 300.089,188.804 299.928 C 198.098 299.784,198.400 299.698,198.400 297.177 C 198.400 294.252,196.533 292.006,194.100 292.001 L 193.200 292.000 193.199 281.700 C 193.197 270.921,192.875 268.927,191.106 268.749 C 189.694 268.606,188.943 268.464,188.379 268.231 C 188.038 268.090,187.652 268.081,187.522 268.211 M214.484 268.485 C 213.683 268.696,212.993 269.216,212.720 269.815 C 212.454 270.400,211.932 270.802,211.436 270.806 C 210.439 270.813,209.531 271.331,209.626 271.837 C 209.834 272.939,209.489 273.662,208.593 274.003 C 207.001 274.608,206.800 275.886,206.800 285.384 L 206.800 294.315 208.022 295.624 C 208.695 296.343,209.490 297.519,209.790 298.237 C 210.959 301.036,227.600 300.777,227.600 297.960 C 227.600 297.552,228.032 296.936,228.560 296.590 C 230.359 295.411,230.600 294.040,230.600 285.000 C 230.600 275.814,230.428 274.578,229.063 273.956 C 228.560 273.727,227.980 272.968,227.774 272.270 C 227.466 271.225,227.170 270.978,226.100 270.875 C 225.157 270.784,224.800 270.550,224.800 270.024 C 224.800 268.406,218.405 267.452,214.484 268.485 M301.200 268.263 C 298.800 268.650,298.350 268.877,297.944 269.911 C 297.584 270.827,297.359 272.023,297.226 273.727 C 297.211 273.907,296.855 273.944,296.434 273.811 C 296.012 273.677,295.534 273.783,295.372 274.046 C 295.173 274.366,295.261 274.428,295.638 274.232 C 295.947 274.072,295.885 274.199,295.500 274.514 C 295.013 274.914,294.800 275.664,294.800 276.984 C 294.800 278.584,294.609 279.058,293.570 280.028 C 292.893 280.661,292.453 281.363,292.593 281.589 C 292.733 281.815,292.644 282.000,292.395 282.000 C 292.146 282.000,291.976 282.405,292.016 282.900 C 292.250 285.789,292.004 286.755,290.900 287.283 C 289.915 287.755,289.765 288.101,289.466 290.605 C 289.282 292.142,288.872 293.690,288.554 294.045 C 286.978 295.802,287.345 299.691,289.025 299.046 C 289.340 298.925,289.548 299.044,289.495 299.314 C 289.426 299.668,290.434 299.800,293.200 299.800 L 297.000 299.800 297.119 298.580 C 297.210 297.650,297.518 297.255,298.419 296.915 C 299.207 296.618,299.600 296.192,299.600 295.635 C 299.600 294.869,299.828 294.800,302.368 294.800 L 305.136 294.800 305.442 296.100 C 305.610 296.815,305.715 297.670,305.675 298.000 C 305.503 299.429,306.257 299.725,310.559 299.916 C 315.923 300.155,316.000 300.100,316.000 296.001 C 316.000 291.486,315.697 290.367,314.338 289.854 C 313.259 289.447,313.200 289.299,313.200 286.988 C 313.200 284.763,313.099 284.476,312.043 283.695 C 311.023 282.941,310.852 282.505,310.604 280.036 C 310.326 277.268,309.799 276.264,308.742 276.486 C 308.344 276.570,308.147 275.893,308.000 273.932 C 307.890 272.465,307.708 271.205,307.596 271.132 C 307.483 271.060,306.763 270.434,305.996 269.741 C 304.575 268.460,302.997 267.974,301.200 268.263 M327.800 268.390 C 327.360 268.571,326.387 269.360,325.638 270.143 L 324.277 271.565 324.301 285.226 C 324.319 294.891,324.460 299.020,324.782 299.343 C 325.092 299.653,328.324 299.841,334.814 299.926 L 344.389 300.052 346.203 298.132 L 348.017 296.212 347.908 285.291 C 347.794 273.746,347.721 273.322,345.922 273.752 C 345.393 273.878,345.216 273.592,345.122 272.457 C 345.011 271.136,344.879 270.988,343.700 270.875 C 342.757 270.784,342.400 270.550,342.400 270.024 C 342.400 269.232,341.741 268.566,340.800 268.408 C 339.089 268.121,328.488 268.106,327.800 268.390 M364.800 268.507 C 364.800 268.694,364.618 268.735,364.396 268.598 C 363.687 268.159,362.366 268.837,361.987 269.834 C 361.772 270.400,361.296 270.800,360.838 270.800 C 358.958 270.800,358.774 271.585,358.891 279.134 L 359.000 286.193 360.195 286.399 C 360.980 286.535,361.440 286.880,361.534 287.403 C 361.768 288.701,362.309 288.989,364.905 289.200 C 367.310 289.395,367.377 289.432,367.635 290.700 C 367.942 292.211,366.662 292.656,366.200 291.200 C 365.817 289.995,364.889 289.682,361.700 289.683 C 356.090 289.685,354.223 293.916,357.922 298.244 L 359.400 299.974 366.720 299.987 C 375.980 300.003,377.200 299.489,377.200 295.564 C 377.200 294.688,377.445 294.287,378.145 294.021 C 380.097 293.279,380.294 288.425,378.457 286.314 C 377.828 285.591,377.191 284.330,377.041 283.511 C 376.796 282.178,376.593 281.975,375.098 281.573 L 373.428 281.123 374.958 279.761 C 375.800 279.013,376.655 278.400,376.859 278.400 C 377.069 278.400,377.180 276.789,377.115 274.700 L 377.000 271.000 375.700 270.875 C 374.757 270.784,374.400 270.550,374.400 270.024 C 374.400 269.221,373.721 268.548,372.800 268.437 C 370.622 268.176,364.800 268.227,364.800 268.507 M263.376 268.838 C 263.253 269.037,263.281 269.408,263.438 269.662 C 263.615 269.948,263.548 270.015,263.262 269.838 C 262.979 269.663,262.800 269.828,262.800 270.261 C 262.800 270.651,262.305 271.365,261.700 271.847 L 260.600 272.724 260.600 284.532 C 260.600 296.238,260.608 296.351,261.515 297.470 C 262.018 298.092,262.534 298.918,262.663 299.307 C 262.879 299.960,263.592 300.007,271.949 299.907 L 281.000 299.800 281.118 296.408 C 281.270 292.022,281.241 292.000,275.324 292.000 L 270.800 292.000 270.777 281.700 C 270.762 274.825,270.596 270.934,270.277 270.000 L 269.800 268.600 266.700 268.538 C 264.995 268.504,263.499 268.639,263.376 268.838 M220.000 285.400 L 220.000 292.000 218.600 292.000 L 217.200 292.000 217.200 285.400 L 217.200 278.800 218.600 278.800 L 220.000 278.800 220.000 285.400 M337.368 279.148 C 337.636 279.581,336.442 280.966,335.500 281.315 C 334.918 281.531,334.800 281.341,334.800 280.187 C 334.800 278.813,336.689 278.049,337.368 279.148 M336.477 289.900 C 337.766 291.400,337.683 292.000,336.187 292.000 C 334.868 292.000,334.800 291.931,334.800 290.600 C 334.800 289.041,335.492 288.753,336.477 289.900 " stroke="none" fill="#747474" fill-rule="evenodd"></path><path id="path1" d="M197.314 34.946 C 196.905 35.466,196.005 36.184,195.315 36.541 C 194.264 37.084,193.985 37.544,193.609 39.357 C 193.238 41.142,192.987 41.567,192.180 41.769 C 191.641 41.905,191.200 42.202,191.200 42.431 C 191.200 42.660,191.425 42.733,191.700 42.594 C 191.975 42.455,191.885 42.599,191.500 42.914 C 191.038 43.293,190.800 44.052,190.800 45.144 C 190.800 46.707,190.527 47.038,189.415 46.819 C 188.782 46.695,188.000 48.073,188.000 49.313 C 188.000 50.491,186.723 52.541,186.126 52.321 C 185.947 52.254,185.743 52.794,185.673 53.521 C 185.583 54.463,185.266 54.969,184.569 55.287 C 183.622 55.719,182.951 57.268,182.705 59.594 C 182.624 60.357,182.368 60.589,181.600 60.594 C 180.842 60.599,180.597 60.813,180.588 61.479 C 180.581 61.962,180.446 62.487,180.288 62.645 C 180.130 62.804,180.000 63.533,180.000 64.267 C 180.000 65.042,179.791 65.619,179.500 65.646 C 179.225 65.672,178.730 65.717,178.400 65.746 C 178.070 65.776,177.788 66.070,177.773 66.400 C 177.699 68.088,177.027 69.678,176.069 70.431 C 174.984 71.285,174.939 71.374,174.850 72.810 C 174.822 73.264,174.385 73.777,173.855 73.979 C 172.769 74.392,172.570 74.795,172.185 77.360 C 172.013 78.508,171.638 79.365,171.208 79.596 C 170.511 79.969,169.857 81.308,169.449 83.200 C 169.331 83.750,168.833 84.380,168.343 84.600 C 167.853 84.820,167.372 85.250,167.274 85.556 C 167.167 85.889,167.275 86.001,167.544 85.835 C 167.828 85.659,167.904 85.784,167.753 86.179 C 167.622 86.521,167.354 86.800,167.157 86.800 C 166.961 86.800,166.800 87.482,166.800 88.316 C 166.800 89.706,166.709 89.830,165.700 89.816 C 164.932 89.805,164.598 90.003,164.595 90.472 C 164.592 90.841,164.457 91.276,164.295 91.438 C 164.133 91.601,164.000 92.072,164.000 92.486 C 164.000 92.900,163.505 93.697,162.900 94.257 C 162.295 94.818,161.768 95.664,161.730 96.138 C 161.603 97.699,160.852 99.148,159.818 99.825 C 159.059 100.322,158.800 100.837,158.800 101.846 C 158.800 102.773,158.614 103.200,158.209 103.200 C 157.884 103.200,157.313 103.666,156.940 104.236 C 156.312 105.194,156.120 105.922,156.033 107.672 C 156.015 108.051,155.607 108.400,155.100 108.472 C 154.515 108.556,154.221 108.854,154.260 109.327 C 154.293 109.726,154.206 109.940,154.068 109.801 C 153.929 109.662,153.629 110.505,153.400 111.674 C 153.124 113.090,152.806 113.762,152.450 113.686 C 151.564 113.497,150.924 114.320,150.885 115.698 C 150.859 116.609,150.490 117.320,149.656 118.066 C 149.001 118.652,148.570 119.237,148.699 119.366 C 148.828 119.495,148.702 119.600,148.420 119.600 C 148.102 119.600,147.987 119.907,148.118 120.409 C 148.264 120.966,147.905 121.668,146.965 122.665 C 146.084 123.599,145.600 124.507,145.600 125.227 C 145.600 126.271,145.383 126.597,143.814 127.916 C 143.476 128.199,143.200 128.644,143.200 128.905 C 143.200 129.165,143.480 128.978,143.823 128.489 C 144.165 128.000,144.605 127.600,144.800 127.600 C 144.995 127.600,144.634 128.170,143.998 128.867 C 143.361 129.564,142.786 130.592,142.720 131.151 C 142.637 131.853,142.294 132.240,141.615 132.399 C 140.540 132.650,140.104 133.673,140.040 136.100 C 140.016 136.985,139.795 137.619,139.500 137.646 C 139.225 137.672,138.730 137.717,138.400 137.746 C 138.070 137.776,137.788 138.070,137.773 138.400 C 137.699 140.088,137.027 141.678,136.069 142.431 C 134.984 143.285,134.939 143.374,134.850 144.810 C 134.822 145.270,134.383 145.779,133.834 145.987 C 132.663 146.432,132.142 147.791,132.033 150.687 C 132.009 151.341,131.826 151.508,131.342 151.322 C 130.517 151.006,129.602 152.185,129.594 153.576 C 129.587 154.845,128.732 156.600,128.122 156.600 C 127.387 156.600,127.016 157.176,126.953 158.413 C 126.891 159.659,125.090 162.136,124.580 161.678 C 124.411 161.525,124.394 161.613,124.542 161.872 C 124.691 162.132,124.630 162.458,124.407 162.596 C 124.183 162.734,124.000 163.377,124.000 164.024 C 124.000 165.161,122.819 166.800,122.000 166.800 C 121.663 166.800,121.454 168.017,121.480 169.826 C 121.484 170.060,121.116 170.240,120.663 170.226 C 119.665 170.195,118.814 171.691,118.806 173.492 C 118.801 174.530,118.606 174.834,117.814 175.032 C 116.811 175.284,116.146 176.466,116.598 177.196 C 116.735 177.418,116.657 177.600,116.424 177.600 C 116.191 177.600,116.000 178.122,116.000 178.761 C 116.000 179.697,115.762 180.005,114.773 180.349 C 113.944 180.638,113.580 181.008,113.650 181.489 C 113.817 182.637,113.162 184.123,112.014 185.198 C 111.311 185.856,110.913 186.680,110.852 187.600 C 110.787 188.581,110.385 189.347,109.509 190.158 C 108.406 191.178,108.175 191.689,108.033 193.405 C 108.015 193.628,107.595 193.988,107.100 194.205 C 106.421 194.503,106.052 195.222,105.597 197.130 C 105.265 198.522,104.865 199.531,104.707 199.373 C 104.276 198.943,103.132 200.047,103.369 200.664 C 103.482 200.959,103.411 201.200,103.212 201.200 C 103.012 201.200,102.792 201.868,102.724 202.684 C 102.623 203.890,102.413 204.212,101.600 204.402 C 99.101 204.985,99.563 211.150,102.145 211.686 C 104.693 212.214,298.676 211.884,299.210 211.350 C 299.876 210.684,299.840 206.174,299.162 205.339 C 298.680 204.745,298.680 204.694,299.162 204.985 C 299.555 205.222,299.633 205.176,299.421 204.835 C 299.255 204.566,298.889 204.434,298.608 204.541 C 297.836 204.838,297.200 203.982,297.200 202.646 C 297.200 201.974,296.806 201.008,296.300 200.438 C 295.548 199.591,295.531 199.521,296.200 200.012 C 296.945 200.560,296.961 200.551,296.436 199.882 C 296.126 199.487,295.649 199.249,295.377 199.353 C 295.051 199.479,294.792 198.942,294.618 197.779 C 294.445 196.629,293.968 195.629,293.246 194.907 C 292.638 194.298,292.023 193.217,291.881 192.504 C 291.738 191.791,291.074 190.711,290.406 190.104 C 289.638 189.407,289.160 188.557,289.108 187.800 C 289.018 186.495,288.314 185.523,287.581 185.693 C 287.122 185.799,285.948 182.186,286.320 181.814 C 286.681 181.453,285.498 180.389,284.855 180.495 C 284.385 180.572,284.156 180.165,283.988 178.952 C 283.727 177.064,282.647 175.200,281.815 175.200 C 281.457 175.200,281.203 174.682,281.124 173.792 C 281.056 173.017,280.820 172.354,280.600 172.318 C 279.636 172.162,278.578 170.126,278.240 167.776 C 278.169 167.283,277.759 166.956,277.113 166.878 C 276.191 166.768,276.074 166.540,275.832 164.400 C 275.566 162.053,274.744 161.093,273.604 161.798 C 273.362 161.947,273.200 161.487,273.200 160.647 C 273.200 159.877,273.008 159.128,272.773 158.983 C 272.538 158.838,272.434 158.489,272.541 158.208 C 272.790 157.561,272.057 156.803,271.418 157.048 C 271.151 157.151,270.928 157.002,270.922 156.717 C 270.889 155.267,269.832 152.606,268.973 151.810 C 268.438 151.314,268.000 150.549,268.000 150.110 C 268.000 149.671,267.367 148.640,266.593 147.820 C 265.818 146.999,265.146 145.851,265.097 145.268 C 265.004 144.135,263.788 142.637,263.239 142.976 C 263.056 143.089,262.792 142.351,262.653 141.335 C 262.514 140.319,262.085 139.230,261.700 138.914 C 261.242 138.539,261.207 138.430,261.600 138.600 C 261.930 138.743,261.851 138.576,261.424 138.230 C 260.996 137.883,260.501 137.600,260.324 137.600 C 260.146 137.600,260.000 137.178,260.000 136.661 C 260.000 135.302,258.812 133.128,257.945 132.901 C 257.428 132.766,257.200 132.341,257.200 131.514 C 257.200 130.707,256.816 129.962,256.013 129.212 C 255.215 128.467,254.736 127.543,254.553 126.394 C 254.330 125.000,254.069 124.606,253.140 124.255 C 252.372 123.965,252.000 123.543,252.000 122.962 C 252.000 120.730,251.469 119.481,250.338 119.054 C 249.472 118.727,249.200 118.365,249.200 117.538 C 249.200 115.880,248.480 114.346,247.592 114.114 C 247.032 113.967,246.720 113.444,246.546 112.353 C 246.409 111.499,246.141 110.800,245.949 110.800 C 245.263 110.800,244.000 109.184,243.995 108.300 C 243.983 106.459,243.562 105.700,242.550 105.700 C 241.249 105.700,241.224 105.659,241.137 103.376 C 241.081 101.879,240.000 99.261,240.000 100.620 C 240.000 101.465,238.843 99.755,238.624 98.586 C 238.481 97.824,238.184 97.200,237.964 97.200 C 237.745 97.200,237.618 96.887,237.682 96.504 C 237.752 96.093,237.431 95.644,236.900 95.409 C 236.238 95.116,236.000 94.673,236.000 93.734 C 236.000 92.824,235.598 92.030,234.600 90.973 C 233.758 90.080,233.200 89.084,233.200 88.473 C 233.200 87.836,232.749 87.075,231.988 86.429 C 231.120 85.693,230.690 84.887,230.475 83.600 C 230.215 82.040,230.044 81.799,229.192 81.792 C 228.309 81.785,228.177 81.564,227.898 79.626 C 227.543 77.158,226.972 76.262,225.928 76.535 C 225.334 76.690,225.200 76.485,225.200 75.422 C 225.200 73.903,224.471 71.600,223.989 71.600 C 223.351 71.600,222.400 70.336,222.400 69.486 C 222.400 69.015,221.909 68.239,221.310 67.761 C 220.569 67.170,220.087 66.268,219.806 64.946 C 219.546 63.724,219.170 62.980,218.796 62.946 C 218.468 62.917,217.975 62.872,217.700 62.846 C 217.398 62.818,217.198 62.205,217.195 61.300 C 217.186 59.015,216.794 58.014,215.809 57.767 C 215.106 57.590,214.809 57.072,214.423 55.347 C 214.050 53.678,213.700 53.046,212.966 52.712 C 212.366 52.438,212.000 51.934,212.000 51.381 C 212.000 50.892,211.378 49.886,210.618 49.146 C 209.575 48.130,209.210 47.415,209.131 46.233 C 209.045 44.937,208.838 44.594,207.932 44.252 C 206.985 43.895,206.801 43.551,206.571 41.708 C 206.308 39.601,205.350 38.413,204.392 39.005 C 204.163 39.146,204.000 38.638,204.000 37.786 C 204.000 36.662,203.816 36.277,203.200 36.116 C 202.760 36.001,202.400 35.739,202.400 35.533 C 202.400 34.164,198.301 33.691,197.314 34.946 M188.075 111.142 C 188.006 111.614,188.141 112.000,188.375 112.000 C 188.609 112.000,188.755 112.218,188.700 112.484 C 188.645 112.750,189.011 112.996,189.513 113.030 C 190.722 113.112,190.713 113.097,190.835 115.400 C 190.975 118.065,191.127 118.400,192.192 118.400 C 193.081 118.400,193.579 119.727,193.753 122.559 C 193.783 123.037,194.160 123.373,194.776 123.468 C 196.016 123.659,195.949 123.556,196.050 125.415 C 196.097 126.287,196.308 127.225,196.517 127.500 C 196.727 127.775,196.773 128.000,196.620 128.000 C 196.468 128.000,196.612 128.269,196.942 128.599 C 197.271 128.928,197.824 129.089,198.170 128.956 C 198.694 128.755,198.800 129.068,198.800 130.813 C 198.800 132.327,198.995 133.072,199.500 133.486 C 199.885 133.801,199.947 133.928,199.638 133.768 C 199.264 133.574,199.174 133.634,199.368 133.949 C 199.529 134.209,199.950 134.371,200.304 134.311 C 201.009 134.189,201.495 135.404,201.560 137.451 C 201.582 138.139,201.905 138.949,202.277 139.251 C 202.808 139.682,202.885 139.686,202.635 139.270 C 202.371 138.832,202.461 138.831,203.158 139.267 C 203.649 139.573,204.001 140.211,204.002 140.796 C 204.006 142.467,204.817 144.861,205.322 144.693 C 205.992 144.469,206.800 145.394,206.800 146.386 C 206.800 146.849,207.115 147.710,207.500 148.299 C 207.968 149.015,208.017 149.256,207.648 149.029 C 207.282 148.803,207.151 148.852,207.258 149.174 C 207.347 149.441,207.518 149.602,207.639 149.530 C 207.918 149.364,209.200 150.634,209.200 151.077 C 209.200 151.261,209.569 152.100,210.020 152.942 C 210.471 153.783,210.628 154.341,210.368 154.180 C 210.070 153.996,209.968 154.094,210.092 154.444 C 210.201 154.753,210.713 154.955,211.244 154.899 C 211.996 154.819,212.072 154.882,211.600 155.193 C 211.199 155.457,211.165 155.590,211.500 155.594 C 211.804 155.598,212.000 156.150,212.000 157.000 C 212.000 158.003,212.177 158.400,212.625 158.400 C 212.998 158.400,213.204 158.683,213.135 159.100 C 212.974 160.082,213.516 160.807,214.213 160.540 C 214.669 160.365,214.800 160.674,214.800 161.931 C 214.800 163.987,215.390 165.548,216.294 165.881 C 217.261 166.238,217.587 166.801,217.594 168.131 C 217.598 168.847,218.038 169.699,218.793 170.455 C 219.492 171.154,220.045 172.178,220.127 172.927 C 220.309 174.573,221.011 175.871,222.009 176.405 C 222.520 176.678,222.800 177.242,222.800 177.995 C 222.800 179.573,223.527 181.060,224.662 181.804 C 225.348 182.254,225.600 182.791,225.600 183.809 L 225.600 185.200 185.400 185.200 L 145.200 185.200 145.200 183.613 C 145.200 182.488,145.349 182.082,145.711 182.221 C 146.713 182.606,147.586 181.409,147.917 179.200 C 148.138 177.727,148.419 177.038,148.766 177.114 C 149.633 177.305,150.287 176.466,150.549 174.829 C 150.716 173.785,151.193 172.941,151.999 172.262 C 152.847 171.549,153.200 170.895,153.200 170.040 C 153.200 169.240,153.470 168.684,153.996 168.402 C 154.972 167.880,156.000 165.973,156.000 164.684 C 156.000 164.049,156.341 163.573,157.015 163.266 C 157.869 162.877,157.963 162.678,157.606 162.011 C 157.265 161.374,157.295 161.262,157.761 161.440 C 158.184 161.603,158.437 161.196,158.701 159.931 C 158.940 158.778,159.246 158.243,159.615 158.328 C 160.525 158.539,161.200 157.173,161.200 155.124 C 161.200 153.703,161.357 153.187,161.800 153.150 C 163.092 153.042,163.242 152.980,163.608 152.400 C 163.817 152.070,163.991 151.220,163.994 150.512 C 163.998 149.557,164.302 149.001,165.165 148.363 C 165.878 147.836,166.426 146.987,166.579 146.173 C 166.729 145.370,167.125 144.751,167.580 144.606 C 168.420 144.340,169.200 142.478,169.200 140.740 C 169.200 140.113,169.380 139.578,169.600 139.550 C 169.820 139.523,170.165 139.478,170.367 139.450 C 171.223 139.333,171.508 138.666,171.882 135.900 C 172.001 135.018,172.314 134.379,172.642 134.350 C 172.949 134.322,173.425 134.278,173.700 134.250 C 173.975 134.222,174.210 134.020,174.223 133.800 C 174.343 131.674,176.293 128.026,176.956 128.689 C 177.090 128.823,177.200 128.344,177.200 127.624 C 177.200 126.696,177.498 126.081,178.224 125.509 C 178.809 125.049,179.154 124.458,179.029 124.131 C 178.908 123.816,178.968 123.657,179.163 123.777 C 179.623 124.061,180.000 123.047,180.000 121.524 C 180.000 120.625,180.151 120.372,180.587 120.540 C 181.266 120.800,181.827 120.089,181.675 119.161 C 181.618 118.810,181.847 118.293,182.185 118.012 C 182.523 117.732,182.800 117.117,182.800 116.647 C 182.800 116.177,183.179 115.556,183.642 115.267 C 184.339 114.831,184.437 114.832,184.212 115.270 C 184.063 115.562,184.224 115.451,184.570 115.024 C 184.945 114.561,185.200 113.481,185.200 112.351 C 185.200 110.696,185.314 110.437,186.100 110.308 C 187.727 110.041,188.206 110.243,188.075 111.142 M151.200 122.175 C 151.200 122.504,150.857 122.724,150.400 122.690 C 149.960 122.657,149.600 122.469,149.600 122.272 C 149.600 122.075,149.870 122.018,150.200 122.145 C 150.530 122.271,150.800 122.201,150.800 121.987 C 150.800 121.774,150.890 121.600,151.000 121.600 C 151.110 121.600,151.200 121.859,151.200 122.175 M209.400 188.000 C 209.107 188.474,167.017 188.489,163.600 188.017 C 162.390 187.849,172.256 187.687,185.524 187.656 C 201.518 187.619,209.564 187.735,209.400 188.000 " stroke="none" fill="#d42c2c" fill-rule="evenodd"></path><path id="path2" d="M150.800 121.987 C 150.800 122.201,150.530 122.271,150.200 122.145 C 149.870 122.018,149.600 122.075,149.600 122.272 C 149.600 122.469,149.960 122.657,150.400 122.690 C 150.857 122.724,151.200 122.504,151.200 122.175 C 151.200 121.859,151.110 121.600,151.000 121.600 C 150.890 121.600,150.800 121.774,150.800 121.987 M163.600 188.017 C 167.017 188.489,209.107 188.474,209.400 188.000 C 209.564 187.735,201.518 187.619,185.524 187.656 C 172.256 187.687,162.390 187.849,163.600 188.017 " stroke="none" fill="#d42c34" fill-rule="evenodd"></path><path id="path3" d="" stroke="none" fill="#887850" fill-rule="evenodd"></path><path id="path4" d="M217.905 268.283 C 218.402 268.379,219.122 268.375,219.505 268.275 C 219.887 268.175,219.480 268.096,218.600 268.101 C 217.720 268.105,217.407 268.187,217.905 268.283 M367.105 268.283 C 367.602 268.379,368.322 268.375,368.705 268.275 C 369.087 268.175,368.680 268.096,367.800 268.101 C 366.920 268.105,366.607 268.187,367.105 268.283 M324.173 285.400 C 324.173 290.680,324.230 292.785,324.299 290.077 C 324.368 287.369,324.368 283.049,324.299 280.477 C 324.229 277.905,324.172 280.120,324.173 285.400 M100.905 281.487 C 101.514 281.579,102.414 281.577,102.905 281.482 C 103.397 281.387,102.900 281.311,101.800 281.314 C 100.700 281.317,100.297 281.395,100.905 281.487 " stroke="none" fill="#bc5450" fill-rule="evenodd"></path></g></svg>