<svg id="svg" version="1.1" xmlns="http://www.w3.org/2000/svg" xmlns:xlink="http://www.w3.org/1999/xlink" width="400" height="400" viewBox="0, 0, 400,400"><g id="svgg"><path id="path0" d="M187.600 124.086 C 187.600 125.669,183.423 126.763,181.656 125.643 C 180.834 125.122,179.600 125.596,179.600 126.433 C 179.600 127.468,178.392 128.000,176.044 128.000 C 174.414 128.000,173.840 128.196,172.994 129.042 C 172.074 129.962,171.745 130.053,170.176 129.817 C 168.594 129.580,168.400 129.636,168.400 130.327 C 168.400 131.412,167.450 132.081,166.124 131.929 C 165.256 131.829,164.842 132.050,164.306 132.900 C 163.853 133.618,163.267 134.000,162.620 134.000 C 162.058 134.000,161.453 134.327,161.225 134.754 C 161.003 135.169,160.369 135.622,159.816 135.760 C 159.263 135.899,158.517 136.460,158.159 137.006 C 157.454 138.082,155.441 138.402,155.049 137.500 C 154.930 137.225,154.930 137.478,155.050 138.062 C 155.222 138.904,155.089 139.181,154.405 139.398 C 153.931 139.549,151.588 141.636,149.200 144.036 C 146.811 146.436,144.664 148.400,144.428 148.400 C 144.193 148.400,144.000 148.666,144.000 148.991 C 144.000 149.316,143.568 149.864,143.040 150.210 C 142.513 150.556,141.866 151.357,141.604 151.991 C 141.341 152.624,140.873 153.240,140.563 153.359 C 140.254 153.478,140.000 153.930,140.000 154.365 C 140.000 154.799,139.667 155.390,139.260 155.677 C 138.852 155.965,138.218 156.785,137.849 157.500 C 137.481 158.215,136.914 158.800,136.590 158.800 C 136.202 158.800,136.000 159.208,136.000 159.991 C 136.000 160.820,135.696 161.381,135.000 161.837 C 134.262 162.321,134.000 162.844,134.000 163.837 C 134.000 164.822,133.738 165.353,133.022 165.822 C 132.336 166.272,132.008 166.899,131.922 167.929 C 131.827 169.076,131.559 169.509,130.687 169.925 C 129.696 170.398,129.602 170.606,129.831 171.825 C 130.198 173.783,129.740 175.167,128.577 175.609 C 127.616 175.974,127.586 176.088,127.825 178.495 C 128.159 181.851,127.588 183.384,126.140 183.021 L 125.091 182.757 125.412 184.679 C 125.708 186.453,125.775 190.935,125.615 198.400 C 125.580 200.050,125.667 203.589,125.808 206.265 C 125.987 209.655,125.924 211.394,125.600 212.001 C 125.195 212.757,125.230 212.853,125.867 212.731 C 126.530 212.603,126.611 212.050,126.711 206.895 L 126.822 201.200 128.011 201.200 C 129.013 201.200,129.200 201.042,129.200 200.200 C 129.200 199.400,129.400 199.200,130.200 199.200 C 131.178 199.200,131.200 199.133,131.200 196.200 C 131.200 193.267,131.222 193.200,132.200 193.200 C 133.000 193.200,133.200 193.000,133.200 192.200 C 133.200 191.400,133.400 191.200,134.200 191.200 C 135.000 191.200,135.200 191.000,135.200 190.200 C 135.200 189.400,135.400 189.200,136.200 189.200 C 137.000 189.200,137.200 189.000,137.200 188.200 C 137.200 187.400,137.400 187.200,138.200 187.200 C 139.133 187.200,139.200 187.067,139.200 185.200 C 139.200 183.376,139.282 183.200,140.125 183.200 C 141.737 183.200,143.200 181.239,143.200 179.078 L 143.200 177.200 145.200 177.200 L 147.200 177.200 147.200 175.200 C 147.200 173.333,147.267 173.200,148.200 173.200 C 149.000 173.200,149.200 173.000,149.200 172.200 C 149.200 171.400,149.400 171.200,150.200 171.200 C 151.031 171.200,151.200 171.009,151.200 170.070 C 151.200 169.381,151.591 168.572,152.200 168.000 C 152.750 167.483,153.200 166.642,153.200 166.130 C 153.200 165.405,153.420 165.200,154.200 165.200 C 155.133 165.200,155.200 165.067,155.200 163.200 C 155.200 161.333,155.267 161.200,156.200 161.200 C 157.133 161.200,157.200 161.067,157.200 159.200 L 157.200 157.200 158.973 157.200 C 160.601 157.200,160.761 157.290,160.913 158.300 C 161.005 158.905,161.107 158.455,161.140 157.300 C 161.196 155.343,161.268 155.200,162.200 155.200 C 163.133 155.200,163.200 155.067,163.200 153.200 C 163.200 151.333,163.267 151.200,164.200 151.200 C 165.000 151.200,165.200 151.000,165.200 150.200 C 165.200 149.400,165.400 149.200,166.200 149.200 C 167.133 149.200,167.200 149.067,167.200 147.200 C 167.200 145.333,167.267 145.200,168.200 145.200 C 169.000 145.200,169.200 145.000,169.200 144.200 C 169.200 143.400,169.400 143.200,170.200 143.200 C 171.000 143.200,171.200 143.000,171.200 142.200 C 171.200 141.400,171.400 141.200,172.200 141.200 C 173.000 141.200,173.200 141.000,173.200 140.200 C 173.200 139.400,173.400 139.200,174.200 139.200 C 175.133 139.200,175.200 139.067,175.200 137.200 C 175.200 135.333,175.267 135.200,176.200 135.200 C 177.133 135.200,177.200 135.067,177.200 133.200 C 177.200 131.333,177.267 131.200,178.200 131.200 C 179.000 131.200,179.200 131.000,179.200 130.200 C 179.200 129.400,179.400 129.200,180.200 129.200 C 180.985 129.200,181.200 128.997,181.200 128.252 C 181.200 127.179,182.495 126.812,186.319 126.804 C 188.083 126.801,188.586 126.631,189.319 125.790 L 190.200 124.781 199.200 124.669 C 204.150 124.607,208.503 124.387,208.873 124.179 C 209.313 123.931,206.549 123.789,200.873 123.768 C 196.103 123.751,191.165 123.594,189.900 123.419 C 187.636 123.106,187.600 123.117,187.600 124.086 M212.054 124.286 C 211.988 125.866,212.855 126.421,215.274 126.347 L 217.000 126.293 215.102 126.028 C 212.963 125.730,212.545 125.428,212.288 124.000 C 212.136 123.153,212.101 123.196,212.054 124.286 M220.000 125.638 C 219.450 125.793,219.234 125.938,219.519 125.960 C 219.805 125.982,220.502 126.495,221.069 127.100 C 221.636 127.705,221.915 127.930,221.688 127.600 C 221.462 127.270,221.214 126.630,221.138 126.177 C 221.026 125.508,220.814 125.408,220.000 125.638 M193.400 155.889 C 191.865 156.267,190.646 158.800,192.000 158.800 C 192.220 158.800,192.400 158.361,192.400 157.824 C 192.400 156.375,192.917 156.221,198.600 155.973 L 203.800 155.745 199.000 155.719 C 196.360 155.705,193.840 155.781,193.400 155.889 M184.791 158.584 C 184.145 159.226,183.265 159.603,182.263 159.668 C 181.218 159.736,180.495 160.062,180.005 160.684 C 179.600 161.199,178.850 161.600,178.291 161.600 C 177.745 161.600,177.051 161.898,176.749 162.262 C 176.447 162.626,175.615 163.168,174.900 163.467 C 174.185 163.766,173.600 164.259,173.600 164.562 C 173.600 164.865,173.153 165.226,172.606 165.363 C 172.006 165.513,171.517 165.992,171.371 166.571 C 171.229 167.141,170.738 167.629,170.165 167.773 C 169.634 167.906,169.200 168.282,169.200 168.608 C 169.200 168.933,168.930 169.200,168.600 169.200 C 168.270 169.200,168.000 169.355,168.000 169.544 C 168.000 169.859,166.357 171.807,164.408 173.802 C 163.745 174.482,163.372 175.462,163.230 176.900 C 163.213 177.065,162.926 177.200,162.590 177.200 C 161.913 177.200,161.200 178.739,161.200 180.199 C 161.200 180.795,160.903 181.240,160.400 181.400 C 159.598 181.655,159.458 182.105,159.581 184.038 C 159.628 184.765,159.328 185.286,158.585 185.773 C 157.349 186.583,157.174 192.979,158.359 194.080 C 158.828 194.517,158.870 194.472,158.618 193.800 C 157.619 191.135,157.860 188.052,159.160 186.837 C 160.158 185.905,160.375 185.440,160.178 184.655 C 159.835 183.289,160.250 182.189,161.282 181.729 C 161.941 181.435,162.153 180.980,162.173 179.817 C 162.192 178.725,162.427 178.165,163.000 177.846 C 164.074 177.247,164.387 176.769,164.394 175.714 C 164.397 175.227,164.760 174.635,165.200 174.400 C 165.640 174.165,166.001 173.753,166.003 173.486 C 166.007 172.980,169.047 169.709,172.870 166.100 C 174.393 164.662,175.427 164.000,176.147 164.000 C 176.805 164.000,177.200 163.780,177.200 163.414 C 177.200 162.677,178.432 162.000,179.774 162.000 C 180.365 162.000,180.800 161.773,180.800 161.464 C 180.800 160.327,184.516 159.460,184.935 160.500 C 185.046 160.775,185.151 160.516,185.168 159.924 C 185.206 158.652,185.654 158.318,187.800 157.964 L 189.400 157.700 187.591 157.650 C 186.163 157.611,185.573 157.807,184.791 158.584 M205.407 192.931 C 206.245 195.496,206.113 196.693,204.891 197.596 C 203.819 198.389,203.725 198.638,203.904 200.228 C 204.081 201.795,203.971 202.106,202.880 203.125 C 201.797 204.137,201.683 204.453,201.879 205.909 C 202.078 207.394,201.989 207.621,200.949 208.276 C 199.911 208.930,199.800 209.212,199.800 211.195 C 199.800 213.179,199.698 213.438,198.730 213.902 C 197.719 214.386,197.672 214.535,197.879 216.545 C 198.089 218.580,198.043 218.715,196.850 219.565 C 195.930 220.219,195.600 220.768,195.600 221.643 L 195.600 222.832 203.500 222.677 C 215.558 222.441,216.896 221.727,205.600 221.556 L 196.600 221.419 203.900 221.301 L 211.200 221.182 211.200 220.191 C 211.200 219.401,211.402 219.200,212.200 219.200 C 213.178 219.200,213.200 219.133,213.200 216.200 C 213.200 213.267,213.222 213.200,214.200 213.200 C 215.178 213.200,215.200 213.133,215.200 210.200 C 215.200 207.267,215.222 207.200,216.200 207.200 C 217.133 207.200,217.200 207.067,217.200 205.200 C 217.200 203.333,217.267 203.200,218.200 203.200 C 219.178 203.200,219.200 203.133,219.200 200.200 C 219.200 197.267,219.222 197.200,220.200 197.200 C 221.145 197.200,221.200 197.080,221.200 195.000 L 221.200 192.800 226.900 192.749 C 230.035 192.721,234.580 192.568,237.000 192.410 C 239.790 192.227,234.764 192.111,223.261 192.092 L 205.123 192.062 205.407 192.931 M157.178 196.534 C 156.058 197.090,155.538 200.761,156.427 201.832 C 156.984 202.504,158.800 202.596,158.800 201.953 C 158.800 201.694,158.385 201.586,157.809 201.696 C 156.612 201.925,156.198 201.004,156.580 198.965 C 156.789 197.852,157.017 197.600,157.818 197.600 C 158.406 197.600,158.800 197.369,158.800 197.024 C 158.800 196.156,158.265 195.994,157.178 196.534 M157.709 209.600 C 157.709 210.590,157.787 210.995,157.882 210.500 C 157.978 210.005,157.978 209.195,157.882 208.700 C 157.787 208.205,157.709 208.610,157.709 209.600 M158.349 212.500 C 158.651 212.885,159.281 213.179,159.749 213.154 C 160.557 213.110,160.560 213.097,159.800 212.911 C 159.360 212.802,158.730 212.508,158.400 212.257 C 157.878 211.860,157.872 211.891,158.349 212.500 M125.200 214.000 C 125.200 214.576,125.467 214.800,126.151 214.800 C 127.533 214.800,128.175 216.615,127.860 219.627 C 127.622 221.906,127.659 222.044,128.615 222.479 C 129.782 223.011,130.192 224.249,129.834 226.160 C 129.601 227.401,129.681 227.550,130.790 227.937 C 131.860 228.310,132.000 228.540,132.000 229.933 C 132.000 231.172,132.214 231.648,133.000 232.163 C 133.738 232.647,134.000 233.170,134.000 234.163 C 134.000 235.147,134.262 235.679,134.974 236.146 C 135.589 236.549,136.008 237.267,136.110 238.092 L 136.272 239.400 136.336 238.097 C 136.382 237.155,136.123 236.554,135.400 235.925 C 134.711 235.326,134.400 234.645,134.400 233.737 C 134.400 232.764,134.132 232.243,133.376 231.748 C 132.659 231.278,132.377 230.766,132.434 230.038 C 132.550 228.554,132.083 227.708,130.999 227.436 C 130.144 227.221,130.091 227.078,130.433 225.899 C 130.929 224.192,130.545 222.547,129.475 221.797 C 128.710 221.261,128.628 220.886,128.741 218.435 C 128.910 214.778,128.123 213.220,126.100 213.206 C 125.465 213.202,125.200 213.435,125.200 214.000 " stroke="none" fill="#3fcc3f" fill-rule="evenodd"></path><path id="path1" d="M209.400 123.890 C 208.408 124.434,206.643 124.568,199.200 124.664 L 190.200 124.781 189.319 125.790 C 188.586 126.631,188.083 126.801,186.319 126.804 C 182.495 126.812,181.200 127.179,181.200 128.252 C 181.200 128.997,180.985 129.200,180.200 129.200 C 179.400 129.200,179.200 129.400,179.200 130.200 C 179.200 131.000,179.000 131.200,178.200 131.200 C 177.267 131.200,177.200 131.333,177.200 133.200 C 177.200 135.067,177.133 135.200,176.200 135.200 C 175.267 135.200,175.200 135.333,175.200 137.200 C 175.200 139.067,175.133 139.200,174.200 139.200 C 173.400 139.200,173.200 139.400,173.200 140.200 C 173.200 141.000,173.000 141.200,172.200 141.200 C 171.400 141.200,171.200 141.400,171.200 142.200 C 171.200 143.000,171.000 143.200,170.200 143.200 C 169.400 143.200,169.200 143.400,169.200 144.200 C 169.200 145.000,169.000 145.200,168.200 145.200 C 167.267 145.200,167.200 145.333,167.200 147.200 C 167.200 149.067,167.133 149.200,166.200 149.200 C 165.400 149.200,165.200 149.400,165.200 150.200 C 165.200 151.000,165.000 151.200,164.200 151.200 C 163.267 151.200,163.200 151.333,163.200 153.200 C 163.200 155.067,163.133 155.200,162.200 155.200 C 161.268 155.200,161.196 155.343,161.140 157.300 C 161.107 158.455,161.005 158.905,160.913 158.300 C 160.761 157.290,160.601 157.200,158.973 157.200 L 157.200 157.200 157.200 159.200 C 157.200 161.067,157.133 161.200,156.200 161.200 C 155.267 161.200,155.200 161.333,155.200 163.200 C 155.200 165.067,155.133 165.200,154.200 165.200 C 153.420 165.200,153.200 165.405,153.200 166.130 C 153.200 166.642,152.750 167.483,152.200 168.000 C 151.591 168.572,151.200 169.381,151.200 170.070 C 151.200 171.009,151.031 171.200,150.200 171.200 C 149.400 171.200,149.200 171.400,149.200 172.200 C 149.200 173.000,149.000 173.200,148.200 173.200 C 147.267 173.200,147.200 173.333,147.200 175.200 L 147.200 177.200 145.200 177.200 L 143.200 177.200 143.200 179.125 C 143.200 181.288,141.735 183.200,140.078 183.200 C 139.291 183.200,139.200 183.407,139.200 185.200 C 139.200 187.067,139.133 187.200,138.200 187.200 C 137.400 187.200,137.200 187.400,137.200 188.200 C 137.200 189.000,137.000 189.200,136.200 189.200 C 135.400 189.200,135.200 189.400,135.200 190.200 C 135.200 191.000,135.000 191.200,134.200 191.200 C 133.400 191.200,133.200 191.400,133.200 192.200 C 133.200 193.000,133.000 193.200,132.200 193.200 C 131.222 193.200,131.200 193.267,131.200 196.200 C 131.200 199.133,131.178 199.200,130.200 199.200 C 129.400 199.200,129.200 199.400,129.200 200.200 C 129.200 201.044,129.013 201.200,128.000 201.200 L 126.800 201.200 126.800 206.813 C 126.800 212.260,126.773 212.436,125.900 212.788 C 125.003 213.148,125.004 213.149,126.000 213.181 C 128.143 213.248,128.912 214.723,128.741 218.435 C 128.628 220.886,128.710 221.261,129.475 221.797 C 130.545 222.547,130.929 224.192,130.433 225.899 C 130.091 227.078,130.144 227.221,130.999 227.436 C 132.083 227.708,132.550 228.554,132.434 230.038 C 132.377 230.766,132.659 231.278,133.376 231.748 C 134.132 232.243,134.400 232.764,134.400 233.737 C 134.400 234.645,134.711 235.326,135.400 235.925 C 136.043 236.484,136.400 237.215,136.400 237.970 C 136.400 238.778,136.640 239.222,137.167 239.389 C 137.588 239.523,138.119 240.165,138.346 240.816 C 138.573 241.467,138.957 242.000,139.200 242.000 C 139.442 242.000,139.887 242.585,140.187 243.300 C 141.419 246.231,151.871 257.353,154.365 258.385 C 155.044 258.667,155.600 259.036,155.600 259.205 C 155.600 259.375,156.048 259.626,156.595 259.763 C 157.142 259.900,157.883 260.460,158.241 261.006 C 158.599 261.553,159.207 262.000,159.592 262.000 C 159.977 262.000,160.750 262.360,161.309 262.800 C 162.674 263.873,162.955 263.808,162.163 262.600 C 161.713 261.913,161.144 261.600,160.345 261.600 C 159.496 261.600,159.061 261.333,158.731 260.608 C 158.482 260.062,157.975 259.519,157.603 259.401 C 157.232 259.283,156.689 258.740,156.396 258.193 C 156.104 257.647,155.633 257.200,155.351 257.200 C 155.068 257.200,154.386 256.750,153.836 256.200 C 153.268 255.632,152.374 255.200,151.766 255.200 C 150.751 255.200,150.708 255.121,150.943 253.700 C 151.080 252.875,151.193 251.975,151.196 251.700 C 151.198 251.425,151.650 251.200,152.200 251.200 C 153.000 251.200,153.200 251.000,153.200 250.200 C 153.200 249.400,153.400 249.200,154.200 249.200 C 155.000 249.200,155.200 249.000,155.200 248.200 C 155.200 247.400,155.400 247.200,156.200 247.200 C 157.133 247.200,157.200 247.067,157.200 245.200 C 157.200 243.333,157.267 243.200,158.200 243.200 C 159.000 243.200,159.200 243.000,159.200 242.200 C 159.200 241.400,159.400 241.200,160.200 241.200 C 161.031 241.200,161.200 241.009,161.200 240.070 C 161.200 239.381,161.591 238.572,162.200 238.000 C 162.750 237.483,163.200 236.642,163.200 236.130 C 163.200 235.405,163.420 235.200,164.200 235.200 C 165.019 235.200,165.200 235.005,165.200 234.122 C 165.200 232.772,167.026 230.800,168.275 230.800 C 168.995 230.800,169.200 231.022,169.200 231.800 C 169.200 232.588,169.403 232.800,170.157 232.800 C 170.843 232.800,171.184 233.082,171.364 233.800 C 171.549 234.535,171.882 234.800,172.620 234.800 C 173.173 234.800,173.726 235.063,173.850 235.385 C 174.058 235.928,175.027 236.416,176.360 236.649 C 176.896 236.743,177.428 237.347,177.727 238.200 C 177.900 238.694,181.600 238.756,181.600 238.264 C 181.600 238.069,181.015 238.000,180.300 238.112 C 179.297 238.268,178.772 238.095,178.000 237.353 C 175.603 235.049,174.238 234.000,173.636 234.000 C 173.281 234.000,171.758 232.785,170.251 231.300 C 166.215 227.322,166.000 227.057,166.000 226.050 C 166.000 225.467,165.264 224.418,164.000 223.200 C 162.434 221.691,162.000 221.000,162.000 220.017 C 162.000 219.178,161.667 218.469,160.998 217.881 C 160.227 217.204,159.982 216.576,159.935 215.168 C 159.889 213.735,159.695 213.256,159.048 212.968 C 157.805 212.415,157.385 210.371,157.962 207.681 C 158.997 202.851,158.993 202.400,157.922 202.400 C 155.120 202.400,155.164 196.504,157.968 196.292 C 158.957 196.218,159.037 195.347,158.202 193.746 C 157.112 191.655,157.380 186.562,158.624 185.748 C 159.331 185.284,159.627 184.756,159.581 184.038 C 159.458 182.105,159.598 181.655,160.400 181.400 C 160.903 181.240,161.200 180.795,161.200 180.199 C 161.200 178.739,161.913 177.200,162.590 177.200 C 162.926 177.200,163.213 177.065,163.230 176.900 C 163.372 175.462,163.745 174.482,164.408 173.802 C 166.357 171.807,168.000 169.859,168.000 169.544 C 168.000 169.355,168.270 169.200,168.600 169.200 C 168.930 169.200,169.200 168.933,169.200 168.608 C 169.200 168.282,169.634 167.906,170.165 167.773 C 170.738 167.629,171.229 167.141,171.371 166.571 C 171.517 165.992,172.006 165.513,172.606 165.363 C 173.153 165.226,173.600 164.865,173.600 164.562 C 173.600 164.259,174.185 163.766,174.900 163.467 C 175.615 163.168,176.447 162.626,176.749 162.262 C 177.051 161.898,177.745 161.600,178.291 161.600 C 178.850 161.600,179.600 161.199,180.005 160.684 C 180.493 160.064,181.221 159.735,182.261 159.665 C 183.243 159.599,184.165 159.208,184.820 158.581 C 186.023 157.429,188.345 157.264,190.146 158.202 C 191.614 158.968,191.600 158.971,191.600 157.849 C 191.600 155.982,192.370 155.799,200.163 155.814 C 208.133 155.829,209.457 156.122,209.041 157.778 C 208.821 158.655,208.877 158.678,210.506 158.363 C 213.843 157.717,215.518 157.903,216.237 159.000 C 216.751 159.784,217.229 160.000,218.455 160.000 C 219.733 160.000,220.100 160.182,220.473 161.000 C 220.817 161.755,221.233 162.000,222.175 162.000 C 223.016 162.000,223.762 162.358,224.465 163.100 C 225.038 163.705,226.023 164.591,226.654 165.068 C 227.284 165.546,228.340 166.370,229.000 166.900 C 229.660 167.430,230.518 167.980,230.906 168.122 C 231.294 168.263,231.778 168.789,231.981 169.290 C 232.438 170.417,236.400 175.028,236.400 174.432 C 236.400 174.195,236.085 173.683,235.700 173.295 C 234.500 172.088,232.400 169.066,232.400 168.548 C 232.400 168.276,232.062 167.947,231.648 167.815 C 231.234 167.684,229.979 166.592,228.859 165.388 C 227.458 163.883,226.516 163.200,225.839 163.200 C 225.124 163.200,224.821 162.955,224.728 162.300 C 224.638 161.666,224.287 161.364,223.543 161.278 C 222.738 161.184,222.533 160.979,222.680 160.416 C 222.811 159.916,222.603 159.591,222.037 159.412 C 220.511 158.927,220.967 157.200,223.200 155.000 C 224.443 153.776,225.200 152.684,225.200 152.115 C 225.200 151.406,225.425 151.200,226.200 151.200 C 227.031 151.200,227.200 151.009,227.200 150.070 C 227.200 148.654,228.683 147.200,230.126 147.200 C 231.148 147.200,231.200 147.104,231.200 145.200 C 231.200 143.333,231.267 143.200,232.200 143.200 C 233.000 143.200,233.200 143.000,233.200 142.200 C 233.200 141.400,233.400 141.200,234.200 141.200 C 235.000 141.200,235.200 141.000,235.200 140.200 C 235.200 139.400,235.400 139.200,236.200 139.200 C 237.044 139.200,237.200 139.013,237.200 138.000 C 237.200 136.827,237.244 136.800,239.200 136.800 C 240.896 136.800,241.200 136.915,241.200 137.557 C 241.200 138.387,241.941 138.800,243.433 138.800 C 243.965 138.800,244.400 138.991,244.400 139.224 C 244.400 139.457,244.580 139.536,244.800 139.400 C 245.020 139.264,245.200 139.416,245.200 139.737 C 245.200 140.059,245.740 140.510,246.400 140.740 C 247.060 140.970,247.600 141.443,247.600 141.792 C 247.600 142.140,247.908 142.543,248.285 142.688 C 248.661 142.832,249.845 143.817,250.914 144.875 C 251.984 145.934,253.005 146.800,253.182 146.800 C 253.359 146.800,251.961 145.270,250.074 143.400 C 248.187 141.530,246.527 140.000,246.386 140.000 C 246.244 140.000,245.923 139.550,245.673 139.000 C 245.341 138.272,244.905 138.000,244.071 138.000 C 243.437 138.000,242.604 137.647,242.209 137.210 C 241.816 136.776,241.148 136.310,240.724 136.176 C 240.301 136.042,239.781 135.475,239.569 134.917 C 239.239 134.051,239.008 133.938,237.974 134.145 C 236.910 134.358,236.669 134.223,235.955 133.014 C 235.229 131.784,235.039 131.681,234.124 132.029 C 232.972 132.467,232.191 132.033,231.775 130.722 C 231.567 130.065,231.293 129.961,230.294 130.161 C 228.597 130.501,227.055 129.471,227.305 128.165 C 227.488 127.208,227.005 126.786,226.716 127.651 C 226.331 128.808,222.492 128.553,221.225 127.286 C 220.035 126.096,219.958 126.079,216.878 126.290 C 213.105 126.548,212.000 126.117,212.000 124.386 C 212.000 123.001,211.274 122.863,209.400 123.890 M241.800 192.026 C 241.141 192.223,236.236 192.506,230.900 192.655 L 221.200 192.926 221.200 195.063 C 221.200 197.076,221.142 197.200,220.200 197.200 C 219.222 197.200,219.200 197.267,219.200 200.200 C 219.200 203.133,219.178 203.200,218.200 203.200 C 217.267 203.200,217.200 203.333,217.200 205.200 C 217.200 207.067,217.133 207.200,216.200 207.200 C 215.222 207.200,215.200 207.267,215.200 210.200 C 215.200 213.133,215.178 213.200,214.200 213.200 C 213.222 213.200,213.200 213.267,213.200 216.200 C 213.200 219.133,213.178 219.200,212.200 219.200 C 211.402 219.200,211.200 219.401,211.200 220.191 L 211.200 221.182 203.900 221.301 L 196.600 221.419 205.600 221.556 C 210.883 221.636,213.979 221.813,213.096 221.984 C 209.516 222.678,211.795 222.823,223.817 222.666 C 238.190 222.478,237.560 222.532,237.294 221.516 C 237.186 221.103,237.634 219.648,238.290 218.283 C 241.667 211.254,242.425 207.775,242.593 198.541 C 242.653 195.208,242.825 192.283,242.975 192.041 C 243.125 191.798,243.192 191.615,243.124 191.634 C 243.056 191.653,242.460 191.830,241.800 192.026 M277.705 192.287 C 278.314 192.379,279.214 192.377,279.705 192.282 C 280.197 192.187,279.700 192.111,278.600 192.114 C 277.500 192.117,277.097 192.195,277.705 192.287 M181.600 239.567 C 181.600 239.972,183.156 240.982,183.395 240.732 C 183.465 240.660,183.089 240.277,182.561 239.881 C 182.032 239.486,181.600 239.345,181.600 239.567 M185.600 240.686 C 185.930 240.809,186.522 241.245,186.916 241.655 C 187.309 242.065,187.796 242.400,187.997 242.400 C 188.199 242.400,187.914 241.950,187.364 241.400 C 186.814 240.850,186.057 240.414,185.682 240.432 C 185.130 240.457,185.115 240.506,185.600 240.686 " stroke="none" fill="#3cc03f" fill-rule="evenodd"></path><path id="path2" d="M237.200 138.000 C 237.200 139.013,237.044 139.200,236.200 139.200 C 235.400 139.200,235.200 139.400,235.200 140.200 C 235.200 141.000,235.000 141.200,234.200 141.200 C 233.400 141.200,233.200 141.400,233.200 142.200 C 233.200 143.000,233.000 143.200,232.200 143.200 C 231.267 143.200,231.200 143.333,231.200 145.200 C 231.200 147.128,231.159 147.200,230.070 147.200 C 228.654 147.200,227.200 148.683,227.200 150.126 C 227.200 151.005,227.018 151.200,226.200 151.200 C 225.425 151.200,225.200 151.406,225.200 152.115 C 225.200 152.684,224.443 153.776,223.200 155.000 C 220.967 157.200,220.511 158.927,222.037 159.412 C 222.603 159.591,222.811 159.916,222.680 160.416 C 222.533 160.979,222.738 161.184,223.543 161.278 C 224.287 161.364,224.638 161.666,224.728 162.300 C 224.821 162.955,225.124 163.200,225.839 163.200 C 226.516 163.200,227.458 163.883,228.859 165.388 C 229.979 166.592,231.234 167.684,231.648 167.815 C 232.062 167.947,232.400 168.276,232.400 168.548 C 232.400 169.066,234.500 172.088,235.700 173.295 C 236.085 173.683,236.400 174.249,236.400 174.554 C 236.400 174.859,236.825 175.387,237.345 175.727 C 237.864 176.067,238.398 176.892,238.532 177.560 C 238.666 178.228,239.154 179.154,239.618 179.618 C 240.307 180.307,240.412 180.746,240.195 182.030 C 239.989 183.250,240.058 183.600,240.503 183.600 C 242.135 183.600,242.981 186.592,241.818 188.253 C 241.286 189.013,241.318 189.128,242.197 189.598 C 243.380 190.232,243.761 191.124,243.158 191.850 C 242.873 192.194,242.661 194.683,242.593 198.500 C 242.425 207.791,241.671 211.249,238.271 218.320 C 237.275 220.392,237.130 221.033,237.455 221.920 C 237.774 222.793,237.691 223.211,237.025 224.101 C 235.666 225.915,227.287 234.400,226.855 234.400 C 226.634 234.400,226.340 234.760,226.200 235.199 C 226.061 235.639,225.464 236.116,224.873 236.260 C 224.283 236.404,223.291 236.944,222.669 237.461 C 222.047 237.977,221.220 238.400,220.831 238.400 C 220.442 238.400,219.807 238.750,219.421 239.177 C 218.517 240.176,216.679 240.578,215.618 240.009 C 214.936 239.645,214.743 239.693,214.533 240.283 C 213.782 242.396,210.753 243.145,208.400 241.800 C 206.770 240.868,205.600 241.029,205.600 242.186 C 205.600 243.618,204.517 244.000,200.455 244.000 C 196.593 244.000,195.336 243.452,195.731 241.940 C 195.953 241.093,194.857 240.903,194.101 241.659 C 193.104 242.656,187.810 242.592,186.858 241.570 C 186.254 240.922,185.485 240.619,184.297 240.561 C 183.364 240.516,182.461 240.461,182.290 240.440 C 182.120 240.418,181.806 239.942,181.593 239.381 C 181.253 238.486,181.043 238.393,179.864 238.614 C 178.553 238.860,177.504 238.313,177.128 237.185 C 177.050 236.949,176.719 236.710,176.393 236.654 C 175.031 236.418,174.060 235.933,173.850 235.385 C 173.726 235.063,173.173 234.800,172.620 234.800 C 171.882 234.800,171.549 234.535,171.364 233.800 C 171.184 233.082,170.843 232.800,170.157 232.800 C 169.403 232.800,169.200 232.588,169.200 231.800 C 169.200 231.037,168.992 230.800,168.322 230.800 C 167.035 230.800,165.200 232.725,165.200 234.075 C 165.200 235.008,165.030 235.200,164.200 235.200 C 163.420 235.200,163.200 235.405,163.200 236.130 C 163.200 236.642,162.750 237.483,162.200 238.000 C 161.591 238.572,161.200 239.381,161.200 240.070 C 161.200 241.009,161.031 241.200,160.200 241.200 C 159.400 241.200,159.200 241.400,159.200 242.200 C 159.200 243.000,159.000 243.200,158.200 243.200 C 157.267 243.200,157.200 243.333,157.200 245.200 C 157.200 247.067,157.133 247.200,156.200 247.200 C 155.400 247.200,155.200 247.400,155.200 248.200 C 155.200 249.000,155.000 249.200,154.200 249.200 C 153.400 249.200,153.200 249.400,153.200 250.200 C 153.200 250.985,152.997 251.200,152.252 251.200 C 151.468 251.200,151.262 251.459,151.057 252.700 C 150.674 255.018,150.729 255.200,151.818 255.200 C 152.378 255.200,153.286 255.650,153.836 256.200 C 154.386 256.750,155.068 257.200,155.351 257.200 C 155.633 257.200,156.104 257.647,156.396 258.193 C 156.689 258.740,157.232 259.283,157.603 259.401 C 157.975 259.519,158.482 260.062,158.731 260.608 C 159.065 261.342,159.494 261.600,160.377 261.600 C 161.172 261.600,161.719 261.874,162.010 262.419 C 162.251 262.870,162.905 263.412,163.463 263.624 C 164.021 263.836,164.571 264.367,164.685 264.805 C 164.845 265.417,165.233 265.600,166.367 265.600 C 167.932 265.600,168.800 266.164,168.800 267.180 C 168.800 267.656,169.257 267.800,170.768 267.800 C 172.258 267.800,172.968 268.018,173.694 268.700 C 174.337 269.304,175.146 269.600,176.157 269.600 C 177.279 269.600,177.952 269.891,178.806 270.745 C 179.892 271.830,180.124 271.887,183.276 271.846 C 186.877 271.799,188.229 272.334,188.215 273.800 C 188.206 274.729,188.593 274.739,195.108 273.993 C 199.047 273.541,207.280 273.870,211.100 274.632 C 212.304 274.872,212.400 274.813,212.400 273.835 C 212.400 272.119,219.053 270.893,220.503 272.343 C 221.217 273.057,221.600 272.885,221.600 271.849 C 221.600 270.120,225.268 268.925,226.571 270.228 C 227.143 270.800,227.200 270.768,227.200 269.878 C 227.200 268.526,228.189 267.831,229.963 267.936 C 231.220 268.010,231.535 267.862,231.922 267.012 C 232.281 266.223,232.677 266.000,233.722 266.000 C 234.633 266.000,235.361 265.680,236.000 265.000 C 236.576 264.387,237.381 264.000,238.080 264.000 C 238.917 264.000,239.317 263.744,239.587 263.034 C 239.789 262.503,240.369 261.938,240.877 261.779 C 241.385 261.620,242.229 261.155,242.754 260.745 C 243.279 260.335,243.953 260.000,244.253 260.000 C 244.552 260.000,248.325 256.445,252.636 252.100 C 262.191 242.471,261.538 243.211,261.849 241.656 C 261.990 240.950,262.451 240.187,262.872 239.961 C 263.293 239.736,263.812 239.095,264.024 238.537 C 264.236 237.979,264.781 237.426,265.235 237.307 C 265.883 237.137,266.006 236.880,265.811 236.103 C 265.541 235.026,266.483 233.200,267.309 233.200 C 267.612 233.200,267.808 232.584,267.821 231.593 C 267.852 229.253,268.878 228.336,269.833 229.794 C 270.471 230.769,270.486 231.011,269.973 232.140 C 269.507 233.166,269.380 236.977,269.293 252.641 L 269.185 271.883 271.893 272.139 C 279.475 272.855,295.148 272.444,295.645 271.516 C 295.998 270.856,295.965 196.161,295.610 192.500 C 295.604 192.445,291.454 192.400,286.387 192.400 C 273.621 192.400,273.772 192.486,273.883 185.300 C 273.932 182.060,273.830 181.200,273.396 181.200 C 272.302 181.200,271.445 177.934,272.017 175.941 C 272.307 174.930,272.211 174.723,271.210 174.205 C 270.341 173.756,270.008 173.228,269.794 171.963 C 269.640 171.054,269.070 169.655,268.526 168.855 C 267.845 167.852,267.584 167.003,267.686 166.123 C 267.808 165.069,267.677 164.806,266.935 164.619 C 266.005 164.386,265.235 162.115,265.784 161.226 C 265.929 160.992,265.771 160.800,265.433 160.800 C 265.095 160.800,264.500 160.305,264.111 159.700 C 263.722 159.095,262.998 158.272,262.502 157.871 C 261.953 157.427,261.600 156.702,261.600 156.018 C 261.600 155.216,261.362 154.831,260.770 154.676 C 260.314 154.557,259.845 154.092,259.727 153.643 C 259.610 153.194,259.173 152.718,258.757 152.586 C 258.341 152.454,258.000 152.180,258.000 151.976 C 258.000 151.640,256.615 150.240,250.878 144.774 C 249.823 143.769,248.654 142.830,248.280 142.686 C 247.906 142.543,247.600 142.140,247.600 141.792 C 247.600 141.443,247.060 140.970,246.400 140.740 C 245.740 140.510,245.200 140.059,245.200 139.737 C 245.200 139.416,245.020 139.264,244.800 139.400 C 244.580 139.536,244.400 139.457,244.400 139.224 C 244.400 138.991,243.965 138.800,243.433 138.800 C 241.941 138.800,241.200 138.387,241.200 137.557 C 241.200 136.915,240.896 136.800,239.200 136.800 C 237.244 136.800,237.200 136.827,237.200 138.000 " stroke="none" fill="#34a44e" fill-rule="evenodd"></path><path id="path3" d="M189.467 121.467 C 187.808 123.125,190.778 123.740,200.400 123.731 C 208.725 123.722,210.800 123.411,210.800 122.171 L 210.800 121.200 200.267 121.200 C 194.473 121.200,189.613 121.320,189.467 121.467 M179.481 123.452 C 179.326 123.607,179.200 124.063,179.200 124.467 C 179.200 125.113,178.842 125.200,176.200 125.200 L 173.200 125.200 173.200 126.378 C 173.200 127.500,173.291 127.562,175.100 127.678 C 177.878 127.856,179.200 127.350,179.200 126.108 C 179.200 125.137,179.270 125.107,180.900 125.387 C 184.576 126.018,186.910 125.577,186.726 124.286 C 186.598 123.387,180.274 122.659,179.481 123.452 M213.867 123.467 C 212.669 124.664,214.121 125.589,217.200 125.589 C 219.955 125.589,220.800 125.252,220.800 124.153 C 220.800 123.206,214.729 122.605,213.867 123.467 M222.000 126.192 C 222.000 128.117,226.506 128.219,226.727 126.300 C 226.852 125.207,226.838 125.200,224.427 125.200 C 222.110 125.200,222.000 125.245,222.000 126.192 M167.467 127.467 C 167.320 127.613,167.200 128.053,167.200 128.445 C 167.200 129.010,166.809 129.181,165.300 129.278 C 163.679 129.382,163.381 129.532,163.272 130.300 C 163.180 130.951,162.876 131.200,162.172 131.200 C 160.820 131.200,160.740 133.386,162.079 133.737 C 163.013 133.981,164.000 133.413,164.000 132.631 C 164.000 131.712,164.855 131.272,166.000 131.600 C 167.238 131.955,168.000 131.476,168.000 130.344 C 168.000 129.377,168.492 129.168,169.847 129.556 C 171.516 130.035,172.800 129.451,172.800 128.213 C 172.800 127.211,168.346 126.587,167.467 127.467 M228.361 128.300 C 228.614 129.251,228.882 129.417,230.346 129.524 C 231.738 129.626,232.107 129.830,232.428 130.675 C 232.767 131.565,232.995 131.673,234.144 131.487 C 235.696 131.235,236.250 131.501,236.461 132.600 C 236.570 133.168,236.961 133.418,237.807 133.463 C 238.463 133.498,239.196 133.543,239.436 133.563 C 239.675 133.583,240.077 134.050,240.327 134.600 C 241.032 136.147,242.800 136.004,242.800 134.400 C 242.800 133.387,242.644 133.200,241.800 133.200 C 241.000 133.200,240.800 133.000,240.800 132.200 C 240.800 131.267,240.667 131.200,238.800 131.200 C 236.933 131.200,236.800 131.133,236.800 130.200 C 236.800 129.267,236.667 129.200,234.800 129.200 C 232.933 129.200,232.800 129.133,232.800 128.200 C 232.800 127.246,232.691 127.200,230.435 127.200 L 228.069 127.200 228.361 128.300 M157.200 134.200 C 157.200 135.000,157.000 135.200,156.200 135.200 C 155.356 135.200,155.200 135.387,155.200 136.400 C 155.200 137.871,157.346 138.230,157.789 136.833 C 157.923 136.412,158.565 135.881,159.216 135.654 C 161.204 134.961,160.906 133.200,158.800 133.200 C 157.360 133.200,157.200 133.300,157.200 134.200 M243.043 135.833 C 242.620 136.934,242.772 137.200,243.826 137.200 C 245.026 137.200,246.400 137.855,246.400 138.427 C 246.400 138.960,249.060 141.600,249.597 141.600 C 249.829 141.600,250.191 142.050,250.400 142.600 C 250.631 143.208,251.095 143.600,251.582 143.600 C 252.105 143.600,252.472 143.949,252.636 144.600 C 252.794 145.231,253.169 145.600,253.653 145.600 C 254.103 145.600,254.577 146.013,254.800 146.600 C 255.009 147.150,255.459 147.600,255.800 147.600 C 256.141 147.600,256.591 148.050,256.800 148.600 C 257.009 149.150,257.455 149.600,257.790 149.600 C 258.135 149.600,258.400 149.951,258.400 150.409 C 258.400 150.883,258.813 151.406,259.400 151.673 C 259.950 151.923,260.400 152.379,260.400 152.685 C 260.400 152.991,260.940 153.430,261.600 153.660 C 262.663 154.031,262.800 154.260,262.800 155.677 C 262.800 156.938,262.968 157.319,263.600 157.484 C 264.059 157.604,264.400 158.030,264.400 158.481 C 264.400 158.993,264.829 159.432,265.625 159.732 C 266.743 160.154,266.839 160.332,266.725 161.776 C 266.614 163.179,266.713 163.385,267.600 163.601 C 268.444 163.806,268.608 164.089,268.651 165.422 C 268.679 166.290,268.724 167.225,268.751 167.500 C 268.851 168.524,271.200 168.092,271.200 167.050 C 271.200 165.119,270.669 163.491,269.979 163.310 C 269.501 163.186,269.194 162.555,269.009 161.318 C 268.815 160.030,268.522 159.453,267.991 159.314 C 267.581 159.206,267.190 158.739,267.122 158.276 C 267.047 157.759,266.613 157.342,266.001 157.199 C 265.452 157.070,264.984 156.702,264.962 156.382 C 264.940 156.062,264.894 155.288,264.861 154.663 C 264.820 153.892,264.542 153.458,264.000 153.316 C 263.560 153.201,263.178 152.948,263.150 152.753 C 263.123 152.559,263.078 152.175,263.050 151.900 C 263.022 151.625,262.606 151.344,262.125 151.275 C 261.586 151.199,261.201 150.820,261.125 150.292 C 261.047 149.759,260.621 149.344,260.000 149.198 C 259.450 149.069,259.000 148.707,259.000 148.394 C 259.000 148.080,258.550 147.599,258.000 147.325 C 257.450 147.051,257.000 146.601,257.000 146.325 C 257.000 146.049,256.550 145.599,256.000 145.325 C 255.450 145.051,254.997 144.686,254.994 144.513 C 254.980 143.821,254.310 143.200,253.576 143.200 C 253.015 143.200,252.800 142.923,252.800 142.200 C 252.800 141.400,252.600 141.200,251.800 141.200 C 251.000 141.200,250.800 141.000,250.800 140.200 C 250.800 139.400,250.600 139.200,249.800 139.200 C 249.000 139.200,248.800 139.000,248.800 138.200 C 248.800 137.400,248.600 137.200,247.800 137.200 C 247.000 137.200,246.800 137.000,246.800 136.200 C 246.800 134.971,243.497 134.649,243.043 135.833 M151.467 137.467 C 151.320 137.613,151.200 138.063,151.200 138.467 C 151.200 138.982,150.903 139.200,150.200 139.200 C 149.400 139.200,149.200 139.400,149.200 140.200 C 149.200 141.000,149.000 141.200,148.200 141.200 C 147.400 141.200,147.200 141.400,147.200 142.200 C 147.200 143.000,147.000 143.200,146.200 143.200 C 145.400 143.200,145.200 143.400,145.200 144.200 C 145.200 145.000,145.000 145.200,144.200 145.200 C 143.400 145.200,143.200 145.400,143.200 146.200 C 143.200 147.000,143.000 147.200,142.200 147.200 C 141.408 147.200,141.200 147.402,141.200 148.172 C 141.200 148.876,140.951 149.180,140.300 149.272 C 139.722 149.354,139.354 149.722,139.272 150.300 C 139.180 150.951,138.876 151.200,138.172 151.200 C 137.272 151.200,137.200 151.349,137.200 153.200 C 137.200 155.067,137.133 155.200,136.200 155.200 C 135.408 155.200,135.200 155.402,135.200 156.172 C 135.200 156.876,134.951 157.180,134.300 157.272 C 133.532 157.381,133.382 157.679,133.278 159.300 C 133.168 161.015,133.061 161.200,132.178 161.200 C 131.271 161.200,131.200 161.345,131.200 163.200 C 131.200 165.067,131.133 165.200,130.200 165.200 C 129.267 165.200,129.200 165.333,129.200 167.200 C 129.200 169.067,129.133 169.200,128.200 169.200 C 127.222 169.200,127.200 169.267,127.200 172.200 C 127.200 175.133,127.178 175.200,126.200 175.200 C 125.207 175.200,125.200 175.227,125.200 178.800 C 125.200 182.347,125.214 182.400,126.173 182.400 C 127.420 182.400,127.748 181.406,127.660 177.900 C 127.598 175.470,127.669 175.200,128.369 175.200 C 129.309 175.200,129.758 173.998,129.650 171.771 C 129.582 170.377,129.717 170.075,130.585 169.680 C 131.368 169.323,131.601 168.918,131.606 167.909 C 131.613 166.407,131.911 165.848,132.900 165.483 C 133.385 165.305,133.600 164.793,133.600 163.822 C 133.600 162.766,133.848 162.256,134.600 161.763 C 135.296 161.307,135.600 160.746,135.600 159.917 C 135.600 159.075,135.827 158.666,136.373 158.523 C 136.799 158.412,137.428 157.728,137.771 157.004 C 138.115 156.280,138.667 155.583,138.998 155.456 C 139.329 155.329,139.600 154.875,139.600 154.447 C 139.600 153.654,140.373 152.579,142.700 150.138 C 143.415 149.387,144.000 148.599,144.000 148.387 C 144.000 148.174,144.201 148.000,144.447 148.000 C 144.693 148.000,145.593 147.301,146.447 146.447 C 147.301 145.593,148.000 144.693,148.000 144.447 C 148.000 144.201,148.208 144.000,148.463 144.000 C 148.718 144.000,149.936 142.949,151.169 141.665 C 152.403 140.380,153.630 139.255,153.896 139.165 C 154.184 139.067,154.284 138.636,154.143 138.100 C 153.911 137.218,152.136 136.798,151.467 137.467 M194.300 156.676 C 193.876 156.787,193.600 157.241,193.600 157.829 L 193.600 158.800 200.600 158.800 L 207.600 158.800 207.600 157.854 C 207.600 156.587,197.923 155.729,194.300 156.676 M186.500 158.665 C 184.755 159.369,186.029 160.800,188.400 160.800 C 190.662 160.800,190.800 160.745,190.800 159.847 C 190.800 158.619,188.310 157.934,186.500 158.665 M210.500 158.689 C 209.433 158.822,209.200 159.025,209.200 159.825 C 209.200 160.772,209.287 160.800,212.200 160.800 C 215.133 160.800,215.200 160.822,215.200 161.800 C 215.200 162.733,215.333 162.800,217.200 162.800 C 219.067 162.800,219.200 162.867,219.200 163.800 C 219.200 164.733,219.333 164.800,221.200 164.800 C 223.067 164.800,223.200 164.867,223.200 165.800 C 223.200 166.600,223.400 166.800,224.200 166.800 C 225.000 166.800,225.200 167.000,225.200 167.800 C 225.200 168.592,225.402 168.800,226.172 168.800 C 226.876 168.800,227.180 169.049,227.272 169.700 C 227.353 170.270,227.721 170.646,228.275 170.725 C 228.821 170.802,229.198 171.179,229.275 171.725 C 229.354 172.279,229.730 172.647,230.300 172.728 C 230.951 172.820,231.200 173.124,231.200 173.828 C 231.200 174.598,231.408 174.800,232.200 174.800 C 233.000 174.800,233.200 175.000,233.200 175.800 C 233.200 176.600,233.400 176.800,234.200 176.800 C 235.133 176.800,235.200 176.933,235.200 178.800 C 235.200 180.667,235.267 180.800,236.200 180.800 C 237.133 180.800,237.200 180.933,237.200 182.800 C 237.200 184.667,237.267 184.800,238.200 184.800 C 239.133 184.800,239.200 184.933,239.200 186.800 C 239.200 188.643,239.275 188.800,240.157 188.800 C 242.096 188.800,242.260 185.388,240.353 184.724 C 239.154 184.306,239.116 184.222,239.347 182.532 C 239.567 180.926,239.503 180.743,238.594 180.398 C 237.837 180.110,237.600 179.731,237.600 178.807 C 237.600 178.012,237.256 177.295,236.600 176.725 C 236.050 176.247,235.600 175.690,235.600 175.488 C 235.600 175.024,233.260 172.759,232.204 172.201 C 231.765 171.969,231.344 171.453,231.267 171.054 C 231.071 170.032,229.743 168.800,228.839 168.800 C 228.353 168.800,227.927 168.366,227.660 167.600 C 227.430 166.940,226.962 166.400,226.621 166.400 C 226.269 166.400,226.000 166.057,226.000 165.608 C 226.000 165.090,225.643 164.726,224.971 164.557 C 224.405 164.415,223.785 163.886,223.593 163.381 C 223.339 162.713,223.022 162.521,222.428 162.677 C 221.047 163.038,219.667 162.478,219.528 161.499 C 219.418 160.729,219.122 160.582,217.456 160.476 C 215.965 160.381,215.468 160.180,215.319 159.613 C 215.030 158.508,213.825 158.277,210.500 158.689 M182.100 160.656 C 180.742 161.228,181.568 162.800,183.227 162.800 C 184.765 162.800,184.846 162.740,184.727 161.700 C 184.600 160.597,183.386 160.115,182.100 160.656 M177.915 163.500 C 177.488 164.387,177.117 164.600,176.000 164.600 C 174.998 164.600,174.576 164.794,174.478 165.300 C 174.403 165.685,174.181 166.000,173.984 166.000 C 173.787 166.000,172.997 166.630,172.227 167.400 C 171.457 168.170,170.641 168.800,170.413 168.800 C 170.186 168.800,170.000 169.070,170.000 169.400 C 170.000 169.730,169.742 170.000,169.427 170.000 C 169.112 170.000,168.738 170.365,168.597 170.811 C 168.455 171.257,167.903 171.907,167.370 172.257 C 165.901 173.219,166.044 174.800,167.600 174.800 C 168.613 174.800,168.800 174.644,168.800 173.800 C 168.800 173.000,169.000 172.800,169.800 172.800 C 170.600 172.800,170.800 172.600,170.800 171.800 C 170.800 171.000,171.000 170.800,171.800 170.800 C 172.600 170.800,172.800 170.600,172.800 169.800 C 172.800 169.000,173.000 168.800,173.800 168.800 C 174.594 168.800,174.800 168.599,174.800 167.822 C 174.800 166.939,174.985 166.832,176.700 166.722 C 178.321 166.618,178.619 166.468,178.728 165.700 C 178.820 165.049,179.124 164.800,179.828 164.800 C 180.641 164.800,180.800 164.604,180.800 163.600 C 180.800 161.903,178.717 161.831,177.915 163.500 M270.611 169.966 C 270.130 171.481,270.796 172.856,271.945 172.722 C 273.081 172.590,273.429 171.768,273.028 170.168 C 272.722 168.950,270.980 168.804,270.611 169.966 M272.699 175.300 C 272.437 178.019,272.905 179.298,274.101 179.128 C 275.709 178.899,275.424 173.200,273.804 173.200 C 273.008 173.200,272.878 173.447,272.699 175.300 M164.620 176.710 C 164.486 177.321,163.976 177.996,163.488 178.210 C 162.799 178.513,162.591 178.954,162.559 180.180 C 162.537 181.049,162.337 181.821,162.116 181.895 C 159.996 182.601,159.747 186.800,161.825 186.800 C 162.728 186.800,162.800 186.653,162.800 184.800 C 162.800 182.933,162.867 182.800,163.800 182.800 C 164.733 182.800,164.800 182.667,164.800 180.800 C 164.800 178.933,164.867 178.800,165.800 178.800 C 166.700 178.800,166.800 178.640,166.800 177.200 C 166.800 175.152,165.048 174.759,164.620 176.710 M274.611 183.900 C 274.281 187.197,274.748 188.713,276.070 188.647 C 277.867 188.556,277.623 181.200,275.822 181.200 C 274.954 181.200,274.860 181.408,274.611 183.900 M123.289 190.867 C 123.397 196.376,123.424 196.536,124.276 196.599 C 125.334 196.676,125.597 195.521,125.686 190.400 C 125.759 186.185,125.470 185.200,124.162 185.200 L 123.178 185.200 123.289 190.867 M158.634 188.169 C 157.897 190.913,158.620 194.800,159.867 194.800 C 161.302 194.800,161.165 187.506,159.729 187.401 C 159.153 187.359,158.782 187.620,158.634 188.169 M205.200 190.500 L 205.200 191.800 223.100 191.689 C 243.056 191.565,242.181 191.635,241.533 190.213 L 241.072 189.200 223.136 189.200 L 205.200 189.200 205.200 190.500 M276.306 190.180 C 276.039 191.577,276.203 191.600,286.584 191.600 C 293.966 191.600,295.996 191.713,296.355 192.146 C 296.883 192.782,296.758 271.304,296.225 273.500 L 295.909 274.800 297.555 274.800 L 299.200 274.800 299.195 232.900 C 299.192 209.855,299.081 190.595,298.948 190.100 L 298.707 189.200 287.600 189.200 L 276.493 189.200 276.306 190.180 M203.200 195.172 C 203.200 196.913,203.094 197.159,202.300 197.272 C 200.827 197.481,200.690 202.800,202.158 202.800 C 203.475 202.800,203.733 202.285,203.652 199.809 C 203.592 197.979,203.696 197.685,204.539 197.300 C 206.354 196.473,206.094 193.200,204.213 193.200 C 203.266 193.200,203.200 193.328,203.200 195.172 M123.380 201.553 C 123.281 201.652,123.200 204.223,123.200 207.267 L 123.200 212.800 124.157 212.800 C 125.451 212.800,125.601 212.223,125.595 207.267 C 125.587 201.720,124.924 200.009,123.380 201.553 M199.467 203.467 C 199.320 203.613,199.200 204.501,199.200 205.439 C 199.200 206.903,199.073 207.162,198.300 207.272 C 197.475 207.389,197.390 207.640,197.283 210.274 C 197.176 212.892,197.087 213.160,196.283 213.274 C 195.478 213.389,195.390 213.656,195.282 216.300 C 195.170 219.081,195.125 219.200,194.182 219.200 C 193.285 219.200,193.200 219.355,193.200 221.000 C 193.200 222.685,195.056 223.952,195.250 222.400 C 195.278 222.180,195.345 221.820,195.400 221.600 C 195.455 221.380,195.523 220.836,195.550 220.390 C 195.579 219.922,196.022 219.420,196.600 219.200 C 197.581 218.827,197.833 218.058,197.585 216.200 C 197.314 214.169,197.415 213.846,198.400 213.606 C 199.320 213.381,199.403 213.172,199.442 210.990 C 199.479 208.832,199.583 208.564,200.594 208.004 C 201.204 207.665,201.681 207.256,201.652 207.094 C 201.623 206.932,201.600 205.990,201.600 205.000 C 201.600 203.245,200.488 202.445,199.467 203.467 M158.650 206.450 C 157.977 209.813,158.447 212.000,159.843 212.000 C 160.777 212.000,160.800 211.919,160.800 208.600 C 160.800 205.288,160.775 205.200,159.850 205.200 C 159.106 205.200,158.846 205.471,158.650 206.450 M160.597 214.009 C 160.168 215.362,160.763 217.200,161.632 217.200 C 162.174 217.200,162.400 217.480,162.400 218.150 C 162.400 220.247,162.890 221.600,163.650 221.600 C 164.130 221.600,164.400 221.884,164.400 222.390 C 164.400 222.863,164.881 223.428,165.600 223.800 C 166.431 224.230,166.800 224.718,166.800 225.388 C 166.800 225.919,167.152 226.601,167.581 226.902 C 168.011 227.203,168.546 227.933,168.771 228.524 C 169.029 229.203,169.479 229.600,169.990 229.600 C 170.533 229.600,170.800 229.863,170.800 230.400 C 170.800 230.855,171.067 231.200,171.418 231.200 C 171.758 231.200,172.485 231.648,173.032 232.196 C 173.580 232.744,174.433 233.294,174.929 233.418 C 175.424 233.542,176.003 234.039,176.215 234.522 C 176.427 235.005,176.996 235.456,177.481 235.525 C 177.966 235.594,178.471 235.994,178.605 236.415 C 178.783 236.976,179.371 237.248,180.824 237.441 C 182.386 237.648,182.800 237.858,182.800 238.444 C 182.800 239.311,184.310 239.810,185.800 239.436 C 187.898 238.909,187.133 237.200,184.800 237.200 C 182.933 237.200,182.800 237.133,182.800 236.200 C 182.800 235.267,182.667 235.200,180.800 235.200 C 178.933 235.200,178.800 235.133,178.800 234.200 C 178.800 233.400,178.600 233.200,177.800 233.200 C 177.000 233.200,176.800 233.000,176.800 232.200 C 176.800 231.408,176.598 231.200,175.828 231.200 C 175.124 231.200,174.820 230.951,174.728 230.300 C 174.619 229.534,174.321 229.382,172.721 229.279 L 170.842 229.158 170.721 227.279 C 170.618 225.679,170.466 225.381,169.700 225.272 C 169.049 225.180,168.800 224.876,168.800 224.172 C 168.800 223.402,168.592 223.200,167.800 223.200 C 167.000 223.200,166.800 223.000,166.800 222.200 C 166.800 221.400,166.600 221.200,165.800 221.200 C 164.867 221.200,164.800 221.067,164.800 219.200 C 164.800 217.333,164.733 217.200,163.800 217.200 C 162.867 217.200,162.800 217.067,162.800 215.200 C 162.800 213.002,161.193 212.133,160.597 214.009 M125.200 219.400 C 125.200 222.710,125.225 222.800,126.148 222.800 C 126.932 222.800,127.138 222.541,127.343 221.300 C 127.943 217.669,127.570 216.000,126.157 216.000 C 125.223 216.000,125.200 216.081,125.200 219.400 M127.380 223.553 C 126.573 224.360,127.267 228.800,128.200 228.800 C 129.133 228.800,129.200 228.933,129.200 230.800 C 129.200 232.667,129.267 232.800,130.200 232.800 C 131.133 232.800,131.200 232.933,131.200 234.800 C 131.200 236.655,131.271 236.800,132.178 236.800 C 133.061 236.800,133.168 236.985,133.278 238.700 C 133.382 240.321,133.532 240.619,134.300 240.728 C 134.951 240.820,135.200 241.124,135.200 241.828 C 135.200 242.598,135.408 242.800,136.200 242.800 C 137.133 242.800,137.200 242.933,137.200 244.800 C 137.200 246.667,137.267 246.800,138.200 246.800 C 139.000 246.800,139.200 247.000,139.200 247.800 C 139.200 248.600,139.400 248.800,140.200 248.800 C 141.000 248.800,141.200 249.000,141.200 249.800 C 141.200 250.600,141.400 250.800,142.200 250.800 C 143.000 250.800,143.200 251.000,143.200 251.800 C 143.200 252.600,143.400 252.800,144.200 252.800 C 145.000 252.800,145.200 253.000,145.200 253.800 C 145.200 254.600,145.400 254.800,146.200 254.800 C 147.000 254.800,147.200 255.000,147.200 255.800 C 147.200 256.600,147.400 256.800,148.200 256.800 C 149.000 256.800,149.200 257.000,149.200 257.800 C 149.200 258.600,149.400 258.800,150.200 258.800 C 151.007 258.800,151.200 258.998,151.200 259.825 C 151.200 260.741,151.339 260.837,152.500 260.725 C 154.191 260.562,154.619 258.971,153.076 258.583 C 152.539 258.449,151.902 257.902,151.659 257.369 C 151.416 256.836,150.943 256.400,150.609 256.400 C 150.274 256.400,150.000 256.221,150.000 256.003 C 150.000 255.784,148.110 253.734,145.800 251.446 C 143.490 249.159,141.600 247.083,141.600 246.834 C 141.600 246.584,141.172 246.218,140.650 246.019 C 139.988 245.767,139.619 245.225,139.432 244.229 C 139.284 243.443,138.928 242.800,138.640 242.800 C 138.352 242.800,137.948 242.216,137.744 241.503 C 137.516 240.708,137.067 240.148,136.586 240.056 C 135.524 239.855,135.159 239.204,135.417 237.972 C 135.589 237.149,135.428 236.850,134.616 236.480 C 133.783 236.101,133.600 235.738,133.600 234.473 C 133.600 233.224,133.413 232.843,132.624 232.484 C 131.846 232.129,131.623 231.690,131.524 230.319 C 131.421 228.886,131.250 228.579,130.500 228.472 C 129.595 228.344,129.453 227.945,129.587 225.908 C 129.726 223.798,128.472 222.461,127.380 223.553 M233.200 224.173 C 233.200 225.002,233.007 225.200,232.200 225.200 C 231.400 225.200,231.200 225.400,231.200 226.200 C 231.200 227.000,231.000 227.200,230.200 227.200 C 229.400 227.200,229.200 227.400,229.200 228.200 C 229.200 229.000,229.000 229.200,228.200 229.200 C 227.400 229.200,227.200 229.400,227.200 230.200 C 227.200 231.000,227.000 231.200,226.200 231.200 C 225.406 231.200,225.200 231.401,225.200 232.178 C 225.200 233.061,225.015 233.168,223.300 233.278 C 221.679 233.382,221.381 233.532,221.272 234.300 C 221.180 234.951,220.876 235.200,220.172 235.200 C 219.413 235.200,219.200 235.410,219.200 236.157 C 219.200 237.884,221.831 237.997,222.075 236.281 C 222.174 235.585,222.506 235.374,223.659 235.278 C 224.707 235.191,225.175 234.937,225.322 234.378 C 225.442 233.917,225.869 233.600,226.371 233.600 C 226.885 233.600,227.396 233.208,227.673 232.600 C 227.923 232.050,228.374 231.600,228.674 231.600 C 228.974 231.600,229.391 231.150,229.600 230.600 C 229.809 230.050,230.171 229.600,230.403 229.600 C 230.954 229.600,233.600 226.954,233.600 226.403 C 233.600 226.171,234.062 225.804,234.628 225.589 C 236.070 225.041,235.845 223.451,234.300 223.273 C 233.353 223.164,233.200 223.290,233.200 224.173 M268.724 230.609 C 268.602 230.731,268.591 231.620,268.699 232.585 C 268.889 234.262,268.849 234.343,267.777 234.469 C 266.742 234.590,266.654 234.736,266.628 236.380 C 266.604 237.939,266.476 238.190,265.600 238.396 C 264.885 238.564,264.564 238.941,264.473 239.716 C 264.385 240.477,264.117 240.800,263.573 240.800 C 262.969 240.800,262.799 241.084,262.794 242.100 C 262.786 243.686,262.447 244.261,261.400 244.458 C 260.950 244.542,260.546 244.984,260.477 245.466 C 260.403 245.987,259.970 246.421,259.377 246.570 C 258.734 246.731,258.400 247.099,258.400 247.645 C 258.400 248.138,258.076 248.560,257.600 248.684 C 257.075 248.821,256.800 249.230,256.800 249.873 C 256.800 251.237,258.932 251.078,259.128 249.700 C 259.220 249.049,259.524 248.800,260.228 248.800 C 260.763 248.800,261.179 248.665,261.153 248.500 C 260.987 247.452,261.315 246.839,262.100 246.728 C 262.678 246.646,263.046 246.278,263.128 245.700 C 263.208 245.139,263.533 244.800,263.993 244.800 C 264.754 244.800,265.544 242.080,265.026 241.242 C 264.894 241.029,265.284 240.797,265.893 240.727 C 266.688 240.636,267.036 240.346,267.128 239.700 C 267.198 239.205,267.502 238.800,267.804 238.800 C 268.659 238.800,268.848 238.213,269.198 234.480 C 269.493 231.330,269.331 230.002,268.724 230.609 M213.200 238.200 C 213.200 239.178,213.133 239.200,210.200 239.200 C 207.309 239.200,207.200 239.234,207.200 240.150 C 207.200 242.163,212.871 242.210,213.264 240.200 C 213.391 239.550,213.756 239.393,215.210 239.360 C 217.932 239.300,218.000 239.272,218.000 238.200 C 218.000 237.244,217.893 237.200,215.600 237.200 C 213.307 237.200,213.200 237.244,213.200 238.200 M188.236 239.851 C 187.644 241.393,189.139 241.867,192.944 241.346 C 194.557 241.125,194.800 240.967,194.800 240.146 C 194.800 238.919,188.699 238.645,188.236 239.851 M255.200 251.787 C 255.200 252.501,255.367 252.711,255.800 252.545 C 256.130 252.418,256.403 252.109,256.406 251.857 C 256.409 251.606,256.587 251.670,256.800 252.000 C 257.137 252.521,257.189 252.513,257.194 251.943 C 257.200 251.334,256.439 250.800,255.567 250.800 C 255.365 250.800,255.200 251.244,255.200 251.787 M252.800 253.800 C 252.800 254.849,253.662 255.128,254.758 254.434 C 255.601 253.901,254.964 252.800,253.813 252.800 C 252.999 252.800,252.800 252.997,252.800 253.800 M250.913 255.640 C 250.982 256.557,252.130 256.509,252.308 255.581 C 252.378 255.216,252.111 254.948,251.640 254.913 C 251.088 254.871,250.871 255.088,250.913 255.640 M248.522 257.578 C 248.410 258.005,247.932 258.410,247.459 258.478 C 246.922 258.554,246.552 258.937,246.472 259.499 C 246.394 260.048,245.981 260.490,245.413 260.633 C 243.769 261.045,243.804 262.800,245.455 262.800 C 246.623 262.800,246.800 262.668,246.800 261.800 C 246.800 261.000,247.000 260.800,247.800 260.800 C 248.600 260.800,248.800 260.600,248.800 259.800 C 248.800 259.000,249.000 258.800,249.800 258.800 C 250.600 258.800,250.800 258.600,250.800 257.800 C 250.800 256.514,248.850 256.324,248.522 257.578 M155.272 261.700 C 155.354 262.278,155.722 262.646,156.300 262.728 C 156.951 262.820,157.200 263.124,157.200 263.828 C 157.200 264.690,157.375 264.800,158.745 264.800 C 160.710 264.800,160.719 263.129,158.758 262.445 C 158.121 262.223,157.600 261.762,157.600 261.421 C 157.600 260.995,157.215 260.800,156.372 260.800 C 155.328 260.800,155.163 260.934,155.272 261.700 M240.603 262.958 C 240.492 263.311,240.316 263.870,240.213 264.200 C 240.086 264.605,239.493 264.800,238.385 264.800 C 236.912 264.800,236.757 264.892,236.872 265.700 C 237.081 267.173,240.800 267.288,240.800 265.822 C 240.800 264.999,240.994 264.800,241.800 264.800 C 242.600 264.800,242.800 264.600,242.800 263.800 C 242.800 263.250,242.635 262.800,242.433 262.800 C 242.231 262.800,241.782 262.691,241.436 262.558 C 241.054 262.412,240.727 262.569,240.603 262.958 M161.700 264.665 C 160.703 265.067,161.109 266.800,162.200 266.800 C 163.000 266.800,163.200 267.000,163.200 267.800 C 163.200 268.731,163.335 268.800,165.172 268.800 C 166.913 268.800,167.159 268.906,167.272 269.700 C 167.478 271.150,172.400 271.309,172.400 269.866 C 172.400 268.710,171.506 268.381,169.202 268.691 C 167.684 268.894,167.600 268.850,167.600 267.853 C 167.600 266.875,167.474 266.800,165.839 266.800 C 164.242 266.800,164.039 266.688,163.660 265.600 C 163.259 264.450,162.788 264.226,161.700 264.665 M233.925 266.684 C 233.188 266.797,232.810 267.124,232.725 267.724 C 232.617 268.479,232.311 268.617,230.500 268.721 C 227.195 268.911,227.286 270.800,230.600 270.800 C 232.680 270.800,232.800 270.745,232.800 269.800 C 232.800 268.867,232.933 268.800,234.800 268.800 C 236.756 268.800,236.800 268.773,236.800 267.600 C 236.800 266.331,236.617 266.273,233.925 266.684 M173.700 270.665 C 172.047 271.332,173.216 272.800,175.400 272.800 C 177.449 272.800,177.600 272.735,177.600 271.850 C 177.600 270.698,175.329 270.008,173.700 270.665 M223.876 270.691 C 221.787 271.001,222.579 272.573,224.900 272.722 C 226.703 272.838,226.800 272.791,226.800 271.822 C 226.800 271.260,226.635 270.800,226.433 270.800 C 226.231 270.800,225.826 270.738,225.533 270.662 C 225.240 270.586,224.494 270.599,223.876 270.691 M180.700 272.691 C 179.412 272.826,179.200 272.989,179.200 273.840 C 179.200 275.270,185.716 275.188,185.921 273.756 C 186.034 272.960,184.145 272.229,182.600 272.472 C 182.380 272.506,181.525 272.605,180.700 272.691 M215.900 272.687 C 215.047 272.816,214.800 273.072,214.800 273.827 C 214.800 274.771,214.889 274.800,217.800 274.800 C 220.691 274.800,220.800 274.766,220.800 273.850 C 220.800 272.574,219.180 272.190,215.900 272.687 M191.075 274.695 C 189.359 274.830,189.164 274.941,189.275 275.723 C 189.400 276.598,189.429 276.600,200.100 276.707 L 210.800 276.813 210.800 275.864 C 210.800 274.530,200.770 273.935,191.075 274.695 " stroke="none" fill="#81d189" fill-rule="evenodd"></path><path id="path4" d="M186.695 124.041 C 186.956 125.041,186.274 125.564,184.600 125.648 C 183.592 125.699,183.550 125.737,184.338 125.887 C 185.862 126.177,187.600 125.252,187.600 124.151 C 187.600 123.601,187.363 123.200,187.037 123.200 C 186.663 123.200,186.548 123.481,186.695 124.041 M212.400 124.186 C 212.400 125.671,217.900 127.033,219.090 125.843 C 219.224 125.709,218.448 125.598,217.367 125.595 C 214.320 125.586,213.495 125.259,213.709 124.144 C 213.846 123.425,213.711 123.200,213.145 123.200 C 212.620 123.200,212.400 123.491,212.400 124.186 M193.700 123.891 C 194.525 123.978,195.875 123.978,196.700 123.891 C 197.525 123.805,196.850 123.734,195.200 123.734 C 193.550 123.734,192.875 123.805,193.700 123.891 M203.911 123.893 C 204.851 123.978,206.291 123.977,207.111 123.891 C 207.930 123.805,207.160 123.736,205.400 123.737 C 203.640 123.739,202.970 123.809,203.911 123.893 M179.200 126.167 C 179.200 126.857,178.886 127.248,178.100 127.535 C 177.495 127.756,177.237 127.951,177.526 127.968 C 178.479 128.026,179.600 127.186,179.600 126.415 C 179.600 125.999,179.915 125.576,180.300 125.476 C 180.827 125.338,180.777 125.281,180.100 125.246 C 179.402 125.210,179.200 125.417,179.200 126.167 M221.200 126.191 C 221.200 127.707,222.737 128.518,224.973 128.183 C 227.098 127.864,227.476 127.282,225.401 127.524 C 223.146 127.787,222.000 127.338,222.000 126.192 C 222.000 125.647,221.820 125.200,221.600 125.200 C 221.380 125.200,221.200 125.646,221.200 126.191 M172.689 128.571 C 172.519 129.732,172.523 129.735,173.201 128.899 C 173.630 128.368,174.461 128.004,175.442 127.918 C 176.919 127.787,176.893 127.770,174.930 127.590 C 172.895 127.403,172.858 127.419,172.689 128.571 M227.570 127.220 C 227.554 127.319,227.466 127.802,227.374 128.293 C 227.145 129.519,228.660 130.488,230.294 130.161 C 231.293 129.961,231.567 130.065,231.775 130.722 C 232.191 132.033,232.972 132.467,234.124 132.029 C 235.039 131.681,235.229 131.784,235.955 133.014 C 236.669 134.223,236.910 134.358,237.974 134.145 C 239.008 133.938,239.239 134.051,239.569 134.917 C 239.781 135.475,240.301 136.042,240.724 136.176 C 241.148 136.310,241.816 136.776,242.209 137.210 C 242.604 137.647,243.437 138.000,244.071 138.000 C 244.905 138.000,245.341 138.272,245.673 139.000 C 245.923 139.550,246.247 140.000,246.392 140.000 C 246.537 140.000,249.106 142.475,252.101 145.500 C 261.187 154.677,261.766 155.329,261.656 156.253 C 261.597 156.753,261.938 157.416,262.480 157.853 C 262.988 158.264,263.722 159.095,264.111 159.700 C 264.500 160.305,265.095 160.800,265.433 160.800 C 265.771 160.800,265.929 160.992,265.784 161.226 C 265.235 162.115,266.005 164.386,266.935 164.619 C 267.677 164.806,267.808 165.069,267.686 166.123 C 267.584 167.003,267.845 167.852,268.526 168.855 C 269.070 169.655,269.640 171.054,269.794 171.963 C 270.008 173.228,270.341 173.756,271.210 174.205 C 272.211 174.723,272.307 174.930,272.017 175.941 C 271.445 177.934,272.302 181.200,273.396 181.200 C 273.830 181.200,273.932 182.060,273.883 185.300 C 273.775 192.329,273.285 192.042,285.870 192.310 C 291.221 192.423,295.604 192.535,295.610 192.558 C 295.983 194.167,295.994 270.864,295.621 271.560 L 295.125 272.488 282.162 272.341 L 269.200 272.195 269.200 273.498 L 269.200 274.800 282.555 274.800 L 295.909 274.800 296.225 273.500 C 296.758 271.304,296.883 192.782,296.355 192.146 C 295.996 191.713,293.966 191.600,286.584 191.600 C 281.459 191.600,277.007 191.501,276.692 191.380 C 276.076 191.144,276.214 189.200,276.847 189.200 C 277.041 189.200,277.200 189.045,277.200 188.855 C 277.200 188.665,276.740 188.561,276.178 188.622 C 274.380 188.820,274.094 186.693,275.065 180.347 C 275.277 178.958,275.241 178.903,274.251 179.092 C 273.019 179.328,272.298 177.969,272.610 176.000 C 273.203 172.255,273.253 172.531,272.016 172.712 C 270.703 172.905,269.982 171.128,270.773 169.650 C 271.456 168.375,271.280 168.000,270.000 168.000 C 269.333 168.000,268.778 167.778,268.751 167.500 C 268.724 167.225,268.679 166.290,268.651 165.422 C 268.608 164.089,268.444 163.806,267.600 163.601 C 266.713 163.385,266.614 163.179,266.725 161.776 C 266.839 160.332,266.743 160.154,265.625 159.732 C 264.829 159.432,264.400 158.993,264.400 158.481 C 264.400 158.030,264.059 157.604,263.600 157.484 C 262.968 157.319,262.800 156.938,262.800 155.677 C 262.800 154.260,262.663 154.031,261.600 153.660 C 260.940 153.430,260.400 152.991,260.400 152.685 C 260.400 152.379,259.950 151.923,259.400 151.673 C 258.813 151.406,258.400 150.883,258.400 150.409 C 258.400 149.951,258.135 149.600,257.790 149.600 C 257.455 149.600,257.009 149.150,256.800 148.600 C 256.591 148.050,256.141 147.600,255.800 147.600 C 255.459 147.600,255.009 147.150,254.800 146.600 C 254.577 146.013,254.103 145.600,253.653 145.600 C 253.169 145.600,252.794 145.231,252.636 144.600 C 252.472 143.949,252.105 143.600,251.582 143.600 C 251.095 143.600,250.631 143.208,250.400 142.600 C 250.191 142.050,249.829 141.600,249.597 141.600 C 249.060 141.600,246.400 138.960,246.400 138.427 C 246.400 137.847,245.020 137.200,243.783 137.200 C 242.863 137.200,242.746 137.070,242.946 136.271 C 243.157 135.432,243.066 135.358,242.001 135.514 C 241.035 135.656,240.737 135.500,240.347 134.644 C 240.086 134.070,239.675 133.583,239.436 133.563 C 239.196 133.543,238.463 133.498,237.807 133.463 C 236.961 133.418,236.570 133.168,236.461 132.600 C 236.250 131.501,235.696 131.235,234.144 131.487 C 232.995 131.673,232.767 131.565,232.428 130.675 C 232.106 129.826,231.740 129.626,230.322 129.524 C 228.974 129.427,228.576 129.229,228.465 128.600 C 228.335 127.869,227.640 126.797,227.570 127.220 M168.158 129.900 C 168.039 130.285,167.746 130.960,167.507 131.400 C 167.117 132.117,167.141 132.143,167.736 131.651 C 168.101 131.349,168.400 130.779,168.400 130.384 C 168.400 129.990,168.625 129.576,168.900 129.465 C 169.292 129.307,169.289 129.256,168.887 129.232 C 168.606 129.214,168.277 129.515,168.158 129.900 M164.493 131.754 C 163.520 133.259,163.200 134.098,163.782 133.615 C 164.105 133.347,164.470 132.810,164.593 132.421 C 164.753 131.918,165.104 131.769,165.809 131.904 C 166.354 132.008,166.800 132.003,166.800 131.893 C 166.800 131.458,164.763 131.335,164.493 131.754 M160.333 134.300 C 160.098 135.874,160.229 135.902,161.486 134.545 C 162.385 133.575,162.398 133.507,161.651 133.703 C 161.204 133.819,160.768 133.709,160.682 133.458 C 160.597 133.206,160.439 133.585,160.333 134.300 M158.229 136.229 C 157.883 136.574,157.600 137.005,157.600 137.185 C 157.600 137.365,156.970 137.586,156.200 137.676 C 155.430 137.766,154.800 137.696,154.800 137.520 C 154.800 137.344,154.600 137.200,154.357 137.200 C 154.087 137.200,154.009 137.581,154.157 138.173 C 154.344 138.917,154.216 139.205,153.611 139.396 C 153.176 139.534,152.430 140.222,151.952 140.924 L 151.083 142.200 152.275 140.948 C 152.931 140.259,153.857 139.572,154.334 139.421 C 154.810 139.270,155.200 138.888,155.200 138.573 C 155.200 138.223,155.604 138.000,156.240 138.000 C 156.879 138.000,157.711 137.538,158.400 136.800 C 159.537 135.583,159.384 135.073,158.229 136.229 M146.983 145.909 C 146.533 146.289,145.907 146.960,145.590 147.400 C 145.274 147.840,145.685 147.570,146.503 146.800 C 147.322 146.030,147.993 145.355,147.996 145.300 C 148.004 145.099,147.783 145.232,146.983 145.909 M142.664 150.159 C 140.164 152.891,139.600 153.673,139.600 154.407 C 139.600 154.827,139.240 155.365,138.800 155.600 C 138.360 155.835,138.000 156.201,138.000 156.411 C 138.000 156.622,138.450 156.403,139.000 155.925 C 139.550 155.447,140.000 154.723,140.000 154.315 C 140.000 153.908,140.263 153.474,140.585 153.350 C 140.906 153.227,141.288 152.753,141.433 152.297 C 141.578 151.840,142.249 150.962,142.925 150.344 C 143.602 149.727,144.075 149.153,143.977 149.070 C 143.880 148.986,143.289 149.476,142.664 150.159 M193.300 156.412 C 192.250 156.834,192.003 158.800,193.000 158.800 C 193.366 158.800,193.600 158.427,193.600 157.847 C 193.600 156.598,194.378 156.412,199.644 156.405 C 206.004 156.397,207.600 156.688,207.600 157.854 C 207.600 158.910,208.578 159.154,208.948 158.191 C 209.689 156.261,197.206 154.843,193.300 156.412 M137.320 157.730 C 137.144 158.022,136.685 158.376,136.300 158.518 C 135.852 158.682,135.600 159.195,135.600 159.941 C 135.600 160.744,135.288 161.312,134.600 161.763 C 133.848 162.256,133.600 162.766,133.600 163.822 C 133.600 164.793,133.385 165.305,132.900 165.483 C 131.916 165.847,131.613 166.407,131.606 167.880 C 131.602 168.672,131.333 169.316,130.900 169.568 C 130.515 169.792,130.389 169.981,130.620 169.988 C 131.401 170.010,132.000 169.046,132.000 167.766 C 132.000 166.848,132.280 166.309,133.000 165.837 C 133.738 165.353,134.000 164.830,134.000 163.837 C 134.000 162.844,134.262 162.321,135.000 161.837 C 135.696 161.381,136.000 160.820,136.000 159.991 C 136.000 159.212,136.203 158.800,136.586 158.800 C 136.908 158.800,137.365 158.440,137.600 158.000 C 138.072 157.118,137.830 156.884,137.320 157.730 M185.900 158.432 C 185.162 158.862,184.916 160.800,185.600 160.800 C 185.820 160.800,186.000 160.353,186.000 159.808 C 186.000 158.645,187.277 158.162,189.315 158.552 C 190.231 158.728,190.428 158.686,190.000 158.406 C 189.221 157.895,186.796 157.910,185.900 158.432 M210.400 158.432 C 209.274 158.695,209.407 158.721,211.084 158.568 C 213.712 158.327,215.070 158.661,215.319 159.610 C 215.468 160.181,215.962 160.381,217.456 160.476 C 219.122 160.582,219.418 160.729,219.528 161.499 C 219.667 162.478,221.047 163.038,222.428 162.677 C 223.022 162.521,223.339 162.713,223.593 163.381 C 223.785 163.886,224.405 164.415,224.971 164.557 C 225.643 164.726,226.000 165.090,226.000 165.608 C 226.000 166.057,226.269 166.400,226.621 166.400 C 226.962 166.400,227.430 166.940,227.660 167.600 C 227.927 168.366,228.353 168.800,228.839 168.800 C 229.743 168.800,231.071 170.032,231.267 171.054 C 231.344 171.453,231.765 171.969,232.204 172.201 C 233.260 172.759,235.600 175.024,235.600 175.488 C 235.600 175.690,236.050 176.247,236.600 176.725 C 237.256 177.295,237.600 178.012,237.600 178.807 C 237.600 179.731,237.837 180.110,238.594 180.398 C 239.503 180.743,239.567 180.926,239.347 182.532 C 239.114 184.234,239.147 184.303,240.406 184.742 C 241.673 185.184,241.699 185.242,241.491 187.088 C 241.300 188.785,241.336 188.902,241.839 188.214 C 243.021 186.597,242.109 183.600,240.433 183.600 C 240.069 183.600,240.003 183.165,240.196 182.024 C 240.427 180.653,240.328 180.332,239.431 179.552 C 238.864 179.059,238.400 178.285,238.400 177.832 C 238.400 177.379,237.951 176.557,237.403 176.004 C 235.709 174.297,232.142 169.838,231.873 169.091 C 231.733 168.701,231.299 168.265,230.909 168.123 C 230.519 167.980,229.660 167.430,229.000 166.900 C 228.340 166.370,227.284 165.546,226.654 165.068 C 226.023 164.591,225.038 163.705,224.465 163.100 C 223.762 162.358,223.016 162.000,222.175 162.000 C 221.233 162.000,220.817 161.755,220.473 161.000 C 220.100 160.182,219.733 160.000,218.455 160.000 C 217.229 160.000,216.751 159.784,216.237 159.000 C 215.529 157.920,213.457 157.719,210.400 158.432 M181.700 160.488 C 181.205 160.727,180.800 161.165,180.800 161.461 C 180.800 161.773,180.368 162.000,179.774 162.000 C 178.432 162.000,177.200 162.677,177.200 163.414 C 177.200 163.780,176.805 164.000,176.147 164.000 C 175.427 164.000,174.393 164.662,172.870 166.100 C 169.047 169.709,166.007 172.980,166.003 173.486 C 166.001 173.753,165.640 174.165,165.200 174.400 C 164.760 174.635,164.397 175.227,164.394 175.714 C 164.387 176.769,164.074 177.247,163.000 177.846 C 162.427 178.165,162.192 178.725,162.173 179.817 C 162.153 180.990,161.943 181.434,161.265 181.736 C 160.355 182.142,159.764 183.572,160.129 184.483 C 160.243 184.767,160.351 184.501,160.368 183.891 C 160.391 183.115,160.699 182.646,161.400 182.327 C 161.950 182.077,162.417 181.675,162.437 181.436 C 162.457 181.196,162.502 180.460,162.537 179.800 C 162.580 178.981,162.882 178.476,163.488 178.210 C 163.976 177.996,164.486 177.321,164.620 176.710 C 164.802 175.879,165.101 175.600,165.807 175.600 C 166.651 175.600,166.727 175.461,166.534 174.273 C 166.355 173.167,166.488 172.835,167.329 172.283 C 167.885 171.919,168.455 171.257,168.597 170.811 C 168.738 170.365,169.112 170.000,169.427 170.000 C 169.742 170.000,170.000 169.730,170.000 169.400 C 170.000 169.070,170.186 168.800,170.413 168.800 C 170.641 168.800,171.457 168.170,172.227 167.400 C 172.997 166.630,173.787 166.000,173.984 166.000 C 174.181 166.000,174.403 165.685,174.478 165.300 C 174.576 164.794,174.998 164.600,176.000 164.600 C 177.131 164.600,177.487 164.389,177.937 163.453 C 178.436 162.415,178.635 162.326,180.044 162.515 C 181.476 162.707,181.600 162.648,181.600 161.770 C 181.600 160.757,183.015 160.090,184.199 160.544 C 184.530 160.671,184.800 160.601,184.800 160.387 C 184.800 159.876,182.837 159.940,181.700 160.488 M129.460 174.103 C 129.276 174.837,128.923 175.200,128.392 175.200 C 127.957 175.200,127.600 175.363,127.600 175.563 C 127.600 175.762,127.966 175.829,128.413 175.713 C 129.309 175.478,130.141 174.224,129.894 173.481 C 129.807 173.220,129.611 173.500,129.460 174.103 M127.654 180.267 C 127.556 181.835,127.134 182.400,126.057 182.406 C 125.228 182.411,125.129 182.496,125.600 182.800 C 126.975 183.688,128.268 182.224,127.873 180.226 C 127.715 179.430,127.707 179.432,127.654 180.267 M159.300 186.616 C 158.145 187.826,158.007 188.212,158.060 190.089 C 158.093 191.250,158.185 191.660,158.266 191.000 C 158.692 187.489,158.770 187.307,159.808 187.421 C 160.662 187.514,160.800 187.367,160.800 186.365 C 160.800 184.961,160.896 184.945,159.300 186.616 M241.387 189.900 C 241.537 190.285,241.691 190.780,241.730 191.000 C 241.775 191.259,235.734 191.473,224.600 191.606 L 207.400 191.813 224.867 191.906 C 244.689 192.013,244.850 191.996,242.725 190.016 C 241.651 189.015,241.021 188.961,241.387 189.900 M125.670 192.050 C 125.552 195.843,125.267 196.697,124.162 196.576 C 123.236 196.474,123.200 196.565,123.200 199.009 C 123.200 201.498,123.219 201.544,124.200 201.366 C 125.436 201.142,125.265 200.504,125.603 206.600 L 125.891 211.800 125.776 206.800 C 125.713 204.050,125.534 201.095,125.379 200.233 C 125.223 199.365,125.315 197.492,125.585 196.033 C 125.853 194.585,125.998 192.590,125.906 191.600 C 125.745 189.858,125.738 189.873,125.670 192.050 M205.646 195.909 C 205.618 196.462,205.209 196.995,204.600 197.273 C 204.050 197.523,203.600 197.886,203.600 198.078 C 203.600 198.524,204.909 197.833,205.566 197.041 C 205.841 196.710,205.982 196.115,205.879 195.719 C 205.734 195.159,205.683 195.201,205.646 195.909 M156.580 198.965 C 156.198 201.004,156.612 201.925,157.809 201.696 C 159.321 201.407,159.330 197.600,157.818 197.600 C 157.017 197.600,156.789 197.852,156.580 198.965 M202.311 202.747 C 201.550 202.924,201.320 203.156,201.545 203.517 C 201.798 203.921,202.081 203.858,202.834 203.231 C 203.365 202.788,203.710 202.442,203.600 202.461 C 203.490 202.479,202.910 202.608,202.311 202.747 M158.252 206.500 C 157.833 208.063,157.980 211.820,158.480 212.320 C 159.060 212.900,160.800 212.960,160.800 212.400 C 160.800 212.180,160.353 212.000,159.808 212.000 C 158.569 212.000,158.205 210.803,158.519 207.764 C 158.755 205.481,158.654 205.002,158.252 206.500 M200.642 207.939 C 199.580 208.562,199.480 208.817,199.442 210.990 C 199.403 213.173,199.321 213.380,198.402 213.598 C 197.830 213.734,197.352 214.169,197.281 214.618 C 197.189 215.199,197.252 215.262,197.524 214.864 C 197.727 214.569,198.321 214.114,198.846 213.852 C 199.677 213.438,199.800 213.095,199.800 211.188 C 199.800 209.236,199.919 208.925,200.900 208.306 C 202.680 207.183,202.460 206.871,200.642 207.939 M160.000 215.191 C 160.000 216.873,160.155 217.283,161.000 217.837 C 161.749 218.328,162.000 218.841,162.000 219.882 C 162.000 221.027,162.353 221.613,164.000 223.200 C 165.264 224.418,166.000 225.467,166.000 226.050 C 166.000 227.057,166.215 227.322,170.251 231.300 C 171.758 232.785,173.281 234.000,173.636 234.000 C 174.238 234.000,175.603 235.049,178.000 237.353 C 178.772 238.095,179.297 238.268,180.300 238.112 C 181.265 237.961,181.600 238.059,181.600 238.493 C 181.600 239.543,182.998 240.400,184.713 240.400 C 185.940 240.400,186.620 240.657,187.364 241.400 C 188.511 242.547,190.384 242.680,193.000 241.800 C 194.583 241.268,194.572 241.265,191.907 241.486 C 188.899 241.735,187.800 241.259,188.234 239.892 C 188.471 239.145,188.357 239.113,186.325 239.367 C 183.821 239.680,182.800 239.402,182.800 238.409 C 182.800 237.865,182.346 237.643,180.824 237.441 C 179.371 237.248,178.783 236.976,178.605 236.415 C 178.471 235.994,177.966 235.594,177.481 235.525 C 176.996 235.456,176.427 235.005,176.215 234.522 C 176.003 234.039,175.424 233.542,174.929 233.418 C 174.433 233.294,173.580 232.744,173.032 232.196 C 172.485 231.648,171.758 231.200,171.418 231.200 C 171.067 231.200,170.800 230.855,170.800 230.400 C 170.800 229.863,170.533 229.600,169.990 229.600 C 169.479 229.600,169.029 229.203,168.771 228.524 C 168.546 227.933,168.011 227.203,167.581 226.902 C 167.152 226.601,166.800 225.919,166.800 225.388 C 166.800 224.718,166.431 224.230,165.600 223.800 C 164.881 223.428,164.400 222.863,164.400 222.390 C 164.400 221.884,164.130 221.600,163.650 221.600 C 162.890 221.600,162.400 220.247,162.400 218.150 C 162.400 217.480,162.174 217.200,161.632 217.200 C 160.763 217.200,160.168 215.362,160.597 214.009 C 160.745 213.542,160.673 213.200,160.427 213.200 C 160.182 213.200,160.000 214.046,160.000 215.191 M125.200 215.400 C 125.200 215.772,125.577 216.000,126.192 216.000 C 127.237 216.000,127.443 216.430,127.728 219.200 C 127.847 220.353,127.883 220.268,127.936 218.719 C 128.020 216.257,127.350 214.800,126.136 214.800 C 125.571 214.800,125.200 215.038,125.200 215.400 M197.600 218.010 C 197.600 218.506,197.212 218.967,196.600 219.200 C 196.050 219.409,195.600 219.777,195.600 220.017 C 195.600 220.258,196.140 220.070,196.800 219.600 C 197.796 218.891,198.501 217.200,197.800 217.200 C 197.690 217.200,197.600 217.564,197.600 218.010 M127.225 222.074 C 127.202 223.428,127.280 223.533,128.191 223.367 C 128.971 223.226,129.223 223.381,129.375 224.094 C 129.482 224.592,129.645 225.360,129.738 225.800 C 129.831 226.240,129.928 225.938,129.954 225.129 C 129.998 223.724,129.224 222.400,128.359 222.400 C 128.147 222.400,127.811 221.995,127.612 221.500 C 127.297 220.715,127.247 220.788,127.225 222.074 M236.107 222.431 C 235.367 222.711,235.255 222.977,235.455 223.976 C 235.663 225.015,235.551 225.239,234.648 225.582 C 234.072 225.801,233.600 226.171,233.600 226.403 C 233.600 226.954,230.954 229.600,230.403 229.600 C 230.171 229.600,229.809 230.050,229.600 230.600 C 229.391 231.150,228.974 231.600,228.674 231.600 C 228.374 231.600,227.923 232.050,227.673 232.600 C 227.396 233.208,226.885 233.600,226.371 233.600 C 225.869 233.600,225.442 233.917,225.322 234.378 C 225.176 234.937,224.707 235.191,223.662 235.278 C 222.577 235.369,222.169 235.604,222.057 236.200 C 221.845 237.332,221.221 237.610,219.500 237.336 C 218.087 237.112,218.000 237.159,218.000 238.149 C 218.000 239.274,217.941 239.300,215.200 239.360 C 213.653 239.394,213.382 239.526,213.272 240.299 C 213.114 241.411,211.818 241.787,209.272 241.461 C 207.496 241.234,207.451 241.251,208.400 241.797 C 210.747 243.146,213.782 242.397,214.533 240.283 C 214.743 239.693,214.936 239.645,215.618 240.009 C 216.679 240.578,218.517 240.176,219.421 239.177 C 219.807 238.750,220.442 238.400,220.831 238.400 C 221.220 238.400,222.047 237.977,222.669 237.461 C 223.291 236.944,224.283 236.404,224.873 236.260 C 225.464 236.116,226.061 235.639,226.200 235.199 C 226.340 234.760,226.634 234.400,226.855 234.400 C 227.279 234.400,235.577 226.008,237.094 224.045 C 238.139 222.692,237.627 221.854,236.107 222.431 M129.600 227.972 C 129.600 228.177,130.005 228.402,130.500 228.472 C 131.250 228.579,131.421 228.886,131.524 230.319 C 131.623 231.690,131.846 232.129,132.624 232.484 C 133.413 232.843,133.600 233.224,133.600 234.473 C 133.600 235.738,133.783 236.101,134.616 236.480 C 135.428 236.850,135.589 237.149,135.417 237.972 C 135.159 239.204,135.524 239.855,136.586 240.056 C 137.067 240.148,137.516 240.708,137.744 241.503 C 137.948 242.216,138.352 242.800,138.640 242.800 C 138.928 242.800,139.284 243.443,139.432 244.229 C 139.619 245.225,139.988 245.767,140.650 246.019 C 141.172 246.218,141.600 246.584,141.600 246.834 C 141.600 247.083,143.490 249.159,145.800 251.446 C 148.110 253.734,150.000 255.784,150.000 256.003 C 150.000 256.221,150.274 256.400,150.609 256.400 C 150.943 256.400,151.416 256.836,151.659 257.369 C 151.902 257.902,152.547 258.451,153.093 258.588 C 153.889 258.787,154.049 259.031,153.899 259.818 C 153.720 260.752,153.807 260.800,155.655 260.800 C 157.146 260.800,157.600 260.945,157.600 261.421 C 157.600 261.762,158.129 262.226,158.776 262.452 C 159.512 262.708,159.999 263.187,160.076 263.731 C 160.181 264.469,160.430 264.586,161.724 264.509 C 163.089 264.428,163.291 264.542,163.663 265.609 C 164.039 266.687,164.245 266.800,165.839 266.800 C 167.474 266.800,167.600 266.875,167.600 267.853 C 167.600 268.850,167.684 268.894,169.202 268.691 C 171.524 268.379,172.400 268.708,172.400 269.891 C 172.400 270.805,172.512 270.868,173.727 270.640 C 175.999 270.214,177.600 270.738,177.600 271.908 C 177.600 272.911,177.611 272.915,180.500 272.704 C 184.809 272.390,186.118 272.669,185.892 273.851 C 185.732 274.691,185.859 274.800,187.003 274.800 C 188.091 274.800,188.288 274.658,188.248 273.900 C 188.163 272.306,186.925 271.799,183.234 271.847 C 180.103 271.888,179.807 271.820,178.998 270.880 C 178.328 270.100,177.685 269.844,176.194 269.760 C 174.990 269.692,174.134 269.426,173.927 269.055 C 173.402 268.118,171.096 267.507,169.858 267.978 C 169.054 268.283,168.800 268.257,168.800 267.867 C 168.800 266.686,167.695 265.830,166.293 265.925 C 165.190 265.999,164.854 265.851,164.689 265.219 C 164.574 264.779,163.967 264.197,163.340 263.926 C 162.713 263.654,161.771 263.110,161.246 262.716 C 160.721 262.322,159.977 262.000,159.592 262.000 C 159.207 262.000,158.599 261.553,158.241 261.006 C 157.883 260.460,157.142 259.900,156.595 259.763 C 156.048 259.626,155.600 259.375,155.600 259.205 C 155.600 259.036,155.050 258.669,154.377 258.391 C 152.423 257.581,141.394 246.253,139.952 243.574 C 138.633 241.124,137.488 239.618,136.771 239.391 C 136.242 239.223,136.000 238.780,136.000 237.982 C 136.000 237.182,135.687 236.614,135.000 236.163 C 134.262 235.679,134.000 235.156,134.000 234.163 C 134.000 233.170,133.738 232.647,133.000 232.163 C 132.216 231.649,132.000 231.171,132.000 229.944 C 132.000 228.633,131.834 228.317,130.974 227.990 C 129.708 227.509,129.600 227.507,129.600 227.972 M268.404 229.396 C 268.094 229.768,267.832 230.777,267.821 231.637 C 267.808 232.594,267.610 233.200,267.309 233.200 C 266.483 233.200,265.541 235.026,265.811 236.103 C 266.006 236.880,265.883 237.137,265.235 237.307 C 264.781 237.426,264.236 237.979,264.024 238.537 C 263.812 239.095,263.293 239.736,262.872 239.961 C 262.451 240.187,261.990 240.950,261.849 241.656 C 261.538 243.211,262.191 242.471,252.636 252.100 C 248.325 256.445,244.552 260.000,244.253 260.000 C 243.953 260.000,243.279 260.335,242.754 260.745 C 242.229 261.155,241.385 261.620,240.877 261.779 C 240.369 261.938,239.789 262.503,239.587 263.034 C 239.317 263.744,238.917 264.000,238.080 264.000 C 237.381 264.000,236.576 264.387,236.000 265.000 C 235.361 265.680,234.633 266.000,233.722 266.000 C 232.677 266.000,232.281 266.223,231.922 267.012 C 231.535 267.862,231.220 268.010,229.963 267.936 C 229.140 267.887,228.181 268.084,227.833 268.373 C 227.018 269.049,226.994 270.800,227.800 270.800 C 228.170 270.800,228.400 270.425,228.400 269.821 C 228.400 268.922,228.572 268.832,230.500 268.721 C 232.297 268.617,232.618 268.476,232.722 267.742 C 232.844 266.891,235.846 266.010,236.741 266.564 C 236.930 266.680,237.002 266.343,236.900 265.813 C 236.732 264.930,236.859 264.840,238.442 264.725 C 239.906 264.619,240.204 264.448,240.402 263.600 C 240.609 262.718,240.847 262.600,242.418 262.600 C 243.938 262.600,244.218 262.473,244.323 261.738 C 244.397 261.221,244.826 260.780,245.395 260.637 C 245.980 260.490,246.394 260.053,246.472 259.499 C 246.552 258.937,246.922 258.554,247.459 258.478 C 247.932 258.410,248.410 258.005,248.522 257.578 C 248.690 256.936,249.081 256.800,250.763 256.800 L 252.800 256.800 252.800 254.755 C 252.800 252.709,252.800 252.709,254.000 252.885 C 255.101 253.047,255.200 252.964,255.200 251.887 C 255.200 250.859,255.315 250.742,256.129 250.946 C 256.962 251.156,257.041 251.062,256.892 250.046 C 256.761 249.156,256.905 248.866,257.563 248.694 C 258.073 248.560,258.400 248.151,258.400 247.645 C 258.400 247.099,258.734 246.731,259.377 246.570 C 259.970 246.421,260.403 245.987,260.477 245.466 C 260.546 244.984,260.950 244.542,261.400 244.458 C 262.447 244.261,262.786 243.686,262.794 242.100 C 262.799 241.084,262.969 240.800,263.573 240.800 C 264.117 240.800,264.385 240.477,264.473 239.716 C 264.564 238.941,264.885 238.564,265.600 238.396 C 266.476 238.190,266.604 237.939,266.628 236.380 C 266.654 234.742,266.745 234.590,267.762 234.470 C 268.797 234.349,268.859 234.235,268.734 232.670 C 268.660 231.752,268.780 230.964,269.000 230.919 C 269.223 230.874,269.355 231.493,269.298 232.319 C 269.196 233.797,269.196 233.798,269.783 232.800 C 270.899 230.903,269.670 227.870,268.404 229.396 M195.969 241.300 C 195.304 243.474,196.178 244.000,200.455 244.000 C 204.517 244.000,205.600 243.618,205.600 242.186 L 205.600 241.200 200.800 241.200 C 198.160 241.200,195.986 241.245,195.969 241.300 M256.084 252.215 C 255.652 252.705,255.698 252.800,256.372 252.800 C 256.921 252.800,257.102 252.611,256.945 252.200 C 256.671 251.487,256.727 251.486,256.084 252.215 M252.308 255.581 C 252.130 256.509,250.982 256.557,250.913 255.640 C 250.871 255.088,251.088 254.871,251.640 254.913 C 252.111 254.948,252.378 255.216,252.308 255.581 M223.800 269.895 C 221.713 270.200,220.411 272.800,222.345 272.800 C 222.923 272.800,223.046 272.577,222.898 271.800 C 222.699 270.759,223.345 270.533,225.900 270.753 C 226.395 270.795,226.800 270.663,226.800 270.458 C 226.800 270.085,225.769 269.548,225.267 269.660 C 225.120 269.693,224.460 269.799,223.800 269.895 M214.400 272.120 C 212.053 272.746,211.420 274.800,213.573 274.800 C 214.597 274.800,214.800 274.643,214.800 273.851 C 214.800 272.743,216.982 272.184,219.539 272.638 C 220.529 272.813,220.871 272.766,220.600 272.489 C 219.944 271.821,216.331 271.606,214.400 272.120 M193.901 273.964 C 192.417 274.129,191.128 274.339,191.035 274.432 C 190.943 274.524,195.252 274.600,200.611 274.600 C 205.969 274.600,210.034 274.482,209.644 274.338 C 208.498 273.914,196.842 273.638,193.901 273.964 " stroke="none" fill="#5cb074" fill-rule="evenodd"></path></g></svg>