<svg id="svg" version="1.1" xmlns="http://www.w3.org/2000/svg" xmlns:xlink="http://www.w3.org/1999/xlink" width="400" height="400" viewBox="0, 0, 400,400"><g id="svgg"><path id="path0" d="M108.008 98.047 C 73.503 98.234,72.027 98.272,70.974 98.985 C 67.473 101.358,67.617 107.496,71.225 109.726 C 72.464 110.492,73.104 110.547,80.756 110.547 L 88.958 110.547 91.353 125.293 C 100.937 184.306,106.159 234.961,107.431 281.278 C 107.876 297.492,107.973 298.202,109.976 299.961 C 114.559 303.985,120.703 300.413,120.703 293.726 L 120.703 291.214 137.204 274.710 L 153.704 258.206 174.997 279.473 C 186.708 291.170,196.784 300.925,197.389 301.151 C 201.429 302.662,201.308 302.759,224.808 279.282 L 245.905 258.206 262.375 274.709 L 278.844 291.211 278.975 294.407 C 279.215 300.305,283.477 303.196,288.264 300.709 C 291.549 299.002,291.629 298.626,291.927 283.361 C 292.789 239.206,298.103 187.492,308.471 122.364 L 310.352 110.548 318.595 110.548 C 326.499 110.547,326.892 110.511,328.165 109.665 C 331.878 107.197,331.995 101.675,328.389 99.046 L 327.287 98.242 235.616 98.047 C 185.197 97.939,127.773 97.939,108.008 98.047 M172.214 129.152 C 161.980 139.386,153.439 147.655,153.234 147.529 C 153.029 147.402,144.728 139.032,134.787 128.928 L 116.713 110.559 153.767 110.551 L 190.820 110.544 172.214 129.152 M264.355 129.199 L 245.703 147.851 227.051 129.199 L 208.399 110.547 245.703 110.547 L 283.007 110.547 264.355 129.199 M129.021 172.346 C 120.490 180.879,113.466 187.815,113.411 187.760 C 113.357 187.705,112.605 182.043,111.741 175.178 C 109.674 158.758,106.213 134.799,104.090 122.212 C 103.559 119.068,103.125 116.256,103.125 115.964 C 103.125 115.672,112.441 124.748,123.828 136.133 L 144.531 156.833 129.021 172.346 M295.069 123.817 C 293.263 134.732,289.003 164.419,287.501 176.563 C 286.824 182.041,286.151 186.833,286.006 187.211 C 285.797 187.756,282.549 184.703,270.314 172.464 L 254.886 157.031 275.571 136.343 C 286.947 124.965,296.286 115.693,296.324 115.738 C 296.361 115.783,295.797 119.419,295.069 123.817 M218.164 138.672 L 236.520 157.031 218.164 175.391 L 199.808 193.750 181.349 175.295 L 162.891 156.839 181.151 138.576 C 191.194 128.531,199.500 120.313,199.609 120.313 C 199.719 120.313,208.068 128.574,218.164 138.672 M172.170 221.385 L 153.714 239.844 135.255 221.388 L 116.797 202.933 135.252 184.474 L 153.708 166.016 172.166 184.471 L 190.625 202.927 172.170 221.385 M282.408 203.127 C 282.415 203.235,274.204 211.531,264.160 221.561 L 245.898 239.799 227.344 221.489 L 208.789 203.178 227.344 184.571 L 245.898 165.964 264.146 184.447 C 274.182 194.613,282.400 203.018,282.408 203.127 M218.263 267.479 L 199.808 285.938 181.349 267.482 L 162.891 249.027 181.346 230.568 L 199.802 212.109 218.260 230.565 L 236.719 249.020 218.263 267.479 M132.519 261.038 L 120.508 273.056 120.251 271.587 C 120.110 270.778,119.795 265.459,119.551 259.766 C 119.148 250.330,117.498 226.634,116.982 222.852 C 116.775 221.332,117.154 221.673,130.650 235.154 L 144.531 249.019 132.519 261.038 M281.672 232.087 C 281.234 237.535,280.781 243.223,280.664 244.727 C 280.362 248.638,279.303 269.392,279.300 271.482 L 279.297 273.237 267.187 261.133 L 255.078 249.028 268.635 235.467 C 276.091 228.008,282.254 221.968,282.330 222.044 C 282.406 222.120,282.110 226.639,281.672 232.087 " stroke="none" fill="#e47c2d" fill-rule="evenodd"></path><path id="path1" d="M0.000 200.000 L 0.000 400.000 200.000 400.000 L 400.000 400.000 400.000 200.000 L 400.000 0.000 200.000 0.000 L 0.000 0.000 0.000 200.000 M327.221 98.072 C 331.480 99.681,332.717 105.912,329.404 109.073 C 327.633 110.762,326.596 110.938,318.374 110.938 L 310.627 110.938 310.191 113.440 C 300.171 170.981,293.445 234.038,292.192 282.184 C 291.760 298.795,291.632 299.456,288.588 300.896 C 283.138 303.473,278.546 300.213,278.524 293.752 L 278.516 291.214 262.212 274.907 L 245.908 258.600 224.614 279.854 C 201.629 302.796,202.035 302.453,198.698 301.735 C 196.370 301.234,195.472 300.405,174.611 279.518 L 153.714 258.594 137.209 275.096 L 120.703 291.598 120.703 294.300 C 120.703 300.842,114.549 304.161,109.811 300.174 C 107.699 298.397,107.499 297.098,107.250 283.594 C 106.545 245.270,101.854 195.529,94.115 144.336 C 91.979 130.200,89.368 114.045,88.864 111.838 C 88.671 110.995,88.542 110.979,80.534 110.862 C 72.598 110.745,72.366 110.718,70.960 109.766 C 66.615 106.820,67.233 100.380,72.070 98.212 C 73.599 97.527,325.412 97.388,327.221 98.072 M120.635 114.355 C 122.364 116.235,130.469 124.453,138.647 132.616 L 153.517 147.458 171.778 129.198 L 190.038 110.938 153.766 110.938 L 117.494 110.938 120.635 114.355 M227.442 129.199 L 245.703 147.460 263.964 129.199 L 282.226 110.938 245.703 110.938 L 209.181 110.938 227.442 129.199 M103.516 116.653 C 103.516 116.895,104.210 121.465,105.060 126.808 C 107.523 142.310,110.785 165.343,112.105 176.563 C 112.775 182.256,113.358 187.047,113.401 187.208 C 113.443 187.370,120.377 180.602,128.809 172.168 L 144.140 156.833 123.828 136.523 C 112.656 125.353,103.516 116.412,103.516 116.653 M275.571 136.734 L 255.277 157.031 270.492 172.250 C 278.861 180.621,285.752 187.425,285.807 187.370 C 285.861 187.316,286.536 182.269,287.306 176.155 C 288.852 163.889,293.127 134.121,294.878 123.438 C 295.494 119.678,295.968 116.565,295.931 116.519 C 295.895 116.474,286.732 125.571,275.571 136.734 M181.346 138.771 L 163.281 156.839 181.545 175.099 L 199.808 193.359 217.969 175.195 L 236.130 157.031 217.969 138.867 C 207.980 128.877,199.719 120.703,199.609 120.703 C 199.500 120.703,191.282 128.834,181.346 138.771 M135.448 184.670 L 117.187 202.933 135.451 221.193 L 153.714 239.453 171.974 221.190 L 190.234 202.927 171.971 184.666 L 153.708 166.406 135.448 184.670 M227.539 184.766 L 209.180 203.155 227.472 221.369 L 245.764 239.584 263.898 221.454 C 273.871 211.482,282.031 203.175,282.031 202.994 C 282.031 202.812,273.901 194.499,263.965 184.520 L 245.898 166.377 227.539 184.766 M181.541 230.763 L 163.281 249.027 181.545 267.287 L 199.808 285.547 218.068 267.284 L 236.328 249.020 218.065 230.760 L 199.802 212.500 181.541 230.763 M117.188 222.489 C 117.188 222.717,117.531 226.935,117.951 231.862 C 118.912 243.139,119.388 250.450,119.932 262.305 C 120.168 267.461,120.395 271.903,120.435 272.175 C 120.475 272.447,125.825 267.349,132.324 260.845 L 144.140 249.019 130.664 235.547 C 123.252 228.137,117.188 222.261,117.188 222.489 M268.845 235.647 L 255.468 249.028 267.149 260.703 L 278.829 272.379 279.056 269.490 C 279.180 267.901,279.467 262.734,279.692 258.008 C 280.055 250.399,281.107 235.400,281.962 225.653 C 282.125 223.790,282.250 222.266,282.240 222.266 C 282.230 222.266,276.203 228.287,268.845 235.647 " stroke="none" fill="#fcfbfb" fill-rule="evenodd"></path><path id="path2" d="M171.678 129.395 L 153.320 147.852 171.777 129.494 C 181.929 119.397,190.234 111.091,190.234 111.037 C 190.234 110.762,188.742 112.239,171.678 129.395 M275.389 136.621 L 254.883 157.227 275.488 136.720 C 294.642 117.659,296.269 116.016,295.995 116.016 C 295.940 116.016,286.668 125.288,275.389 136.621 M257.419 135.840 L 245.508 147.852 257.520 135.940 C 264.126 129.388,269.531 123.983,269.531 123.928 C 269.531 123.652,268.489 124.677,257.419 135.840 M128.514 172.559 L 113.086 188.086 128.613 172.658 C 143.045 158.319,144.316 157.031,144.041 157.031 C 143.986 157.031,136.999 164.019,128.514 172.559 M141.599 178.223 L 129.883 190.039 141.699 178.323 C 148.198 171.879,153.516 166.561,153.516 166.506 C 153.516 166.230,152.487 167.241,141.599 178.223 M227.147 184.863 L 208.789 203.320 227.246 184.962 C 237.397 174.866,245.703 166.560,245.703 166.505 C 245.703 166.231,244.210 167.708,227.147 184.863 M178.318 214.941 L 166.602 226.758 178.418 215.042 C 189.399 204.153,190.410 203.125,190.134 203.125 C 190.079 203.125,184.762 208.442,178.318 214.941 M181.142 230.772 L 162.874 249.044 164.542 250.590 L 166.211 252.136 164.744 250.584 L 163.276 249.031 181.539 230.766 C 191.583 220.720,199.714 212.500,199.606 212.500 C 199.499 212.500,191.190 220.722,181.142 230.772 M136.912 275.098 L 120.508 291.602 137.012 275.197 C 146.089 266.175,153.516 258.748,153.516 258.693 C 153.516 258.418,152.160 259.758,136.912 275.098 M224.803 279.395 L 204.102 300.195 224.902 279.494 C 236.343 268.108,245.703 258.747,245.703 258.693 C 245.703 258.418,244.046 260.060,224.803 279.395 M291.909 284.570 C 291.912 285.645,291.987 286.038,292.077 285.444 C 292.167 284.850,292.165 283.971,292.072 283.491 C 291.979 283.010,291.906 283.496,291.909 284.570 " stroke="none" fill="#f4d0b4" fill-rule="evenodd"></path><path id="path3" d="M90.918 97.949 C 100.640 98.007,116.548 98.007,126.270 97.949 C 135.991 97.891,128.037 97.843,108.594 97.843 C 89.150 97.843,81.196 97.891,90.918 97.949 M189.551 97.949 C 214.634 98.005,255.679 98.005,280.762 97.949 C 305.845 97.894,285.322 97.848,235.156 97.848 C 184.990 97.848,164.468 97.894,189.551 97.949 M77.246 110.838 C 79.448 110.908,83.052 110.908,85.254 110.838 C 87.456 110.769,85.654 110.712,81.250 110.712 C 76.846 110.712,75.044 110.769,77.246 110.838 M120.039 110.838 C 121.929 110.910,124.917 110.909,126.679 110.837 C 128.441 110.765,126.895 110.706,123.242 110.707 C 119.590 110.707,118.148 110.766,120.039 110.838 M145.244 110.840 C 153.692 110.899,167.403 110.898,175.713 110.840 C 184.022 110.781,177.109 110.733,160.352 110.733 C 143.594 110.733,136.795 110.781,145.244 110.840 M226.953 129.102 C 237.157 139.307,245.593 147.656,245.700 147.656 C 245.807 147.656,237.635 139.395,227.539 129.297 L 209.183 110.938 245.700 110.938 L 282.218 110.938 275.777 117.480 L 269.336 124.023 276.074 117.387 C 279.780 113.737,282.813 110.705,282.813 110.649 C 282.813 110.593,266.070 110.547,245.607 110.547 L 208.402 110.547 226.953 129.102 M310.162 111.230 C 310.166 111.708,310.260 111.770,310.473 111.434 C 310.693 111.088,312.943 110.923,318.572 110.840 L 326.367 110.725 318.262 110.636 C 310.767 110.554,310.157 110.598,310.162 111.230 M123.633 136.328 C 135.018 147.715,144.421 157.031,144.528 157.031 C 144.636 157.031,135.409 147.715,124.023 136.328 C 112.638 124.941,103.235 115.625,103.128 115.625 C 103.020 115.625,112.248 124.941,123.633 136.328 M181.053 138.770 L 162.695 157.227 181.152 138.869 C 191.304 128.772,199.609 120.466,199.609 120.412 C 199.609 120.137,198.117 121.614,181.053 138.770 M143.945 138.281 C 149.098 143.438,153.402 147.656,153.510 147.656 C 153.617 147.656,149.489 143.438,144.336 138.281 C 139.183 133.125,134.879 128.906,134.772 128.906 C 134.664 128.906,138.792 133.125,143.945 138.281 M217.772 175.488 L 199.414 193.945 217.871 175.587 C 228.022 165.491,236.328 157.185,236.328 157.130 C 236.328 156.856,234.835 158.333,217.772 175.488 M270.313 172.461 C 278.797 180.947,285.826 187.891,285.934 187.891 C 286.041 187.891,279.187 180.947,270.703 172.461 C 262.219 163.975,255.189 157.031,255.082 157.031 C 254.974 157.031,261.828 163.975,270.313 172.461 M171.875 184.570 C 182.078 194.775,190.514 203.125,190.622 203.125 C 190.729 203.125,182.469 194.775,172.266 184.570 C 162.062 174.365,153.626 166.016,153.519 166.016 C 153.411 166.016,161.672 174.365,171.875 184.570 M255.078 175.586 C 260.339 180.850,264.730 185.156,264.838 185.156 C 264.945 185.156,260.729 180.850,255.469 175.586 C 250.208 170.322,245.817 166.016,245.709 166.016 C 245.602 166.016,249.818 170.322,255.078 175.586 M123.238 196.582 L 116.602 203.320 123.340 196.684 C 129.600 190.518,130.255 189.844,129.976 189.844 C 129.920 189.844,126.888 192.876,123.238 196.582 M218.359 212.695 C 223.620 217.959,228.012 222.266,228.119 222.266 C 228.226 222.266,224.010 217.959,218.750 212.695 C 213.490 207.432,209.098 203.125,208.990 203.125 C 208.883 203.125,213.099 207.432,218.359 212.695 M263.866 221.582 L 245.508 240.039 263.965 221.681 C 274.116 211.584,282.422 203.279,282.422 203.224 C 282.422 202.950,280.929 204.426,263.866 221.582 M217.872 230.567 L 236.327 249.025 217.871 267.579 L 199.414 286.132 218.066 267.579 L 236.719 249.027 218.263 230.568 C 208.113 220.416,199.720 212.109,199.612 212.109 C 199.505 212.109,207.722 220.415,217.872 230.567 M116.797 222.135 C 116.797 222.493,116.921 222.662,117.073 222.511 C 117.224 222.359,123.376 228.262,130.744 235.627 L 144.140 249.019 132.129 261.131 L 120.117 273.242 132.324 261.135 L 144.532 249.028 130.764 235.256 C 115.719 220.207,116.797 221.219,116.797 222.135 M159.957 233.301 L 153.320 240.039 160.059 233.403 C 163.765 229.753,166.797 226.721,166.797 226.664 C 166.797 226.386,166.122 227.041,159.957 233.301 M280.169 250.000 C 280.169 250.752,280.249 251.060,280.347 250.684 C 280.446 250.308,280.446 249.692,280.347 249.316 C 280.249 248.940,280.169 249.248,280.169 250.000 M119.231 253.516 C 119.231 254.268,119.312 254.575,119.410 254.199 C 119.508 253.823,119.508 253.208,119.410 252.832 C 119.312 252.456,119.231 252.764,119.231 253.516 M293.059 253.906 C 293.059 254.658,293.140 254.966,293.238 254.590 C 293.336 254.214,293.336 253.599,293.238 253.223 C 293.140 252.847,293.059 253.154,293.059 253.906 M279.778 257.422 C 279.778 258.174,279.859 258.481,279.957 258.105 C 280.055 257.729,280.055 257.114,279.957 256.738 C 279.859 256.362,279.778 256.670,279.778 257.422 M174.219 279.102 C 185.711 290.596,195.202 300.000,195.310 300.000 C 195.417 300.000,186.102 290.596,174.609 279.102 C 163.117 267.607,153.626 258.203,153.518 258.203 C 153.411 258.203,162.726 267.607,174.219 279.102 M261.995 274.609 L 278.483 291.211 278.622 293.359 L 278.762 295.508 278.834 293.358 L 278.906 291.207 262.207 274.608 L 245.508 258.008 261.995 274.609 M119.630 261.133 C 119.634 261.992,119.714 262.298,119.808 261.812 C 119.901 261.326,119.897 260.623,119.800 260.249 C 119.702 259.876,119.625 260.273,119.630 261.133 M106.731 264.844 C 106.731 265.596,106.812 265.903,106.910 265.527 C 107.008 265.151,107.008 264.536,106.910 264.160 C 106.812 263.784,106.731 264.092,106.731 264.844 M279.403 265.234 C 279.403 266.201,279.479 266.597,279.573 266.113 C 279.666 265.630,279.666 264.839,279.573 264.355 C 279.479 263.872,279.403 264.268,279.403 265.234 M292.299 268.945 C 292.302 270.020,292.378 270.413,292.468 269.819 C 292.558 269.225,292.555 268.346,292.462 267.866 C 292.370 267.385,292.296 267.871,292.299 268.945 M120.020 269.727 C 120.025 270.586,120.105 270.892,120.198 270.406 C 120.292 269.920,120.288 269.217,120.190 268.843 C 120.092 268.470,120.016 268.867,120.020 269.727 M107.143 274.414 C 107.146 275.488,107.222 275.881,107.312 275.288 C 107.401 274.694,107.399 273.815,107.306 273.334 C 107.214 272.854,107.140 273.340,107.143 274.414 M291.918 280.664 C 291.920 281.953,291.993 282.433,292.080 281.731 C 292.167 281.029,292.165 279.975,292.076 279.388 C 291.987 278.801,291.916 279.375,291.918 280.664 M107.563 291.797 C 107.563 293.838,107.629 294.673,107.709 293.652 C 107.789 292.632,107.789 290.962,107.709 289.941 C 107.629 288.921,107.563 289.756,107.563 291.797 " stroke="none" fill="#f4bc94" fill-rule="evenodd"></path><path id="path4" d="M118.734 112.598 C 119.691 113.618,120.526 114.453,120.589 114.453 C 120.882 114.453,120.572 114.102,118.848 112.484 L 116.992 110.742 118.734 112.598 M217.773 138.672 C 227.869 148.770,236.218 157.031,236.325 157.031 C 236.432 157.031,228.260 148.770,218.164 138.672 C 208.068 128.574,199.720 120.313,199.612 120.313 C 199.505 120.313,207.677 128.574,217.773 138.672 M181.250 175.195 C 191.239 185.186,199.499 193.359,199.606 193.359 C 199.714 193.359,191.629 185.186,181.641 175.195 C 171.652 165.205,163.392 157.031,163.284 157.031 C 163.177 157.031,171.261 165.205,181.250 175.195 M280.452 201.270 C 281.410 202.290,282.245 203.125,282.308 203.125 C 282.601 203.125,282.291 202.774,280.566 201.156 L 278.711 199.414 280.452 201.270 M135.156 221.289 C 145.145 231.279,153.405 239.453,153.512 239.453 C 153.620 239.453,145.535 231.279,135.547 221.289 C 125.558 211.299,117.298 203.125,117.191 203.125 C 117.083 203.125,125.168 211.299,135.156 221.289 M268.650 235.451 L 255.078 249.028 267.090 260.940 L 279.102 272.852 267.285 260.935 L 255.469 249.019 268.702 235.790 C 277.141 227.354,282.008 222.756,282.138 223.097 C 282.251 223.392,282.323 223.237,282.299 222.754 C 282.275 222.271,282.248 221.875,282.239 221.875 C 282.230 221.875,276.115 227.984,268.650 235.451 M243.945 237.891 C 244.784 238.750,245.559 239.453,245.666 239.453 C 245.774 239.453,245.175 238.750,244.336 237.891 C 243.497 237.031,242.722 236.328,242.615 236.328 C 242.507 236.328,243.106 237.031,243.945 237.891 M182.617 268.750 C 191.854 277.988,199.499 285.547,199.606 285.547 C 199.713 285.547,192.244 277.988,183.008 268.750 C 173.771 259.512,166.126 251.953,166.019 251.953 C 165.912 251.953,173.381 259.512,182.617 268.750 M291.922 288.672 C 291.922 290.068,291.993 290.640,292.079 289.941 C 292.166 289.243,292.166 288.101,292.079 287.402 C 291.993 286.704,291.922 287.275,291.922 288.672 " stroke="none" fill="#f6dcc7" fill-rule="evenodd"></path></g></svg>