<svg id="svg" version="1.1" xmlns="http://www.w3.org/2000/svg" xmlns:xlink="http://www.w3.org/1999/xlink" width="400" height="400" viewBox="0, 0, 400,400"><g id="svgg"><path id="path0" d="M293.700 175.834 L 292.400 176.402 292.400 218.741 C 292.400 247.656,292.265 261.468,291.974 262.303 C 291.188 264.557,288.056 264.868,287.387 262.758 C 287.274 262.403,286.421 261.776,285.491 261.364 C 284.561 260.951,283.260 260.116,282.600 259.508 C 281.940 258.899,280.830 258.212,280.133 257.981 C 279.436 257.749,278.577 257.119,278.224 256.580 C 277.870 256.041,277.267 255.600,276.883 255.600 C 276.499 255.600,275.108 254.792,273.792 253.804 C 272.476 252.817,271.206 252.007,270.970 252.004 C 270.733 252.002,270.130 251.564,269.630 251.032 C 269.130 250.500,268.154 249.842,267.460 249.570 C 266.767 249.298,265.570 248.492,264.800 247.778 C 264.030 247.065,262.817 246.359,262.105 246.210 C 261.393 246.061,260.447 245.477,260.004 244.914 C 259.560 244.350,258.295 243.471,257.192 242.960 C 256.089 242.449,255.086 241.768,254.963 241.448 C 254.840 241.127,253.763 240.403,252.570 239.838 C 251.376 239.273,250.400 238.636,250.400 238.424 C 250.400 238.211,249.570 237.670,248.557 237.222 C 247.543 236.773,246.096 235.865,245.343 235.203 C 244.589 234.541,243.735 234.000,243.444 234.000 C 243.154 234.000,242.450 233.567,241.879 233.039 C 241.309 232.510,240.004 231.658,238.979 231.147 C 237.955 230.635,236.868 229.861,236.564 229.427 C 236.260 228.992,235.243 228.356,234.305 228.011 C 233.359 227.664,232.432 227.005,232.222 226.531 C 232.001 226.033,231.167 225.465,230.222 225.170 C 229.330 224.892,227.970 224.077,227.200 223.359 C 226.430 222.641,225.302 221.932,224.694 221.782 C 224.085 221.632,223.267 221.103,222.875 220.605 C 222.484 220.107,221.361 219.292,220.382 218.794 C 219.402 218.296,218.204 217.464,217.719 216.944 C 217.235 216.425,216.479 216.000,216.040 216.000 C 215.601 216.000,214.751 215.545,214.151 214.989 C 213.551 214.434,212.106 213.433,210.939 212.765 C 209.772 212.097,208.711 211.379,208.581 211.169 C 208.451 210.960,207.683 210.511,206.873 210.173 C 206.063 209.835,204.941 209.056,204.381 208.443 C 203.820 207.829,202.858 207.201,202.243 207.047 C 201.628 206.892,200.496 206.154,199.726 205.407 C 198.956 204.659,197.815 203.935,197.190 203.798 C 196.565 203.661,195.249 202.840,194.266 201.974 C 193.282 201.108,192.272 200.400,192.020 200.400 C 191.769 200.400,191.112 199.948,190.560 199.396 C 190.008 198.844,188.891 198.115,188.078 197.775 C 187.265 197.435,186.150 196.727,185.600 196.200 C 185.050 195.673,183.937 194.966,183.127 194.627 C 182.316 194.289,181.408 193.662,181.109 193.234 C 180.809 192.806,180.091 192.338,179.512 192.192 C 178.934 192.047,177.738 191.310,176.855 190.554 C 175.972 189.798,174.612 188.913,173.832 188.588 C 173.053 188.262,172.125 187.552,171.769 187.009 C 171.381 186.417,170.575 185.919,169.754 185.765 C 169.002 185.624,167.816 184.976,167.119 184.325 C 166.422 183.673,165.175 182.795,164.347 182.373 C 163.520 181.951,162.698 181.357,162.521 181.054 C 162.345 180.750,161.210 180.003,160.000 179.394 C 158.790 178.785,157.578 177.971,157.306 177.584 C 156.760 176.809,153.206 176.301,153.192 176.997 C 152.934 190.225,153.327 313.887,153.628 314.188 C 154.101 314.661,176.168 314.777,177.300 314.313 C 177.961 314.041,178.000 311.605,178.000 271.102 C 178.000 224.187,177.889 226.400,180.239 226.400 C 181.407 226.400,184.020 227.660,184.800 228.600 C 185.101 228.962,186.042 229.613,186.893 230.047 C 187.743 230.481,188.536 231.089,188.655 231.399 C 188.774 231.708,189.508 232.172,190.288 232.429 C 191.067 232.686,192.356 233.478,193.152 234.189 C 193.949 234.900,195.112 235.606,195.738 235.758 C 196.364 235.910,197.354 236.531,197.938 237.137 C 198.522 237.744,199.867 238.671,200.927 239.197 C 201.987 239.723,203.013 240.451,203.208 240.815 C 203.403 241.179,204.362 241.782,205.339 242.155 C 206.352 242.542,207.199 243.152,207.309 243.575 C 207.422 244.005,208.025 244.430,208.752 244.589 C 209.439 244.740,210.724 245.469,211.609 246.208 C 212.494 246.947,213.619 247.677,214.109 247.830 C 214.599 247.983,215.590 248.623,216.311 249.252 C 217.032 249.880,218.292 250.737,219.111 251.155 C 219.930 251.573,220.943 252.294,221.362 252.757 C 221.781 253.221,222.480 253.600,222.915 253.600 C 223.350 253.600,224.309 254.240,225.047 255.022 C 225.785 255.805,227.175 256.713,228.137 257.040 C 229.098 257.368,230.394 258.168,231.017 258.818 C 231.640 259.468,232.380 260.000,232.661 260.000 C 232.942 260.000,233.763 260.516,234.486 261.146 C 235.209 261.777,236.520 262.659,237.400 263.107 C 238.280 263.555,239.436 264.390,239.970 264.961 C 240.503 265.532,241.223 266.001,241.570 266.003 C 242.205 266.006,247.517 269.356,248.995 270.685 C 249.432 271.078,250.441 271.694,251.236 272.054 C 252.032 272.414,253.114 273.158,253.641 273.708 C 254.169 274.258,255.272 274.921,256.093 275.182 C 256.915 275.444,257.945 276.161,258.384 276.777 C 258.825 277.397,259.713 278.003,260.375 278.135 C 261.031 278.266,262.251 278.977,263.084 279.715 C 263.918 280.453,265.176 281.287,265.881 281.569 C 266.585 281.850,267.429 282.491,267.758 282.991 C 268.086 283.492,268.849 284.026,269.453 284.178 C 270.058 284.329,271.193 284.961,271.976 285.580 C 272.759 286.200,274.061 286.983,274.868 287.320 C 275.675 287.657,276.529 288.293,276.765 288.734 C 277.001 289.175,277.819 289.742,278.583 289.994 C 279.347 290.246,280.498 290.945,281.142 291.546 C 281.786 292.147,283.031 292.963,283.910 293.359 C 284.789 293.756,285.700 294.502,285.936 295.018 C 286.215 295.632,286.836 296.046,287.731 296.214 C 288.484 296.355,289.952 297.174,290.993 298.035 C 292.035 298.896,293.131 299.600,293.430 299.600 C 293.728 299.600,294.563 300.107,295.286 300.727 C 296.009 301.346,297.313 302.285,298.185 302.812 C 299.057 303.339,300.092 304.092,300.485 304.485 C 300.878 304.878,301.445 305.200,301.745 305.200 C 302.045 305.200,302.990 305.760,303.845 306.445 C 304.700 307.130,306.345 308.141,307.500 308.692 C 308.655 309.243,309.600 309.850,309.600 310.040 C 309.600 310.231,310.466 310.826,311.525 311.362 C 312.584 311.899,313.696 312.634,313.996 312.995 C 314.936 314.127,316.616 314.824,317.140 314.300 C 317.738 313.702,317.807 177.795,317.210 176.226 L 316.820 175.200 305.910 175.233 C 297.414 175.258,294.712 175.391,293.700 175.834 " stroke="none" fill="#f3f3f3" fill-rule="evenodd"></path><path id="path1" d="M292.090 173.422 C 290.745 174.364,290.756 174.025,290.675 218.600 C 290.618 250.324,290.484 260.460,290.112 261.294 L 289.624 262.388 288.630 261.394 C 288.084 260.847,287.392 260.400,287.093 260.400 C 286.794 260.400,286.021 259.842,285.375 259.159 C 284.729 258.477,283.278 257.507,282.151 257.004 C 281.024 256.501,279.977 255.886,279.823 255.637 C 279.669 255.388,278.669 254.742,277.600 254.200 C 276.530 253.658,275.418 252.878,275.128 252.467 C 274.838 252.056,273.970 251.397,273.200 251.003 C 272.430 250.610,271.291 249.863,270.669 249.344 C 270.047 248.825,269.293 248.400,268.994 248.400 C 268.694 248.400,267.623 247.686,266.615 246.813 C 265.606 245.940,264.084 245.038,263.232 244.809 C 262.379 244.579,261.586 244.141,261.469 243.836 C 261.352 243.530,260.354 242.789,259.251 242.189 C 258.149 241.589,257.148 240.842,257.028 240.529 C 256.908 240.216,255.818 239.522,254.605 238.985 C 253.392 238.449,252.400 237.820,252.400 237.587 C 252.400 237.354,251.515 236.753,250.433 236.252 C 249.351 235.750,247.814 234.769,247.019 234.070 C 246.223 233.372,245.315 232.800,245.000 232.800 C 244.685 232.800,243.837 232.286,243.114 231.659 C 242.391 231.031,241.350 230.282,240.800 229.994 C 240.250 229.706,239.170 228.978,238.400 228.376 C 237.630 227.774,236.550 227.153,236.000 226.996 C 235.450 226.840,234.460 226.212,233.800 225.601 C 233.140 224.990,231.970 224.174,231.200 223.789 C 230.430 223.404,229.209 222.574,228.486 221.945 C 227.763 221.315,226.914 220.800,226.599 220.800 C 226.284 220.800,225.397 220.170,224.627 219.400 C 223.857 218.630,223.024 218.000,222.777 218.000 C 222.530 218.000,221.309 217.291,220.064 216.424 C 218.819 215.557,217.314 214.730,216.721 214.586 C 216.128 214.442,215.360 213.893,215.015 213.367 C 214.670 212.841,213.626 212.028,212.694 211.560 C 211.762 211.092,210.640 210.391,210.200 210.001 C 209.760 209.611,208.950 209.158,208.400 208.994 C 207.850 208.830,206.665 208.023,205.766 207.201 C 204.868 206.379,203.473 205.488,202.666 205.222 C 201.860 204.956,201.200 204.572,201.200 204.370 C 201.200 204.168,200.275 203.556,199.144 203.010 C 198.013 202.465,196.847 201.674,196.553 201.254 C 196.259 200.834,195.322 200.127,194.472 199.684 C 193.622 199.241,192.421 198.411,191.805 197.839 C 191.188 197.268,190.350 196.800,189.943 196.800 C 189.536 196.800,188.512 196.177,187.669 195.415 C 186.826 194.653,185.312 193.677,184.305 193.245 C 183.297 192.813,182.322 192.201,182.137 191.884 C 181.951 191.567,181.170 190.993,180.400 190.609 C 179.630 190.224,178.550 189.489,178.000 188.976 C 177.450 188.462,176.356 187.773,175.568 187.444 C 174.781 187.115,173.891 186.551,173.592 186.190 C 173.293 185.830,172.013 185.012,170.747 184.373 C 169.482 183.735,168.301 182.965,168.123 182.663 C 167.945 182.360,167.119 181.892,166.286 181.621 C 165.453 181.350,164.471 180.670,164.104 180.110 C 163.737 179.549,162.886 178.861,162.214 178.580 C 161.542 178.299,160.508 177.621,159.918 177.074 C 159.327 176.527,157.896 175.764,156.737 175.379 C 155.579 174.994,154.320 174.302,153.940 173.840 L 153.249 173.000 152.324 173.911 L 151.400 174.822 151.299 244.511 L 151.199 314.200 152.161 315.400 L 153.123 316.600 165.329 316.716 L 177.534 316.833 178.567 315.479 L 179.600 314.124 179.600 271.286 C 179.600 226.626,179.573 227.297,181.320 228.570 C 181.804 228.923,183.190 229.883,184.400 230.704 C 185.610 231.526,186.690 232.309,186.800 232.445 C 186.910 232.581,187.806 233.101,188.792 233.601 C 189.777 234.101,191.217 235.007,191.992 235.614 C 192.766 236.222,193.850 236.848,194.400 237.005 C 194.950 237.163,195.885 237.811,196.477 238.446 C 197.070 239.081,197.835 239.600,198.177 239.600 C 198.519 239.600,199.517 240.297,200.395 241.149 C 201.273 242.001,202.527 242.805,203.181 242.936 C 203.836 243.067,204.844 243.705,205.422 244.354 C 206.000 245.002,207.041 245.761,207.736 246.039 C 208.431 246.317,209.588 247.050,210.307 247.667 C 211.026 248.284,212.106 248.908,212.707 249.054 C 213.308 249.199,214.457 249.877,215.261 250.559 C 217.908 252.808,220.256 254.392,221.638 254.861 C 222.387 255.115,223.761 256.016,224.691 256.862 C 225.621 257.708,226.560 258.400,226.777 258.400 C 226.994 258.400,227.763 258.907,228.486 259.527 C 229.209 260.147,230.392 260.892,231.115 261.182 C 231.839 261.472,232.598 262.023,232.803 262.405 C 233.007 262.787,234.019 263.497,235.050 263.981 C 236.081 264.466,237.572 265.368,238.363 265.985 C 239.153 266.602,240.263 267.213,240.828 267.343 C 241.393 267.473,242.484 268.169,243.251 268.890 C 244.018 269.610,245.248 270.560,245.985 271.000 C 249.823 273.293,250.752 273.890,252.040 274.888 C 252.811 275.486,254.150 276.271,255.015 276.632 C 255.880 276.993,256.815 277.615,257.095 278.014 C 257.374 278.413,258.233 278.947,259.004 279.201 C 259.775 279.456,260.600 280.026,260.837 280.469 C 261.074 280.912,262.197 281.686,263.334 282.190 C 264.470 282.694,265.756 283.502,266.192 283.986 C 266.627 284.470,267.543 285.100,268.226 285.385 C 268.909 285.670,269.932 286.368,270.499 286.936 C 271.067 287.503,272.042 288.079,272.666 288.215 C 274.426 288.599,275.565 289.260,275.814 290.044 C 275.939 290.437,276.404 290.874,276.847 291.015 C 277.290 291.156,278.227 291.775,278.928 292.391 C 279.630 293.007,281.006 293.929,281.986 294.440 C 282.967 294.951,284.083 295.683,284.468 296.068 C 284.852 296.452,285.939 297.160,286.883 297.641 C 287.828 298.122,288.812 298.816,289.071 299.184 C 289.330 299.552,290.296 300.102,291.217 300.406 C 292.138 300.710,293.096 301.298,293.346 301.713 C 293.596 302.128,294.610 302.883,295.600 303.391 C 296.590 303.898,297.736 304.686,298.147 305.140 C 298.558 305.595,299.775 306.259,300.851 306.617 C 301.927 306.974,302.992 307.612,303.218 308.034 C 303.444 308.456,304.528 309.257,305.628 309.814 C 306.728 310.371,307.981 311.181,308.414 311.614 C 308.846 312.046,309.355 312.400,309.545 312.400 C 309.735 312.400,310.590 312.958,311.445 313.640 C 315.495 316.871,317.402 317.214,318.363 314.887 C 319.227 312.793,318.767 175.219,317.891 173.882 L 317.182 172.800 305.080 172.800 C 294.781 172.800,292.846 172.893,292.090 173.422 M317.651 174.261 C 318.674 175.494,318.655 313.999,317.632 315.249 L 316.853 316.200 314.926 315.200 C 313.867 314.651,311.830 313.328,310.400 312.262 C 308.970 311.195,306.990 309.899,306.000 309.381 C 305.010 308.863,303.795 307.999,303.300 307.463 C 302.804 306.926,301.904 306.366,301.300 306.218 C 300.695 306.071,299.536 305.421,298.723 304.775 C 297.911 304.129,297.126 303.600,296.978 303.600 C 296.831 303.600,295.632 302.790,294.315 301.800 C 292.998 300.810,291.695 300.000,291.419 300.000 C 291.143 300.000,290.429 299.548,289.832 298.995 C 289.235 298.442,287.994 297.607,287.074 297.140 C 286.153 296.673,284.860 295.854,284.200 295.319 C 283.540 294.785,281.560 293.410,279.800 292.263 C 278.040 291.117,276.079 289.689,275.442 289.089 C 274.804 288.490,273.994 288.000,273.642 287.999 C 272.984 287.998,269.142 285.616,267.000 283.881 C 266.340 283.346,265.040 282.523,264.111 282.052 C 263.182 281.581,261.808 280.656,261.058 279.998 C 260.308 279.339,259.499 278.800,259.261 278.800 C 259.023 278.800,258.237 278.298,257.514 277.684 C 256.791 277.070,255.660 276.335,255.000 276.050 C 254.340 275.765,253.080 274.997,252.200 274.344 C 251.320 273.691,249.180 272.274,247.445 271.196 C 245.710 270.118,243.910 268.880,243.445 268.445 C 242.980 268.010,241.790 267.305,240.800 266.879 C 239.810 266.452,238.657 265.720,238.238 265.252 C 237.819 264.783,237.252 264.400,236.978 264.400 C 236.704 264.400,235.402 263.590,234.085 262.600 C 232.768 261.610,231.531 260.800,231.336 260.800 C 231.142 260.800,230.356 260.286,229.591 259.658 C 228.826 259.030,227.570 258.197,226.800 257.806 C 226.030 257.415,224.950 256.605,224.400 256.007 C 223.850 255.409,222.590 254.580,221.600 254.164 C 220.610 253.748,218.450 252.413,216.800 251.198 C 215.150 249.983,213.170 248.672,212.400 248.285 C 211.046 247.605,209.950 246.890,206.627 244.521 C 205.763 243.905,204.300 242.950,203.377 242.400 C 200.200 240.507,197.798 238.876,196.963 238.045 C 196.503 237.587,195.490 236.946,194.712 236.621 C 193.933 236.296,192.780 235.598,192.148 235.069 C 191.517 234.541,190.280 233.743,189.400 233.296 C 188.520 232.848,186.270 231.385,184.400 230.044 C 178.597 225.884,179.147 221.681,179.164 270.071 C 179.177 311.228,179.088 314.283,177.833 315.539 C 176.178 317.195,154.159 316.644,152.548 314.906 L 151.600 313.883 151.602 245.642 C 151.605 172.199,151.600 172.343,153.798 174.541 C 154.123 174.866,155.278 175.427,156.364 175.788 C 157.450 176.149,158.566 176.718,158.844 177.053 C 159.122 177.388,160.171 178.080,161.175 178.589 C 162.179 179.099,163.496 180.075,164.103 180.758 C 164.710 181.441,165.540 182.000,165.949 182.000 C 166.357 182.000,167.120 182.426,167.645 182.947 C 168.170 183.468,169.511 184.354,170.625 184.916 C 171.739 185.478,172.879 186.213,173.157 186.549 C 173.436 186.885,174.425 187.528,175.355 187.978 C 176.285 188.428,177.415 189.141,177.866 189.561 C 178.318 189.982,179.433 190.707,180.344 191.171 C 181.255 191.636,182.000 192.173,182.000 192.364 C 182.000 192.555,182.781 193.079,183.736 193.528 C 184.691 193.977,185.996 194.782,186.636 195.317 C 187.276 195.853,188.553 196.673,189.473 197.140 C 190.393 197.607,191.260 198.174,191.400 198.400 C 191.540 198.626,192.407 199.188,193.327 199.649 C 194.247 200.109,195.540 200.998,196.200 201.623 C 196.860 202.248,198.075 203.041,198.900 203.385 C 199.725 203.729,200.400 204.186,200.400 204.401 C 200.400 204.616,201.570 205.362,203.000 206.060 C 204.430 206.757,205.600 207.470,205.600 207.644 C 205.600 207.819,207.501 209.082,209.824 210.451 C 212.147 211.821,214.211 213.248,214.412 213.622 C 214.613 213.997,215.535 214.607,216.462 214.978 C 217.388 215.349,218.675 216.097,219.322 216.641 C 219.968 217.185,221.103 217.883,221.844 218.193 C 222.586 218.503,223.674 219.238,224.262 219.826 C 224.851 220.415,225.902 221.134,226.598 221.425 C 227.294 221.716,228.108 222.248,228.407 222.608 C 228.705 222.968,229.782 223.684,230.800 224.200 C 231.818 224.716,232.898 225.436,233.201 225.801 C 233.504 226.167,234.753 226.997,235.976 227.648 C 238.218 228.839,239.632 229.760,242.639 231.987 C 243.541 232.654,244.479 233.200,244.725 233.200 C 244.971 233.200,245.763 233.716,246.486 234.347 C 247.209 234.978,248.732 235.965,249.872 236.540 C 251.011 237.114,252.058 237.771,252.199 237.998 C 252.339 238.225,253.207 238.793,254.127 239.259 C 255.047 239.725,256.476 240.712,257.301 241.453 C 258.127 242.194,259.038 242.800,259.326 242.800 C 259.615 242.800,260.354 243.325,260.969 243.968 C 261.584 244.610,262.563 245.254,263.144 245.399 C 263.725 245.544,265.117 246.368,266.237 247.231 C 267.357 248.094,268.420 248.800,268.599 248.800 C 268.778 248.800,269.481 249.223,270.162 249.741 C 270.843 250.258,271.940 250.960,272.600 251.300 C 273.260 251.641,274.330 252.411,274.978 253.013 C 275.625 253.614,276.720 254.342,277.409 254.630 C 278.099 254.918,278.917 255.459,279.226 255.832 C 279.536 256.204,280.511 256.820,281.394 257.200 C 282.277 257.579,283.782 258.545,284.738 259.345 C 285.694 260.145,286.713 260.800,287.002 260.800 C 287.292 260.800,287.987 261.345,288.548 262.011 L 289.567 263.222 290.284 262.129 C 290.958 261.100,291.012 258.488,291.209 218.018 C 291.324 194.358,291.459 174.968,291.509 174.929 C 291.559 174.889,291.883 174.574,292.229 174.229 C 293.203 173.254,316.840 173.284,317.651 174.261 M199.100 398.300 C 0.333 398.401,0.000 398.402,0.000 399.200 C 0.000 399.999,0.300 400.000,200.000 400.000 L 400.000 400.000 400.000 399.000 C 400.000 398.200,399.820 398.020,399.100 398.100 C 398.605 398.154,308.605 398.245,199.100 398.300 " stroke="none" fill="#545454" fill-rule="evenodd"></path><path id="path2" d="M0.000 198.400 L 0.000 396.800 198.144 396.800 C 307.123 396.800,397.123 396.686,398.144 396.546 L 400.000 396.291 400.000 198.146 L 400.000 0.000 200.000 0.000 L 0.000 0.000 0.000 198.400 M155.046 173.814 C 155.438 174.412,156.073 174.800,156.659 174.800 C 158.174 174.800,160.173 175.793,160.905 176.911 C 161.272 177.472,162.122 178.051,162.793 178.199 C 163.581 178.371,164.228 178.881,164.617 179.633 C 164.949 180.275,165.485 180.800,165.808 180.800 C 166.923 180.800,169.608 182.194,169.828 182.887 C 169.949 183.269,170.776 183.800,171.664 184.067 C 172.553 184.333,173.544 184.953,173.866 185.444 C 174.188 185.936,175.326 186.653,176.394 187.037 C 177.463 187.421,178.543 188.120,178.794 188.590 C 179.046 189.059,180.005 189.794,180.926 190.222 C 181.847 190.650,182.778 191.405,182.995 191.900 C 183.234 192.446,183.740 192.800,184.281 192.800 C 185.733 192.800,187.773 193.978,188.492 195.232 C 189.009 196.133,189.450 196.400,190.420 196.400 C 191.317 196.400,192.198 196.858,193.495 198.000 C 194.495 198.880,195.548 199.600,195.836 199.600 C 196.124 199.600,196.823 200.208,197.391 200.952 C 197.973 201.716,198.915 202.403,199.555 202.531 C 200.178 202.656,201.220 203.205,201.871 203.753 C 202.521 204.300,203.761 205.032,204.627 205.379 C 205.510 205.734,206.484 206.509,206.847 207.146 C 207.328 207.989,207.902 208.346,209.080 208.534 C 209.952 208.674,211.010 209.170,211.433 209.636 C 211.855 210.103,212.871 210.828,213.692 211.246 C 214.512 211.665,215.462 212.546,215.802 213.204 C 216.291 214.150,216.690 214.403,217.710 214.414 C 219.280 214.431,220.465 215.058,221.554 216.448 C 222.006 217.024,222.923 217.605,223.592 217.738 C 224.340 217.888,224.977 218.351,225.245 218.940 C 225.514 219.528,226.260 220.071,227.180 220.347 C 228.004 220.594,229.168 221.249,229.766 221.803 C 230.363 222.357,231.555 223.169,232.413 223.607 C 233.271 224.044,234.162 224.756,234.393 225.188 C 234.625 225.620,235.548 226.171,236.446 226.412 C 237.344 226.654,238.697 227.470,239.453 228.226 C 240.208 228.982,241.175 229.600,241.601 229.600 C 242.027 229.600,242.775 230.140,243.263 230.800 C 243.751 231.460,244.394 232.000,244.691 232.000 C 245.711 232.000,248.278 233.554,248.948 234.577 C 249.368 235.218,249.988 235.600,250.608 235.600 C 251.161 235.600,252.260 236.186,253.099 236.928 C 253.924 237.659,255.199 238.496,255.931 238.790 C 256.663 239.083,257.547 239.758,257.896 240.291 C 258.245 240.823,259.226 241.537,260.077 241.877 C 260.927 242.218,261.782 242.793,261.977 243.157 C 262.171 243.520,263.257 244.150,264.389 244.557 C 265.592 244.990,266.792 245.762,267.273 246.414 C 267.783 247.103,268.631 247.629,269.494 247.791 C 270.261 247.935,271.329 248.492,271.865 249.029 C 272.402 249.566,273.516 250.349,274.342 250.770 C 275.167 251.191,276.044 251.978,276.290 252.517 C 276.598 253.194,277.190 253.584,278.192 253.772 C 278.993 253.922,280.312 254.640,281.124 255.366 C 281.936 256.093,283.256 256.900,284.058 257.161 C 284.903 257.435,285.600 257.958,285.717 258.404 C 285.830 258.837,286.636 259.461,287.559 259.830 C 288.462 260.191,289.200 260.677,289.200 260.910 C 289.200 261.143,289.335 261.198,289.500 261.033 C 289.665 260.869,289.890 241.203,290.000 217.332 L 290.200 173.930 291.322 172.965 L 292.445 172.000 304.960 172.000 C 317.176 172.000,317.494 172.020,318.238 172.842 C 319.425 174.154,319.638 314.194,318.457 316.400 C 317.553 318.087,316.626 318.351,315.459 317.255 C 314.980 316.806,313.923 316.160,313.109 315.820 C 312.295 315.480,311.444 314.855,311.217 314.433 C 310.991 314.010,310.197 313.463,309.451 313.217 C 308.706 312.971,307.760 312.391,307.348 311.927 C 306.937 311.463,305.835 310.742,304.901 310.324 C 303.914 309.882,302.956 309.088,302.615 308.429 C 302.141 307.512,301.666 307.241,300.135 307.011 C 298.689 306.794,297.942 306.400,296.973 305.343 C 296.276 304.582,295.187 303.823,294.553 303.657 C 293.919 303.491,293.222 302.961,293.005 302.478 C 292.788 301.995,292.461 301.600,292.279 301.600 C 291.332 301.600,287.996 299.817,287.802 299.207 C 287.679 298.818,286.771 298.192,285.784 297.815 C 284.798 297.439,283.821 296.814,283.614 296.427 C 283.407 296.040,282.421 295.411,281.423 295.030 C 280.425 294.649,279.249 293.879,278.809 293.320 C 278.369 292.761,277.422 292.010,276.704 291.652 C 275.987 291.293,275.224 290.600,275.010 290.111 C 274.722 289.454,274.148 289.153,272.810 288.957 C 271.408 288.751,270.676 288.343,269.561 287.146 C 268.722 286.243,267.751 285.600,267.231 285.600 C 266.740 285.600,265.837 285.098,265.224 284.485 C 264.611 283.872,263.347 283.027,262.415 282.607 C 261.478 282.184,260.567 281.440,260.378 280.941 C 260.155 280.355,259.493 279.894,258.481 279.622 C 257.626 279.392,256.595 278.836,256.188 278.387 C 255.782 277.938,254.659 277.221,253.693 276.794 C 252.727 276.367,251.429 275.473,250.808 274.809 C 250.187 274.144,249.318 273.600,248.877 273.600 C 248.436 273.600,247.359 273.015,246.484 272.300 C 245.609 271.585,244.314 270.683,243.608 270.297 C 242.901 269.910,242.230 269.235,242.115 268.797 C 242.000 268.358,241.613 267.992,241.253 267.982 C 239.922 267.947,237.508 266.841,236.449 265.783 C 235.849 265.182,234.738 264.491,233.979 264.246 C 233.221 264.001,232.430 263.413,232.222 262.940 C 232.000 262.435,231.198 261.886,230.275 261.610 C 229.412 261.351,228.262 260.658,227.719 260.070 C 227.176 259.481,226.164 258.729,225.470 258.398 C 224.777 258.068,223.972 257.303,223.683 256.698 C 223.318 255.938,222.852 255.600,222.165 255.600 C 220.751 255.600,218.433 254.552,218.137 253.779 C 217.998 253.418,217.100 252.786,216.142 252.375 C 214.920 251.851,214.400 251.391,214.400 250.832 C 214.400 250.227,214.040 249.971,212.900 249.765 C 210.813 249.387,209.302 248.553,209.004 247.613 C 208.847 247.117,208.160 246.658,207.175 246.393 C 206.288 246.154,205.324 245.551,204.973 245.015 C 204.630 244.491,203.443 243.736,202.337 243.338 C 200.985 242.852,200.142 242.262,199.769 241.541 C 199.426 240.877,198.747 240.364,197.993 240.199 C 197.322 240.051,196.489 239.498,196.143 238.969 C 195.781 238.416,194.824 237.822,193.893 237.571 C 193.002 237.331,191.736 236.597,191.079 235.940 C 190.421 235.283,188.937 234.391,187.779 233.958 C 186.621 233.525,185.571 232.902,185.446 232.575 C 185.320 232.247,184.415 231.635,183.435 231.215 C 182.380 230.763,181.403 229.991,181.042 229.325 C 180.279 227.918,180.364 222.390,180.399 271.308 C 180.438 324.365,182.180 318.143,167.239 318.325 C 154.562 318.479,152.958 318.284,151.714 316.437 L 150.800 315.082 150.800 244.523 L 150.800 173.964 151.797 172.966 C 152.938 171.826,153.909 172.079,155.046 173.814 " stroke="none" fill="#04040c" fill-rule="evenodd"></path><path id="path3" d="M292.229 174.229 C 291.883 174.574,291.559 174.889,291.509 174.929 C 291.459 174.968,291.324 194.358,291.209 218.018 C 291.012 258.488,290.958 261.100,290.284 262.129 L 289.567 263.222 288.548 262.011 C 287.987 261.345,287.292 260.800,287.002 260.800 C 286.713 260.800,285.694 260.145,284.738 259.345 C 283.782 258.545,282.277 257.579,281.394 257.200 C 280.511 256.820,279.536 256.204,279.226 255.832 C 278.917 255.459,278.099 254.918,277.409 254.630 C 276.720 254.342,275.625 253.614,274.978 253.013 C 274.330 252.411,273.260 251.641,272.600 251.300 C 271.940 250.960,270.843 250.258,270.162 249.741 C 269.481 249.223,268.778 248.800,268.599 248.800 C 268.420 248.800,267.357 248.094,266.237 247.231 C 265.117 246.368,263.725 245.544,263.144 245.399 C 262.563 245.254,261.584 244.610,260.969 243.968 C 260.354 243.325,259.615 242.800,259.326 242.800 C 259.038 242.800,258.127 242.194,257.301 241.453 C 256.476 240.712,255.047 239.725,254.127 239.259 C 253.207 238.793,252.339 238.225,252.199 237.998 C 252.058 237.771,251.011 237.114,249.872 236.540 C 248.732 235.965,247.209 234.978,246.486 234.347 C 245.763 233.716,244.971 233.200,244.725 233.200 C 244.479 233.200,243.541 232.654,242.639 231.987 C 239.632 229.760,238.218 228.839,235.976 227.648 C 234.753 226.997,233.504 226.167,233.201 225.801 C 232.898 225.436,231.818 224.716,230.800 224.200 C 229.782 223.684,228.705 222.968,228.407 222.608 C 228.108 222.248,227.294 221.716,226.598 221.425 C 225.902 221.134,224.851 220.415,224.262 219.826 C 223.674 219.238,222.586 218.503,221.844 218.193 C 221.103 217.883,219.968 217.185,219.322 216.641 C 218.675 216.097,217.388 215.349,216.462 214.978 C 215.535 214.607,214.613 213.997,214.412 213.622 C 214.211 213.248,212.147 211.821,209.824 210.451 C 207.501 209.082,205.600 207.819,205.600 207.644 C 205.600 207.470,204.430 206.757,203.000 206.060 C 201.570 205.362,200.400 204.616,200.400 204.401 C 200.400 204.186,199.725 203.729,198.900 203.385 C 198.075 203.041,196.860 202.248,196.200 201.623 C 195.540 200.998,194.247 200.109,193.327 199.649 C 192.407 199.188,191.540 198.626,191.400 198.400 C 191.260 198.174,190.393 197.607,189.473 197.140 C 188.553 196.673,187.276 195.853,186.636 195.317 C 185.996 194.782,184.691 193.977,183.736 193.528 C 182.781 193.079,182.000 192.555,182.000 192.364 C 182.000 192.173,181.255 191.636,180.344 191.171 C 179.433 190.707,178.318 189.982,177.866 189.561 C 177.415 189.141,176.285 188.428,175.355 187.978 C 174.425 187.528,173.436 186.885,173.157 186.549 C 172.879 186.213,171.739 185.478,170.625 184.916 C 169.511 184.354,168.170 183.468,167.645 182.947 C 167.120 182.426,166.357 182.000,165.949 182.000 C 165.540 182.000,164.710 181.441,164.103 180.758 C 163.496 180.075,162.179 179.099,161.175 178.589 C 160.171 178.080,159.122 177.388,158.844 177.053 C 158.566 176.718,157.450 176.149,156.364 175.788 C 155.278 175.427,154.123 174.866,153.798 174.541 C 151.600 172.343,151.605 172.199,151.602 245.642 L 151.600 313.883 152.548 314.906 C 154.159 316.644,176.178 317.195,177.833 315.539 C 179.088 314.283,179.177 311.228,179.164 270.071 C 179.147 221.681,178.597 225.884,184.400 230.044 C 186.270 231.385,188.520 232.848,189.400 233.296 C 190.280 233.743,191.517 234.541,192.148 235.069 C 192.780 235.598,193.933 236.296,194.712 236.621 C 195.490 236.946,196.503 237.587,196.963 238.045 C 197.798 238.876,200.200 240.507,203.377 242.400 C 204.300 242.950,205.763 243.905,206.627 244.521 C 209.950 246.890,211.046 247.605,212.400 248.285 C 213.170 248.672,215.150 249.983,216.800 251.198 C 218.450 252.413,220.610 253.748,221.600 254.164 C 222.590 254.580,223.850 255.409,224.400 256.007 C 224.950 256.605,226.030 257.415,226.800 257.806 C 227.570 258.197,228.826 259.030,229.591 259.658 C 230.356 260.286,231.142 260.800,231.336 260.800 C 231.531 260.800,232.768 261.610,234.085 262.600 C 235.402 263.590,236.704 264.400,236.978 264.400 C 237.252 264.400,237.819 264.783,238.238 265.252 C 238.657 265.720,239.810 266.452,240.800 266.879 C 241.790 267.305,242.980 268.010,243.445 268.445 C 243.910 268.880,245.710 270.118,247.445 271.196 C 249.180 272.274,251.320 273.691,252.200 274.344 C 253.080 274.997,254.340 275.765,255.000 276.050 C 255.660 276.335,256.791 277.070,257.514 277.684 C 258.237 278.298,259.023 278.800,259.261 278.800 C 259.499 278.800,260.308 279.339,261.058 279.998 C 261.808 280.656,263.182 281.581,264.111 282.052 C 265.040 282.523,266.340 283.346,267.000 283.881 C 269.142 285.616,272.984 287.998,273.642 287.999 C 273.994 288.000,274.804 288.490,275.442 289.089 C 276.079 289.689,278.040 291.117,279.800 292.263 C 281.560 293.410,283.540 294.785,284.200 295.319 C 284.860 295.854,286.153 296.673,287.074 297.140 C 287.994 297.607,289.235 298.442,289.832 298.995 C 290.429 299.548,291.143 300.000,291.419 300.000 C 291.695 300.000,292.998 300.810,294.315 301.800 C 295.632 302.790,296.831 303.600,296.978 303.600 C 297.126 303.600,297.911 304.129,298.723 304.775 C 299.536 305.421,300.695 306.071,301.300 306.218 C 301.904 306.366,302.804 306.926,303.300 307.463 C 303.795 307.999,305.010 308.863,306.000 309.381 C 306.990 309.899,308.970 311.195,310.400 312.262 C 311.830 313.328,313.867 314.651,314.926 315.200 L 316.853 316.200 317.632 315.249 C 318.655 313.999,318.674 175.494,317.651 174.261 C 316.840 173.284,293.203 173.254,292.229 174.229 M317.210 176.226 C 317.807 177.795,317.738 313.702,317.140 314.300 C 316.616 314.824,314.936 314.127,313.996 312.995 C 313.696 312.634,312.584 311.899,311.525 311.362 C 310.466 310.826,309.600 310.231,309.600 310.040 C 309.600 309.850,308.655 309.243,307.500 308.692 C 306.345 308.141,304.700 307.130,303.845 306.445 C 302.990 305.760,302.045 305.200,301.745 305.200 C 301.445 305.200,300.878 304.878,300.485 304.485 C 300.092 304.092,299.057 303.339,298.185 302.812 C 297.313 302.285,296.009 301.346,295.286 300.727 C 294.563 300.107,293.728 299.600,293.430 299.600 C 293.131 299.600,292.035 298.896,290.993 298.035 C 289.952 297.174,288.484 296.355,287.731 296.214 C 286.836 296.046,286.215 295.632,285.936 295.018 C 285.700 294.502,284.789 293.756,283.910 293.359 C 283.031 292.963,281.786 292.147,281.142 291.546 C 280.498 290.945,279.347 290.246,278.583 289.994 C 277.819 289.742,277.001 289.175,276.765 288.734 C 276.529 288.293,275.675 287.657,274.868 287.320 C 274.061 286.983,272.759 286.200,271.976 285.580 C 271.193 284.961,270.058 284.329,269.453 284.178 C 268.849 284.026,268.086 283.492,267.758 282.991 C 267.429 282.491,266.585 281.850,265.881 281.569 C 265.176 281.287,263.918 280.453,263.084 279.715 C 262.251 278.977,261.031 278.266,260.375 278.135 C 259.713 278.003,258.825 277.397,258.384 276.777 C 257.945 276.161,256.915 275.444,256.093 275.182 C 255.272 274.921,254.169 274.258,253.641 273.708 C 253.114 273.158,252.032 272.414,251.236 272.054 C 250.441 271.694,249.432 271.078,248.995 270.685 C 247.517 269.356,242.205 266.006,241.570 266.003 C 241.223 266.001,240.503 265.532,239.970 264.961 C 239.436 264.390,238.280 263.555,237.400 263.107 C 236.520 262.659,235.209 261.777,234.486 261.146 C 233.763 260.516,232.942 260.000,232.661 260.000 C 232.380 260.000,231.640 259.468,231.017 258.818 C 230.394 258.168,229.098 257.368,228.137 257.040 C 227.175 256.713,225.785 255.805,225.047 255.022 C 224.309 254.240,223.350 253.600,222.915 253.600 C 222.480 253.600,221.781 253.221,221.362 252.757 C 220.943 252.294,219.930 251.573,219.111 251.155 C 218.292 250.737,217.032 249.880,216.311 249.252 C 215.590 248.623,214.599 247.983,214.109 247.830 C 213.619 247.677,212.494 246.947,211.609 246.208 C 210.724 245.469,209.439 244.740,208.752 244.589 C 208.025 244.430,207.422 244.005,207.309 243.575 C 207.199 243.152,206.352 242.542,205.339 242.155 C 204.362 241.782,203.403 241.179,203.208 240.815 C 203.013 240.451,201.987 239.723,200.927 239.197 C 199.867 238.671,198.522 237.744,197.938 237.137 C 197.354 236.531,196.364 235.910,195.738 235.758 C 195.112 235.606,193.949 234.900,193.152 234.189 C 192.356 233.478,191.067 232.686,190.288 232.429 C 189.508 232.172,188.774 231.708,188.655 231.399 C 188.536 231.089,187.743 230.481,186.893 230.047 C 186.042 229.613,185.101 228.962,184.800 228.600 C 184.020 227.660,181.407 226.400,180.239 226.400 C 177.889 226.400,178.000 224.187,178.000 271.102 C 178.000 311.605,177.961 314.041,177.300 314.313 C 176.168 314.777,154.101 314.661,153.628 314.188 C 153.327 313.887,152.934 190.225,153.192 176.997 C 153.206 176.301,156.760 176.809,157.306 177.584 C 157.578 177.971,158.790 178.785,160.000 179.394 C 161.210 180.003,162.345 180.750,162.521 181.054 C 162.698 181.357,163.520 181.951,164.347 182.373 C 165.175 182.795,166.422 183.673,167.119 184.325 C 167.816 184.976,169.002 185.624,169.754 185.765 C 170.575 185.919,171.381 186.417,171.769 187.009 C 172.125 187.552,173.053 188.262,173.832 188.588 C 174.612 188.913,175.972 189.798,176.855 190.554 C 177.738 191.310,178.934 192.047,179.512 192.192 C 180.091 192.338,180.809 192.806,181.109 193.234 C 181.408 193.662,182.316 194.289,183.127 194.627 C 183.937 194.966,185.050 195.673,185.600 196.200 C 186.150 196.727,187.265 197.435,188.078 197.775 C 188.891 198.115,190.008 198.844,190.560 199.396 C 191.112 199.948,191.769 200.400,192.020 200.400 C 192.272 200.400,193.282 201.108,194.266 201.974 C 195.249 202.840,196.565 203.661,197.190 203.798 C 197.815 203.935,198.956 204.659,199.726 205.407 C 200.496 206.154,201.628 206.892,202.243 207.047 C 202.858 207.201,203.820 207.829,204.381 208.443 C 204.941 209.056,206.063 209.835,206.873 210.173 C 207.683 210.511,208.451 210.960,208.581 211.169 C 208.711 211.379,209.772 212.097,210.939 212.765 C 212.106 213.433,213.551 214.434,214.151 214.989 C 214.751 215.545,215.601 216.000,216.040 216.000 C 216.479 216.000,217.235 216.425,217.719 216.944 C 218.204 217.464,219.402 218.296,220.382 218.794 C 221.361 219.292,222.484 220.107,222.875 220.605 C 223.267 221.103,224.085 221.632,224.694 221.782 C 225.302 221.932,226.430 222.641,227.200 223.359 C 227.970 224.077,229.330 224.892,230.222 225.170 C 231.167 225.465,232.001 226.033,232.222 226.531 C 232.432 227.005,233.359 227.664,234.305 228.011 C 235.243 228.356,236.260 228.992,236.564 229.427 C 236.868 229.861,237.955 230.635,238.979 231.147 C 240.004 231.658,241.309 232.510,241.879 233.039 C 242.450 233.567,243.154 234.000,243.444 234.000 C 243.735 234.000,244.589 234.541,245.343 235.203 C 246.096 235.865,247.543 236.773,248.557 237.222 C 249.570 237.670,250.400 238.211,250.400 238.424 C 250.400 238.636,251.376 239.273,252.570 239.838 C 253.763 240.403,254.840 241.127,254.963 241.448 C 255.086 241.768,256.089 242.449,257.192 242.960 C 258.295 243.471,259.560 244.350,260.004 244.914 C 260.447 245.477,261.393 246.061,262.105 246.210 C 262.817 246.359,264.030 247.065,264.800 247.778 C 265.570 248.492,266.767 249.298,267.460 249.570 C 268.154 249.842,269.130 250.500,269.630 251.032 C 270.130 251.564,270.733 252.002,270.970 252.004 C 271.206 252.007,272.476 252.817,273.792 253.804 C 275.108 254.792,276.499 255.600,276.883 255.600 C 277.267 255.600,277.870 256.041,278.224 256.580 C 278.577 257.119,279.436 257.749,280.133 257.981 C 280.830 258.212,281.940 258.899,282.600 259.508 C 283.260 260.116,284.561 260.951,285.491 261.364 C 286.421 261.776,287.274 262.403,287.387 262.758 C 288.056 264.868,291.188 264.557,291.974 262.303 C 292.265 261.468,292.400 247.656,292.400 218.741 L 292.400 176.402 293.700 175.834 C 294.712 175.391,297.414 175.258,305.910 175.233 L 316.820 175.200 317.210 176.226 " stroke="none" fill="#8c8c8c" fill-rule="evenodd"></path><path id="path4" d="M151.797 172.966 L 150.800 173.964 150.800 244.523 L 150.800 315.082 151.714 316.437 C 152.958 318.284,154.562 318.479,167.239 318.325 C 182.180 318.143,180.438 324.365,180.399 271.308 C 180.364 222.390,180.279 227.918,181.042 229.325 C 181.403 229.991,182.380 230.763,183.435 231.215 C 184.415 231.635,185.320 232.247,185.446 232.575 C 185.571 232.902,186.621 233.525,187.779 233.958 C 188.937 234.391,190.421 235.283,191.079 235.940 C 191.736 236.597,193.002 237.331,193.893 237.571 C 194.824 237.822,195.781 238.416,196.143 238.969 C 196.489 239.498,197.322 240.051,197.993 240.199 C 198.747 240.364,199.426 240.877,199.769 241.541 C 200.142 242.262,200.985 242.852,202.337 243.338 C 203.443 243.736,204.630 244.491,204.973 245.015 C 205.324 245.551,206.288 246.154,207.175 246.393 C 208.160 246.658,208.847 247.117,209.004 247.613 C 209.302 248.553,210.813 249.387,212.900 249.765 C 214.040 249.971,214.400 250.227,214.400 250.832 C 214.400 251.391,214.920 251.851,216.142 252.375 C 217.100 252.786,217.998 253.418,218.137 253.779 C 218.433 254.552,220.751 255.600,222.165 255.600 C 222.852 255.600,223.318 255.938,223.683 256.698 C 223.972 257.303,224.777 258.068,225.470 258.398 C 226.164 258.729,227.176 259.481,227.719 260.070 C 228.262 260.658,229.412 261.351,230.275 261.610 C 231.198 261.886,232.000 262.435,232.222 262.940 C 232.430 263.413,233.221 264.001,233.979 264.246 C 234.738 264.491,235.849 265.182,236.449 265.783 C 237.508 266.841,239.922 267.947,241.253 267.982 C 241.613 267.992,242.000 268.358,242.115 268.797 C 242.230 269.235,242.901 269.910,243.608 270.297 C 244.314 270.683,245.609 271.585,246.484 272.300 C 247.359 273.015,248.436 273.600,248.877 273.600 C 249.318 273.600,250.187 274.144,250.808 274.809 C 251.429 275.473,252.727 276.367,253.693 276.794 C 254.659 277.221,255.782 277.938,256.188 278.387 C 256.595 278.836,257.626 279.392,258.481 279.622 C 259.493 279.894,260.155 280.355,260.378 280.941 C 260.567 281.440,261.478 282.184,262.415 282.607 C 263.347 283.027,264.611 283.872,265.224 284.485 C 265.837 285.098,266.740 285.600,267.231 285.600 C 267.751 285.600,268.722 286.243,269.561 287.146 C 270.676 288.343,271.408 288.751,272.810 288.957 C 274.148 289.153,274.722 289.454,275.010 290.111 C 275.224 290.600,275.987 291.293,276.704 291.652 C 277.422 292.010,278.369 292.761,278.809 293.320 C 279.249 293.879,280.425 294.649,281.423 295.030 C 282.421 295.411,283.407 296.040,283.614 296.427 C 283.821 296.814,284.798 297.439,285.784 297.815 C 286.771 298.192,287.679 298.818,287.802 299.207 C 287.996 299.817,291.332 301.600,292.279 301.600 C 292.461 301.600,292.788 301.995,293.005 302.478 C 293.222 302.961,293.919 303.491,294.553 303.657 C 295.187 303.823,296.276 304.582,296.973 305.343 C 297.942 306.400,298.689 306.794,300.135 307.011 C 301.666 307.241,302.141 307.512,302.615 308.429 C 302.956 309.088,303.914 309.882,304.901 310.324 C 305.835 310.742,306.937 311.463,307.348 311.927 C 307.760 312.391,308.706 312.971,309.451 313.217 C 310.197 313.463,310.991 314.010,311.217 314.433 C 311.444 314.855,312.295 315.480,313.109 315.820 C 313.923 316.160,314.980 316.806,315.459 317.255 C 316.626 318.351,317.553 318.087,318.457 316.400 C 319.638 314.194,319.425 174.154,318.238 172.842 C 317.494 172.020,317.176 172.000,304.960 172.000 L 292.445 172.000 291.322 172.965 L 290.200 173.930 290.000 217.332 C 289.890 241.203,289.665 260.869,289.500 261.033 C 289.335 261.198,289.200 261.143,289.200 260.910 C 289.200 260.677,288.462 260.191,287.559 259.830 C 286.636 259.461,285.830 258.837,285.717 258.404 C 285.600 257.958,284.903 257.435,284.058 257.161 C 283.256 256.900,281.936 256.093,281.124 255.366 C 280.312 254.640,278.993 253.922,278.192 253.772 C 277.190 253.584,276.598 253.194,276.290 252.517 C 276.044 251.978,275.167 251.191,274.342 250.770 C 273.516 250.349,272.402 249.566,271.865 249.029 C 271.329 248.492,270.261 247.935,269.494 247.791 C 268.631 247.629,267.783 247.103,267.273 246.414 C 266.792 245.762,265.592 244.990,264.389 244.557 C 263.257 244.150,262.171 243.520,261.977 243.157 C 261.782 242.793,260.927 242.218,260.077 241.877 C 259.226 241.537,258.245 240.823,257.896 240.291 C 257.547 239.758,256.663 239.083,255.931 238.790 C 255.199 238.496,253.924 237.659,253.099 236.928 C 252.260 236.186,251.161 235.600,250.608 235.600 C 249.988 235.600,249.368 235.218,248.948 234.577 C 248.278 233.554,245.711 232.000,244.691 232.000 C 244.394 232.000,243.751 231.460,243.263 230.800 C 242.775 230.140,242.027 229.600,241.601 229.600 C 241.175 229.600,240.208 228.982,239.453 228.226 C 238.697 227.470,237.344 226.654,236.446 226.412 C 235.548 226.171,234.625 225.620,234.393 225.188 C 234.162 224.756,233.271 224.044,232.413 223.607 C 231.555 223.169,230.363 222.357,229.766 221.803 C 229.168 221.249,228.004 220.594,227.180 220.347 C 226.260 220.071,225.514 219.528,225.245 218.940 C 224.977 218.351,224.340 217.888,223.592 217.738 C 222.923 217.605,222.006 217.024,221.554 216.448 C 220.473 215.068,219.272 214.426,217.800 214.440 C 216.723 214.450,216.688 214.486,217.461 214.798 C 217.935 214.989,219.216 215.788,220.309 216.573 C 221.402 217.358,222.505 218.000,222.761 218.000 C 223.017 218.000,223.857 218.630,224.627 219.400 C 225.397 220.170,226.284 220.800,226.599 220.800 C 226.914 220.800,227.763 221.315,228.486 221.945 C 229.209 222.574,230.430 223.404,231.200 223.789 C 231.970 224.174,233.140 224.990,233.800 225.601 C 234.460 226.212,235.450 226.840,236.000 226.996 C 236.550 227.153,237.630 227.774,238.400 228.376 C 239.170 228.978,240.250 229.706,240.800 229.994 C 241.350 230.282,242.391 231.031,243.114 231.659 C 243.837 232.286,244.685 232.800,245.000 232.800 C 245.315 232.800,246.223 233.372,247.019 234.070 C 247.814 234.769,249.351 235.750,250.433 236.252 C 251.515 236.753,252.400 237.354,252.400 237.587 C 252.400 237.820,253.392 238.449,254.605 238.985 C 255.818 239.522,256.908 240.216,257.028 240.529 C 257.148 240.842,258.149 241.589,259.251 242.189 C 260.354 242.789,261.352 243.530,261.469 243.836 C 261.586 244.141,262.379 244.579,263.232 244.809 C 264.084 245.038,265.606 245.940,266.615 246.813 C 267.623 247.686,268.694 248.400,268.994 248.400 C 269.293 248.400,270.047 248.825,270.669 249.344 C 271.291 249.863,272.430 250.610,273.200 251.003 C 273.970 251.397,274.838 252.056,275.128 252.467 C 275.418 252.878,276.530 253.658,277.600 254.200 C 278.669 254.742,279.669 255.388,279.823 255.637 C 279.977 255.886,281.024 256.501,282.151 257.004 C 283.278 257.507,284.729 258.477,285.375 259.159 C 286.021 259.842,286.794 260.400,287.093 260.400 C 287.392 260.400,288.084 260.847,288.630 261.394 L 289.624 262.388 290.112 261.294 C 290.484 260.460,290.618 250.324,290.675 218.600 C 290.717 195.720,290.852 176.335,290.977 175.522 C 291.389 172.821,291.499 172.800,305.080 172.800 L 317.182 172.800 317.891 173.882 C 318.767 175.219,319.227 312.793,318.363 314.887 C 317.402 317.214,315.495 316.871,311.445 313.640 C 310.590 312.958,309.735 312.400,309.545 312.400 C 309.355 312.400,308.846 312.046,308.414 311.614 C 307.981 311.181,306.728 310.371,305.628 309.814 C 304.528 309.257,303.444 308.456,303.218 308.034 C 302.992 307.612,301.927 306.974,300.851 306.617 C 299.775 306.259,298.558 305.595,298.147 305.140 C 297.736 304.686,296.590 303.898,295.600 303.391 C 294.610 302.883,293.596 302.128,293.346 301.713 C 293.096 301.298,292.138 300.710,291.217 300.406 C 290.296 300.102,289.330 299.552,289.071 299.184 C 288.812 298.816,287.828 298.122,286.883 297.641 C 285.939 297.160,284.852 296.452,284.468 296.068 C 284.083 295.683,282.967 294.951,281.986 294.440 C 281.006 293.929,279.630 293.007,278.928 292.391 C 278.227 291.775,277.290 291.156,276.847 291.015 C 276.404 290.874,275.939 290.437,275.814 290.044 C 275.565 289.260,274.426 288.599,272.666 288.215 C 272.042 288.079,271.067 287.503,270.499 286.936 C 269.932 286.368,268.909 285.670,268.226 285.385 C 267.543 285.100,266.627 284.470,266.192 283.986 C 265.756 283.502,264.470 282.694,263.334 282.190 C 262.197 281.686,261.074 280.912,260.837 280.469 C 260.600 280.026,259.775 279.456,259.004 279.201 C 258.233 278.947,257.374 278.413,257.095 278.014 C 256.815 277.615,255.880 276.993,255.015 276.632 C 254.150 276.271,252.811 275.486,252.040 274.888 C 250.752 273.890,249.823 273.293,245.985 271.000 C 245.248 270.560,244.018 269.610,243.251 268.890 C 242.484 268.169,241.393 267.473,240.828 267.343 C 240.263 267.213,239.153 266.602,238.363 265.985 C 237.572 265.368,236.081 264.466,235.050 263.981 C 234.019 263.497,233.007 262.787,232.803 262.405 C 232.598 262.023,231.839 261.472,231.115 261.182 C 230.392 260.892,229.209 260.147,228.486 259.527 C 227.763 258.907,226.994 258.400,226.777 258.400 C 226.560 258.400,225.621 257.708,224.691 256.862 C 223.761 256.016,222.387 255.115,221.638 254.861 C 220.256 254.392,217.908 252.808,215.261 250.559 C 214.457 249.877,213.308 249.199,212.707 249.054 C 212.106 248.908,211.026 248.284,210.307 247.667 C 209.588 247.050,208.431 246.317,207.736 246.039 C 207.041 245.761,206.000 245.002,205.422 244.354 C 204.844 243.705,203.836 243.067,203.181 242.936 C 202.527 242.805,201.273 242.001,200.395 241.149 C 199.517 240.297,198.519 239.600,198.177 239.600 C 197.835 239.600,197.070 239.081,196.477 238.446 C 195.885 237.811,194.950 237.163,194.400 237.005 C 193.850 236.848,192.766 236.222,191.992 235.614 C 191.217 235.007,189.777 234.101,188.792 233.601 C 187.806 233.101,186.910 232.581,186.800 232.445 C 186.690 232.309,185.610 231.526,184.400 230.704 C 183.190 229.883,181.804 228.923,181.320 228.570 C 179.573 227.297,179.600 226.626,179.600 271.286 L 179.600 314.124 178.567 315.479 L 177.534 316.833 165.329 316.716 L 153.123 316.600 152.161 315.400 L 151.199 314.200 151.299 244.511 L 151.400 174.822 152.324 173.911 L 153.249 173.000 153.940 173.840 C 154.320 174.302,155.579 174.994,156.737 175.379 C 157.896 175.764,159.327 176.527,159.918 177.074 C 160.508 177.621,161.542 178.299,162.214 178.580 C 162.886 178.861,163.737 179.549,164.104 180.110 C 164.471 180.670,165.453 181.350,166.286 181.621 C 167.119 181.892,167.945 182.360,168.123 182.663 C 168.301 182.965,169.482 183.735,170.747 184.373 C 172.013 185.012,173.293 185.830,173.592 186.190 C 173.891 186.551,174.781 187.115,175.568 187.444 C 176.356 187.773,177.450 188.462,178.000 188.976 C 178.550 189.489,179.619 190.222,180.376 190.604 C 181.133 190.986,182.072 191.682,182.463 192.150 C 183.028 192.827,183.176 192.870,183.187 192.362 C 183.204 191.537,182.069 190.522,180.531 189.986 C 179.862 189.753,179.095 189.151,178.826 188.649 C 178.542 188.118,177.523 187.443,176.394 187.037 C 175.326 186.653,174.188 185.936,173.866 185.444 C 173.544 184.953,172.553 184.333,171.664 184.067 C 170.776 183.800,169.949 183.269,169.828 182.887 C 169.608 182.194,166.923 180.800,165.808 180.800 C 165.485 180.800,164.949 180.275,164.617 179.633 C 164.228 178.881,163.581 178.371,162.793 178.199 C 162.122 178.051,161.272 177.472,160.905 176.911 C 160.173 175.793,158.174 174.800,156.659 174.800 C 156.073 174.800,155.438 174.412,155.046 173.814 C 153.909 172.079,152.938 171.826,151.797 172.966 M184.756 193.420 C 185.502 193.744,186.808 194.637,187.658 195.404 C 188.507 196.172,189.536 196.800,189.943 196.800 C 190.350 196.800,191.188 197.268,191.805 197.839 C 192.421 198.411,193.622 199.241,194.472 199.684 C 195.322 200.127,196.259 200.834,196.553 201.254 C 196.847 201.674,198.013 202.465,199.144 203.010 C 200.275 203.556,201.200 204.168,201.200 204.370 C 201.200 204.572,201.860 204.956,202.666 205.222 C 203.473 205.488,204.868 206.379,205.766 207.201 C 206.665 208.023,207.850 208.830,208.400 208.994 C 208.950 209.158,209.760 209.611,210.200 210.001 C 210.640 210.391,211.762 211.092,212.694 211.560 C 213.626 212.028,214.682 212.858,215.040 213.405 C 215.957 214.804,216.549 214.648,215.802 213.204 C 215.462 212.546,214.512 211.665,213.692 211.246 C 212.871 210.828,211.855 210.103,211.433 209.636 C 211.010 209.170,209.952 208.674,209.080 208.534 C 207.902 208.346,207.328 207.989,206.847 207.146 C 206.484 206.509,205.510 205.734,204.627 205.379 C 203.761 205.032,202.521 204.300,201.871 203.753 C 201.220 203.205,200.178 202.656,199.555 202.531 C 198.915 202.403,197.973 201.716,197.391 200.952 C 196.823 200.208,196.124 199.600,195.836 199.600 C 195.548 199.600,194.495 198.880,193.495 198.000 C 192.198 196.858,191.317 196.400,190.420 196.400 C 189.450 196.400,189.009 196.133,188.492 195.232 C 187.768 193.970,185.714 192.790,184.286 192.816 C 183.572 192.828,183.663 192.946,184.756 193.420 M198.900 396.700 C 0.333 396.801,0.000 396.802,0.000 397.600 C 0.000 398.397,393.719 398.933,398.500 398.143 C 400.385 397.832,400.750 396.332,398.900 396.500 C 398.295 396.554,308.295 396.645,198.900 396.700 " stroke="none" fill="#4c4c4c" fill-rule="evenodd"></path></g></svg>